M48
; DRILL file {KiCad (5.1.6)-1} date 08/21/20 09:18:46
; FORMAT={-:-/ absolute / inch / decimal}
; #@! TF.CreationDate,2020-08-21T09:18:46-06:00
; #@! TF.GenerationSoftware,Kicad,Pcbnew,(5.1.6)-1
FMAT,2
INCH
T1C0.0157
T2C0.0598
%
G90
G05
T1
X5.06Y-3.52
X5.1Y-3.48
X5.1Y-3.52
X5.14Y-3.38
X5.14Y-3.44
X5.14Y-3.48
X5.14Y-3.52
X5.14Y-3.56
X5.14Y-3.6
X5.18Y-3.4
X5.18Y-3.44
X5.18Y-3.52
X5.18Y-3.56
X5.18Y-3.63
X5.22Y-3.44
X5.22Y-3.48
X5.22Y-3.52
X5.22Y-3.56
X5.26Y-3.44
X5.26Y-3.48
X5.26Y-3.52
X5.26Y-3.56
X5.28Y-3.13
X5.28Y-3.18
X5.3Y-3.44
X5.3Y-3.48
X5.3Y-3.52
X5.3Y-3.56
X5.33Y-3.13
X5.33Y-3.18
X5.34Y-3.44
X5.34Y-3.48
X5.34Y-3.52
X5.34Y-3.56
X5.38Y-3.4
X5.38Y-3.44
X5.38Y-3.52
X5.38Y-3.56
X5.38Y-3.63
X5.42Y-3.38
X5.42Y-3.44
X5.42Y-3.48
X5.42Y-3.52
X5.42Y-3.56
X5.42Y-3.6
X5.46Y-3.48
X5.46Y-3.52
X5.5Y-3.52
X6.0225Y-3.6325
X6.04Y-2.9925
X6.0925Y-2.8625
X6.0925Y-3.03
X6.0925Y-3.405
T2
X7.22Y-2.9
X7.22Y-3.1
X7.22Y-3.3
X7.22Y-3.5
X7.22Y-3.7
X7.22Y-3.9
X4.24Y-2.9
X4.24Y-3.1
X4.24Y-3.3
X4.24Y-3.5
X4.24Y-3.7
X4.24Y-3.9
T0
M30
