M48
; DRILL file {KiCad (5.1.6)-1} date 11/12/20 09:23:18
; FORMAT={-:-/ absolute / metric / decimal}
; #@! TF.CreationDate,2020-11-12T09:23:18-07:00
; #@! TF.GenerationSoftware,Kicad,Pcbnew,(5.1.6)-1
; #@! TF.FileFunction,Plated,1,2,PTH
FMAT,2
METRIC
T1C0.400
T2C1.520
%
G90
G05
T1
X128.245Y-89.408
X129.261Y-88.392
X129.261Y-89.408
X130.277Y-85.852
X130.277Y-87.376
X130.277Y-88.392
X130.277Y-89.408
X130.277Y-90.424
X130.277Y-91.44
X131.293Y-86.36
X131.293Y-87.376
X131.293Y-89.408
X131.293Y-90.424
X131.293Y-92.202
X132.309Y-87.376
X132.309Y-88.392
X132.309Y-89.408
X132.309Y-90.424
X133.325Y-87.376
X133.325Y-88.392
X133.325Y-89.408
X133.325Y-90.424
X134.341Y-87.376
X134.341Y-88.392
X134.341Y-89.408
X134.341Y-90.424
X135.357Y-87.376
X135.357Y-88.392
X135.357Y-89.408
X135.357Y-90.424
X136.373Y-86.36
X136.373Y-87.376
X136.373Y-89.408
X136.373Y-90.424
X136.373Y-92.202
X137.389Y-85.852
X137.389Y-87.376
X137.389Y-88.392
X137.389Y-89.408
X137.389Y-90.424
X137.389Y-91.44
X138.024Y-74.219
X138.024Y-75.489
X138.405Y-88.392
X138.405Y-89.408
X139.294Y-74.219
X139.294Y-75.489
X139.497Y-89.408
X153.848Y-90.424
X155.27Y-84.15
X156.235Y-92.608
X167.056Y-80.543
X170.078Y-91.262
X175.108Y-84.023
X180.137Y-90.907
X180.696Y-91.796
X181.178Y-90.881
X181.178Y-92.634
X181.712Y-91.77
X182.22Y-90.881
T2
X107.696Y-73.66
X107.696Y-78.74
X107.696Y-83.82
X107.696Y-88.9
X107.696Y-93.98
X107.696Y-99.06
X183.388Y-73.66
X183.388Y-78.74
X183.388Y-83.82
X183.388Y-88.9
X183.388Y-93.98
X183.388Y-99.06
T0
M30
