%TF.GenerationSoftware,KiCad,Pcbnew,(5.1.6)-1*%
%TF.CreationDate,2020-11-12T09:23:23-07:00*%
%TF.ProjectId,WhiteJewel,57686974-654a-4657-9765-6c2e6b696361,rev?*%
%TF.SameCoordinates,Original*%
%TF.FileFunction,Copper,L2,Bot*%
%TF.FilePolarity,Positive*%
%FSLAX46Y46*%
G04 Gerber Fmt 4.6, Leading zero omitted, Abs format (unit mm)*
G04 Created by KiCad (PCBNEW (5.1.6)-1) date 2020-11-12 09:23:23*
%MOMM*%
%LPD*%
G01*
G04 APERTURE LIST*
%TA.AperFunction,ComponentPad*%
%ADD10C,3.000000*%
%TD*%
%TA.AperFunction,ComponentPad*%
%ADD11R,3.000000X3.000000*%
%TD*%
%TA.AperFunction,ViaPad*%
%ADD12C,0.800000*%
%TD*%
%TA.AperFunction,Conductor*%
%ADD13C,0.762000*%
%TD*%
%TA.AperFunction,Conductor*%
%ADD14C,0.304800*%
%TD*%
%TA.AperFunction,Conductor*%
%ADD15C,0.254000*%
%TD*%
G04 APERTURE END LIST*
D10*
%TO.P,J1,2*%
%TO.N,Net-(J1-Pad2)*%
X183388000Y-93980000D03*
%TO.P,J1,3*%
%TO.N,Net-(J1-Pad3)*%
X183388000Y-88900000D03*
D11*
%TO.P,J1,1*%
%TO.N,+24V*%
X183388000Y-99060000D03*
D10*
%TO.P,J1,4*%
%TO.N,Net-(J1-Pad4)*%
X183388000Y-83820000D03*
%TO.P,J1,5*%
%TO.N,Net-(J1-Pad5)*%
X183388000Y-78740000D03*
%TO.P,J1,6*%
%TO.N,GND*%
X183388000Y-73660000D03*
%TD*%
%TO.P,J2,6*%
%TO.N,GND*%
X107696000Y-73660000D03*
%TO.P,J2,5*%
%TO.N,Net-(J2-Pad5)*%
X107696000Y-78740000D03*
%TO.P,J2,4*%
%TO.N,Net-(J2-Pad4)*%
X107696000Y-83820000D03*
D11*
%TO.P,J2,1*%
%TO.N,+24V*%
X107696000Y-99060000D03*
D10*
%TO.P,J2,3*%
%TO.N,Net-(J2-Pad3)*%
X107696000Y-88900000D03*
%TO.P,J2,2*%
%TO.N,Net-(J2-Pad2)*%
X107696000Y-93980000D03*
%TD*%
D12*
%TO.N,+24V*%
X156235400Y-92608400D03*
X155270200Y-84150200D03*
%TO.N,Net-(J1-Pad5)*%
X175107600Y-84023200D03*
%TO.N,GND*%
X180136800Y-90906600D03*
X182219600Y-90881200D03*
X181711600Y-91770200D03*
X180695600Y-91795600D03*
X181178200Y-92633800D03*
X181178200Y-90881200D03*
X130276600Y-85852000D03*
X131292600Y-86360000D03*
X131292600Y-87376000D03*
X130276600Y-87376000D03*
X132308600Y-87376000D03*
X133324600Y-87376000D03*
X134340600Y-87376000D03*
X135356600Y-87376000D03*
X136372600Y-87376000D03*
X137388600Y-87376000D03*
X136372600Y-86360000D03*
X137388600Y-85852000D03*
X130276600Y-88392000D03*
X130276600Y-89408000D03*
X130276600Y-90424000D03*
X130276600Y-91440000D03*
X137388600Y-88392000D03*
X137388600Y-89408000D03*
X137388600Y-90424000D03*
X137388600Y-91440000D03*
X131292600Y-90424000D03*
X131292600Y-92202000D03*
X136372600Y-90424000D03*
X136372600Y-92202000D03*
X132308600Y-90424000D03*
X133324600Y-90424000D03*
X134340600Y-90424000D03*
X135356600Y-90424000D03*
X129260600Y-89408000D03*
X128244600Y-89408000D03*
X129260600Y-88392000D03*
X138404600Y-88392000D03*
X138404600Y-89408000D03*
X139496800Y-89408000D03*
X131292600Y-89408000D03*
X132308600Y-89408000D03*
X133324600Y-89408000D03*
X134340600Y-89408000D03*
X135356600Y-89408000D03*
X136372600Y-89408000D03*
X132308600Y-88392000D03*
X133324600Y-88392000D03*
X134340600Y-88392000D03*
X135356600Y-88392000D03*
X138023600Y-74218800D03*
X138023600Y-75488800D03*
X139293600Y-75488800D03*
X139293600Y-74218800D03*
X167055800Y-80543400D03*
X170078400Y-91262200D03*
%TO.N,Net-(J2-Pad2)*%
X153847800Y-90424000D03*
%TD*%
D13*
%TO.N,+24V*%
X164338000Y-99060000D02*
X184150000Y-99060000D01*
X106680000Y-99060000D02*
X154749500Y-99060000D01*
X154749500Y-99060000D02*
X155854400Y-99060000D01*
X156260800Y-99060000D02*
X164338000Y-99060000D01*
X156260800Y-92633800D02*
X156235400Y-92608400D01*
X156260800Y-99060000D02*
X156260800Y-92633800D01*
X155854400Y-99060000D02*
X156260800Y-99060000D01*
X156235400Y-92608400D02*
X156235400Y-85115400D01*
X156235400Y-85115400D02*
X155270200Y-84150200D01*
D14*
%TO.N,Net-(J1-Pad5)*%
X183388000Y-78740000D02*
X180390800Y-78740000D01*
X180390800Y-78740000D02*
X175107600Y-84023200D01*
%TO.N,Net-(J2-Pad2)*%
X107696000Y-93980000D02*
X150291800Y-93980000D01*
X150291800Y-93980000D02*
X153847800Y-90424000D01*
%TD*%
D15*
%TO.N,GND*%
G36*
X188240000Y-102040000D02*
G01*
X102679500Y-102040000D01*
X102679500Y-97560000D01*
X105557928Y-97560000D01*
X105557928Y-100560000D01*
X105570188Y-100684482D01*
X105606498Y-100804180D01*
X105665463Y-100914494D01*
X105744815Y-101011185D01*
X105841506Y-101090537D01*
X105951820Y-101149502D01*
X106071518Y-101185812D01*
X106196000Y-101198072D01*
X109196000Y-101198072D01*
X109320482Y-101185812D01*
X109440180Y-101149502D01*
X109550494Y-101090537D01*
X109647185Y-101011185D01*
X109726537Y-100914494D01*
X109785502Y-100804180D01*
X109821812Y-100684482D01*
X109834072Y-100560000D01*
X109834072Y-100076000D01*
X156210898Y-100076000D01*
X156260800Y-100080915D01*
X156310702Y-100076000D01*
X181249928Y-100076000D01*
X181249928Y-100560000D01*
X181262188Y-100684482D01*
X181298498Y-100804180D01*
X181357463Y-100914494D01*
X181436815Y-101011185D01*
X181533506Y-101090537D01*
X181643820Y-101149502D01*
X181763518Y-101185812D01*
X181888000Y-101198072D01*
X184888000Y-101198072D01*
X185012482Y-101185812D01*
X185132180Y-101149502D01*
X185242494Y-101090537D01*
X185339185Y-101011185D01*
X185418537Y-100914494D01*
X185477502Y-100804180D01*
X185513812Y-100684482D01*
X185526072Y-100560000D01*
X185526072Y-97560000D01*
X185513812Y-97435518D01*
X185477502Y-97315820D01*
X185418537Y-97205506D01*
X185339185Y-97108815D01*
X185242494Y-97029463D01*
X185132180Y-96970498D01*
X185012482Y-96934188D01*
X184888000Y-96921928D01*
X181888000Y-96921928D01*
X181763518Y-96934188D01*
X181643820Y-96970498D01*
X181533506Y-97029463D01*
X181436815Y-97108815D01*
X181357463Y-97205506D01*
X181298498Y-97315820D01*
X181262188Y-97435518D01*
X181249928Y-97560000D01*
X181249928Y-98044000D01*
X157276800Y-98044000D01*
X157276800Y-93769721D01*
X181253000Y-93769721D01*
X181253000Y-94190279D01*
X181335047Y-94602756D01*
X181495988Y-94991302D01*
X181729637Y-95340983D01*
X182027017Y-95638363D01*
X182376698Y-95872012D01*
X182765244Y-96032953D01*
X183177721Y-96115000D01*
X183598279Y-96115000D01*
X184010756Y-96032953D01*
X184399302Y-95872012D01*
X184748983Y-95638363D01*
X185046363Y-95340983D01*
X185280012Y-94991302D01*
X185440953Y-94602756D01*
X185523000Y-94190279D01*
X185523000Y-93769721D01*
X185440953Y-93357244D01*
X185280012Y-92968698D01*
X185046363Y-92619017D01*
X184748983Y-92321637D01*
X184399302Y-92087988D01*
X184010756Y-91927047D01*
X183598279Y-91845000D01*
X183177721Y-91845000D01*
X182765244Y-91927047D01*
X182376698Y-92087988D01*
X182027017Y-92321637D01*
X181729637Y-92619017D01*
X181495988Y-92968698D01*
X181335047Y-93357244D01*
X181253000Y-93769721D01*
X157276800Y-93769721D01*
X157276800Y-92683701D01*
X157281715Y-92633799D01*
X157270400Y-92518919D01*
X157270400Y-92506461D01*
X157267969Y-92494241D01*
X157262098Y-92434630D01*
X157254393Y-92409230D01*
X157251400Y-92399363D01*
X157251400Y-88689721D01*
X181253000Y-88689721D01*
X181253000Y-89110279D01*
X181335047Y-89522756D01*
X181495988Y-89911302D01*
X181729637Y-90260983D01*
X182027017Y-90558363D01*
X182376698Y-90792012D01*
X182765244Y-90952953D01*
X183177721Y-91035000D01*
X183598279Y-91035000D01*
X184010756Y-90952953D01*
X184399302Y-90792012D01*
X184748983Y-90558363D01*
X185046363Y-90260983D01*
X185280012Y-89911302D01*
X185440953Y-89522756D01*
X185523000Y-89110279D01*
X185523000Y-88689721D01*
X185440953Y-88277244D01*
X185280012Y-87888698D01*
X185046363Y-87539017D01*
X184748983Y-87241637D01*
X184399302Y-87007988D01*
X184010756Y-86847047D01*
X183598279Y-86765000D01*
X183177721Y-86765000D01*
X182765244Y-86847047D01*
X182376698Y-87007988D01*
X182027017Y-87241637D01*
X181729637Y-87539017D01*
X181495988Y-87888698D01*
X181335047Y-88277244D01*
X181253000Y-88689721D01*
X157251400Y-88689721D01*
X157251400Y-85165302D01*
X157256315Y-85115400D01*
X157236698Y-84916229D01*
X157178602Y-84724712D01*
X157115855Y-84607321D01*
X157084260Y-84548210D01*
X156957296Y-84393504D01*
X156918533Y-84361692D01*
X156478102Y-83921261D01*
X174072600Y-83921261D01*
X174072600Y-84125139D01*
X174112374Y-84325098D01*
X174190395Y-84513456D01*
X174303663Y-84682974D01*
X174447826Y-84827137D01*
X174617344Y-84940405D01*
X174805702Y-85018426D01*
X175005661Y-85058200D01*
X175209539Y-85058200D01*
X175409498Y-85018426D01*
X175597856Y-84940405D01*
X175767374Y-84827137D01*
X175911537Y-84682974D01*
X176024805Y-84513456D01*
X176102826Y-84325098D01*
X176142600Y-84125139D01*
X176142600Y-84101750D01*
X176634629Y-83609721D01*
X181253000Y-83609721D01*
X181253000Y-84030279D01*
X181335047Y-84442756D01*
X181495988Y-84831302D01*
X181729637Y-85180983D01*
X182027017Y-85478363D01*
X182376698Y-85712012D01*
X182765244Y-85872953D01*
X183177721Y-85955000D01*
X183598279Y-85955000D01*
X184010756Y-85872953D01*
X184399302Y-85712012D01*
X184748983Y-85478363D01*
X185046363Y-85180983D01*
X185280012Y-84831302D01*
X185440953Y-84442756D01*
X185523000Y-84030279D01*
X185523000Y-83609721D01*
X185440953Y-83197244D01*
X185280012Y-82808698D01*
X185046363Y-82459017D01*
X184748983Y-82161637D01*
X184399302Y-81927988D01*
X184010756Y-81767047D01*
X183598279Y-81685000D01*
X183177721Y-81685000D01*
X182765244Y-81767047D01*
X182376698Y-81927988D01*
X182027017Y-82161637D01*
X181729637Y-82459017D01*
X181495988Y-82808698D01*
X181335047Y-83197244D01*
X181253000Y-83609721D01*
X176634629Y-83609721D01*
X180716952Y-79527400D01*
X181403245Y-79527400D01*
X181495988Y-79751302D01*
X181729637Y-80100983D01*
X182027017Y-80398363D01*
X182376698Y-80632012D01*
X182765244Y-80792953D01*
X183177721Y-80875000D01*
X183598279Y-80875000D01*
X184010756Y-80792953D01*
X184399302Y-80632012D01*
X184748983Y-80398363D01*
X185046363Y-80100983D01*
X185280012Y-79751302D01*
X185440953Y-79362756D01*
X185523000Y-78950279D01*
X185523000Y-78529721D01*
X185440953Y-78117244D01*
X185280012Y-77728698D01*
X185046363Y-77379017D01*
X184748983Y-77081637D01*
X184399302Y-76847988D01*
X184010756Y-76687047D01*
X183598279Y-76605000D01*
X183177721Y-76605000D01*
X182765244Y-76687047D01*
X182376698Y-76847988D01*
X182027017Y-77081637D01*
X181729637Y-77379017D01*
X181495988Y-77728698D01*
X181403245Y-77952600D01*
X180429462Y-77952600D01*
X180390799Y-77948792D01*
X180352136Y-77952600D01*
X180352127Y-77952600D01*
X180236443Y-77963994D01*
X180088017Y-78009018D01*
X179951228Y-78082134D01*
X179951226Y-78082135D01*
X179951227Y-78082135D01*
X179861369Y-78155879D01*
X179861367Y-78155881D01*
X179831331Y-78180531D01*
X179806681Y-78210567D01*
X175029050Y-82988200D01*
X175005661Y-82988200D01*
X174805702Y-83027974D01*
X174617344Y-83105995D01*
X174447826Y-83219263D01*
X174303663Y-83363426D01*
X174190395Y-83532944D01*
X174112374Y-83721302D01*
X174072600Y-83921261D01*
X156478102Y-83921261D01*
X156128246Y-83571405D01*
X156074137Y-83490426D01*
X155929974Y-83346263D01*
X155760456Y-83232995D01*
X155572098Y-83154974D01*
X155372139Y-83115200D01*
X155168261Y-83115200D01*
X154968302Y-83154974D01*
X154779944Y-83232995D01*
X154610426Y-83346263D01*
X154466263Y-83490426D01*
X154352995Y-83659944D01*
X154274974Y-83848302D01*
X154235200Y-84048261D01*
X154235200Y-84252139D01*
X154274974Y-84452098D01*
X154352995Y-84640456D01*
X154466263Y-84809974D01*
X154610426Y-84954137D01*
X154691405Y-85008246D01*
X155219401Y-85536242D01*
X155219400Y-92410941D01*
X155200400Y-92506461D01*
X155200400Y-92710339D01*
X155240174Y-92910298D01*
X155244801Y-92921468D01*
X155244800Y-98044000D01*
X109834072Y-98044000D01*
X109834072Y-97560000D01*
X109821812Y-97435518D01*
X109785502Y-97315820D01*
X109726537Y-97205506D01*
X109647185Y-97108815D01*
X109550494Y-97029463D01*
X109440180Y-96970498D01*
X109320482Y-96934188D01*
X109196000Y-96921928D01*
X106196000Y-96921928D01*
X106071518Y-96934188D01*
X105951820Y-96970498D01*
X105841506Y-97029463D01*
X105744815Y-97108815D01*
X105665463Y-97205506D01*
X105606498Y-97315820D01*
X105570188Y-97435518D01*
X105557928Y-97560000D01*
X102679500Y-97560000D01*
X102679500Y-93769721D01*
X105561000Y-93769721D01*
X105561000Y-94190279D01*
X105643047Y-94602756D01*
X105803988Y-94991302D01*
X106037637Y-95340983D01*
X106335017Y-95638363D01*
X106684698Y-95872012D01*
X107073244Y-96032953D01*
X107485721Y-96115000D01*
X107906279Y-96115000D01*
X108318756Y-96032953D01*
X108707302Y-95872012D01*
X109056983Y-95638363D01*
X109354363Y-95340983D01*
X109588012Y-94991302D01*
X109680755Y-94767400D01*
X150253137Y-94767400D01*
X150291800Y-94771208D01*
X150330463Y-94767400D01*
X150330473Y-94767400D01*
X150446157Y-94756006D01*
X150594583Y-94710982D01*
X150731372Y-94637866D01*
X150851269Y-94539469D01*
X150875928Y-94509422D01*
X153926352Y-91459000D01*
X153949739Y-91459000D01*
X154149698Y-91419226D01*
X154338056Y-91341205D01*
X154507574Y-91227937D01*
X154651737Y-91083774D01*
X154765005Y-90914256D01*
X154843026Y-90725898D01*
X154882800Y-90525939D01*
X154882800Y-90322061D01*
X154843026Y-90122102D01*
X154765005Y-89933744D01*
X154651737Y-89764226D01*
X154507574Y-89620063D01*
X154338056Y-89506795D01*
X154149698Y-89428774D01*
X153949739Y-89389000D01*
X153745861Y-89389000D01*
X153545902Y-89428774D01*
X153357544Y-89506795D01*
X153188026Y-89620063D01*
X153043863Y-89764226D01*
X152930595Y-89933744D01*
X152852574Y-90122102D01*
X152812800Y-90322061D01*
X152812800Y-90345448D01*
X149965650Y-93192600D01*
X109680755Y-93192600D01*
X109588012Y-92968698D01*
X109354363Y-92619017D01*
X109056983Y-92321637D01*
X108707302Y-92087988D01*
X108318756Y-91927047D01*
X107906279Y-91845000D01*
X107485721Y-91845000D01*
X107073244Y-91927047D01*
X106684698Y-92087988D01*
X106335017Y-92321637D01*
X106037637Y-92619017D01*
X105803988Y-92968698D01*
X105643047Y-93357244D01*
X105561000Y-93769721D01*
X102679500Y-93769721D01*
X102679500Y-88689721D01*
X105561000Y-88689721D01*
X105561000Y-89110279D01*
X105643047Y-89522756D01*
X105803988Y-89911302D01*
X106037637Y-90260983D01*
X106335017Y-90558363D01*
X106684698Y-90792012D01*
X107073244Y-90952953D01*
X107485721Y-91035000D01*
X107906279Y-91035000D01*
X108318756Y-90952953D01*
X108707302Y-90792012D01*
X109056983Y-90558363D01*
X109354363Y-90260983D01*
X109588012Y-89911302D01*
X109748953Y-89522756D01*
X109831000Y-89110279D01*
X109831000Y-88689721D01*
X109748953Y-88277244D01*
X109588012Y-87888698D01*
X109354363Y-87539017D01*
X109056983Y-87241637D01*
X108707302Y-87007988D01*
X108318756Y-86847047D01*
X107906279Y-86765000D01*
X107485721Y-86765000D01*
X107073244Y-86847047D01*
X106684698Y-87007988D01*
X106335017Y-87241637D01*
X106037637Y-87539017D01*
X105803988Y-87888698D01*
X105643047Y-88277244D01*
X105561000Y-88689721D01*
X102679500Y-88689721D01*
X102679500Y-83609721D01*
X105561000Y-83609721D01*
X105561000Y-84030279D01*
X105643047Y-84442756D01*
X105803988Y-84831302D01*
X106037637Y-85180983D01*
X106335017Y-85478363D01*
X106684698Y-85712012D01*
X107073244Y-85872953D01*
X107485721Y-85955000D01*
X107906279Y-85955000D01*
X108318756Y-85872953D01*
X108707302Y-85712012D01*
X109056983Y-85478363D01*
X109354363Y-85180983D01*
X109588012Y-84831302D01*
X109748953Y-84442756D01*
X109831000Y-84030279D01*
X109831000Y-83609721D01*
X109748953Y-83197244D01*
X109588012Y-82808698D01*
X109354363Y-82459017D01*
X109056983Y-82161637D01*
X108707302Y-81927988D01*
X108318756Y-81767047D01*
X107906279Y-81685000D01*
X107485721Y-81685000D01*
X107073244Y-81767047D01*
X106684698Y-81927988D01*
X106335017Y-82161637D01*
X106037637Y-82459017D01*
X105803988Y-82808698D01*
X105643047Y-83197244D01*
X105561000Y-83609721D01*
X102679500Y-83609721D01*
X102679500Y-78529721D01*
X105561000Y-78529721D01*
X105561000Y-78950279D01*
X105643047Y-79362756D01*
X105803988Y-79751302D01*
X106037637Y-80100983D01*
X106335017Y-80398363D01*
X106684698Y-80632012D01*
X107073244Y-80792953D01*
X107485721Y-80875000D01*
X107906279Y-80875000D01*
X108318756Y-80792953D01*
X108707302Y-80632012D01*
X109056983Y-80398363D01*
X109354363Y-80100983D01*
X109588012Y-79751302D01*
X109748953Y-79362756D01*
X109831000Y-78950279D01*
X109831000Y-78529721D01*
X109748953Y-78117244D01*
X109588012Y-77728698D01*
X109354363Y-77379017D01*
X109056983Y-77081637D01*
X108707302Y-76847988D01*
X108318756Y-76687047D01*
X107906279Y-76605000D01*
X107485721Y-76605000D01*
X107073244Y-76687047D01*
X106684698Y-76847988D01*
X106335017Y-77081637D01*
X106037637Y-77379017D01*
X105803988Y-77728698D01*
X105643047Y-78117244D01*
X105561000Y-78529721D01*
X102679500Y-78529721D01*
X102679500Y-75151653D01*
X106383952Y-75151653D01*
X106539962Y-75467214D01*
X106914745Y-75658020D01*
X107319551Y-75772044D01*
X107738824Y-75804902D01*
X108156451Y-75755334D01*
X108556383Y-75625243D01*
X108852038Y-75467214D01*
X109008048Y-75151653D01*
X182075952Y-75151653D01*
X182231962Y-75467214D01*
X182606745Y-75658020D01*
X183011551Y-75772044D01*
X183430824Y-75804902D01*
X183848451Y-75755334D01*
X184248383Y-75625243D01*
X184544038Y-75467214D01*
X184700048Y-75151653D01*
X183388000Y-73839605D01*
X182075952Y-75151653D01*
X109008048Y-75151653D01*
X107696000Y-73839605D01*
X106383952Y-75151653D01*
X102679500Y-75151653D01*
X102679500Y-73702824D01*
X105551098Y-73702824D01*
X105600666Y-74120451D01*
X105730757Y-74520383D01*
X105888786Y-74816038D01*
X106204347Y-74972048D01*
X107516395Y-73660000D01*
X107875605Y-73660000D01*
X109187653Y-74972048D01*
X109503214Y-74816038D01*
X109694020Y-74441255D01*
X109808044Y-74036449D01*
X109834189Y-73702824D01*
X181243098Y-73702824D01*
X181292666Y-74120451D01*
X181422757Y-74520383D01*
X181580786Y-74816038D01*
X181896347Y-74972048D01*
X183208395Y-73660000D01*
X183567605Y-73660000D01*
X184879653Y-74972048D01*
X185195214Y-74816038D01*
X185386020Y-74441255D01*
X185500044Y-74036449D01*
X185532902Y-73617176D01*
X185483334Y-73199549D01*
X185353243Y-72799617D01*
X185195214Y-72503962D01*
X184879653Y-72347952D01*
X183567605Y-73660000D01*
X183208395Y-73660000D01*
X181896347Y-72347952D01*
X181580786Y-72503962D01*
X181389980Y-72878745D01*
X181275956Y-73283551D01*
X181243098Y-73702824D01*
X109834189Y-73702824D01*
X109840902Y-73617176D01*
X109791334Y-73199549D01*
X109661243Y-72799617D01*
X109503214Y-72503962D01*
X109187653Y-72347952D01*
X107875605Y-73660000D01*
X107516395Y-73660000D01*
X106204347Y-72347952D01*
X105888786Y-72503962D01*
X105697980Y-72878745D01*
X105583956Y-73283551D01*
X105551098Y-73702824D01*
X102679500Y-73702824D01*
X102679500Y-72168347D01*
X106383952Y-72168347D01*
X107696000Y-73480395D01*
X109008048Y-72168347D01*
X182075952Y-72168347D01*
X183388000Y-73480395D01*
X184700048Y-72168347D01*
X184544038Y-71852786D01*
X184169255Y-71661980D01*
X183764449Y-71547956D01*
X183345176Y-71515098D01*
X182927549Y-71564666D01*
X182527617Y-71694757D01*
X182231962Y-71852786D01*
X182075952Y-72168347D01*
X109008048Y-72168347D01*
X108852038Y-71852786D01*
X108477255Y-71661980D01*
X108072449Y-71547956D01*
X107653176Y-71515098D01*
X107235549Y-71564666D01*
X106835617Y-71694757D01*
X106539962Y-71852786D01*
X106383952Y-72168347D01*
X102679500Y-72168347D01*
X102679500Y-70510000D01*
X188240001Y-70510000D01*
X188240000Y-102040000D01*
G37*
X188240000Y-102040000D02*
X102679500Y-102040000D01*
X102679500Y-97560000D01*
X105557928Y-97560000D01*
X105557928Y-100560000D01*
X105570188Y-100684482D01*
X105606498Y-100804180D01*
X105665463Y-100914494D01*
X105744815Y-101011185D01*
X105841506Y-101090537D01*
X105951820Y-101149502D01*
X106071518Y-101185812D01*
X106196000Y-101198072D01*
X109196000Y-101198072D01*
X109320482Y-101185812D01*
X109440180Y-101149502D01*
X109550494Y-101090537D01*
X109647185Y-101011185D01*
X109726537Y-100914494D01*
X109785502Y-100804180D01*
X109821812Y-100684482D01*
X109834072Y-100560000D01*
X109834072Y-100076000D01*
X156210898Y-100076000D01*
X156260800Y-100080915D01*
X156310702Y-100076000D01*
X181249928Y-100076000D01*
X181249928Y-100560000D01*
X181262188Y-100684482D01*
X181298498Y-100804180D01*
X181357463Y-100914494D01*
X181436815Y-101011185D01*
X181533506Y-101090537D01*
X181643820Y-101149502D01*
X181763518Y-101185812D01*
X181888000Y-101198072D01*
X184888000Y-101198072D01*
X185012482Y-101185812D01*
X185132180Y-101149502D01*
X185242494Y-101090537D01*
X185339185Y-101011185D01*
X185418537Y-100914494D01*
X185477502Y-100804180D01*
X185513812Y-100684482D01*
X185526072Y-100560000D01*
X185526072Y-97560000D01*
X185513812Y-97435518D01*
X185477502Y-97315820D01*
X185418537Y-97205506D01*
X185339185Y-97108815D01*
X185242494Y-97029463D01*
X185132180Y-96970498D01*
X185012482Y-96934188D01*
X184888000Y-96921928D01*
X181888000Y-96921928D01*
X181763518Y-96934188D01*
X181643820Y-96970498D01*
X181533506Y-97029463D01*
X181436815Y-97108815D01*
X181357463Y-97205506D01*
X181298498Y-97315820D01*
X181262188Y-97435518D01*
X181249928Y-97560000D01*
X181249928Y-98044000D01*
X157276800Y-98044000D01*
X157276800Y-93769721D01*
X181253000Y-93769721D01*
X181253000Y-94190279D01*
X181335047Y-94602756D01*
X181495988Y-94991302D01*
X181729637Y-95340983D01*
X182027017Y-95638363D01*
X182376698Y-95872012D01*
X182765244Y-96032953D01*
X183177721Y-96115000D01*
X183598279Y-96115000D01*
X184010756Y-96032953D01*
X184399302Y-95872012D01*
X184748983Y-95638363D01*
X185046363Y-95340983D01*
X185280012Y-94991302D01*
X185440953Y-94602756D01*
X185523000Y-94190279D01*
X185523000Y-93769721D01*
X185440953Y-93357244D01*
X185280012Y-92968698D01*
X185046363Y-92619017D01*
X184748983Y-92321637D01*
X184399302Y-92087988D01*
X184010756Y-91927047D01*
X183598279Y-91845000D01*
X183177721Y-91845000D01*
X182765244Y-91927047D01*
X182376698Y-92087988D01*
X182027017Y-92321637D01*
X181729637Y-92619017D01*
X181495988Y-92968698D01*
X181335047Y-93357244D01*
X181253000Y-93769721D01*
X157276800Y-93769721D01*
X157276800Y-92683701D01*
X157281715Y-92633799D01*
X157270400Y-92518919D01*
X157270400Y-92506461D01*
X157267969Y-92494241D01*
X157262098Y-92434630D01*
X157254393Y-92409230D01*
X157251400Y-92399363D01*
X157251400Y-88689721D01*
X181253000Y-88689721D01*
X181253000Y-89110279D01*
X181335047Y-89522756D01*
X181495988Y-89911302D01*
X181729637Y-90260983D01*
X182027017Y-90558363D01*
X182376698Y-90792012D01*
X182765244Y-90952953D01*
X183177721Y-91035000D01*
X183598279Y-91035000D01*
X184010756Y-90952953D01*
X184399302Y-90792012D01*
X184748983Y-90558363D01*
X185046363Y-90260983D01*
X185280012Y-89911302D01*
X185440953Y-89522756D01*
X185523000Y-89110279D01*
X185523000Y-88689721D01*
X185440953Y-88277244D01*
X185280012Y-87888698D01*
X185046363Y-87539017D01*
X184748983Y-87241637D01*
X184399302Y-87007988D01*
X184010756Y-86847047D01*
X183598279Y-86765000D01*
X183177721Y-86765000D01*
X182765244Y-86847047D01*
X182376698Y-87007988D01*
X182027017Y-87241637D01*
X181729637Y-87539017D01*
X181495988Y-87888698D01*
X181335047Y-88277244D01*
X181253000Y-88689721D01*
X157251400Y-88689721D01*
X157251400Y-85165302D01*
X157256315Y-85115400D01*
X157236698Y-84916229D01*
X157178602Y-84724712D01*
X157115855Y-84607321D01*
X157084260Y-84548210D01*
X156957296Y-84393504D01*
X156918533Y-84361692D01*
X156478102Y-83921261D01*
X174072600Y-83921261D01*
X174072600Y-84125139D01*
X174112374Y-84325098D01*
X174190395Y-84513456D01*
X174303663Y-84682974D01*
X174447826Y-84827137D01*
X174617344Y-84940405D01*
X174805702Y-85018426D01*
X175005661Y-85058200D01*
X175209539Y-85058200D01*
X175409498Y-85018426D01*
X175597856Y-84940405D01*
X175767374Y-84827137D01*
X175911537Y-84682974D01*
X176024805Y-84513456D01*
X176102826Y-84325098D01*
X176142600Y-84125139D01*
X176142600Y-84101750D01*
X176634629Y-83609721D01*
X181253000Y-83609721D01*
X181253000Y-84030279D01*
X181335047Y-84442756D01*
X181495988Y-84831302D01*
X181729637Y-85180983D01*
X182027017Y-85478363D01*
X182376698Y-85712012D01*
X182765244Y-85872953D01*
X183177721Y-85955000D01*
X183598279Y-85955000D01*
X184010756Y-85872953D01*
X184399302Y-85712012D01*
X184748983Y-85478363D01*
X185046363Y-85180983D01*
X185280012Y-84831302D01*
X185440953Y-84442756D01*
X185523000Y-84030279D01*
X185523000Y-83609721D01*
X185440953Y-83197244D01*
X185280012Y-82808698D01*
X185046363Y-82459017D01*
X184748983Y-82161637D01*
X184399302Y-81927988D01*
X184010756Y-81767047D01*
X183598279Y-81685000D01*
X183177721Y-81685000D01*
X182765244Y-81767047D01*
X182376698Y-81927988D01*
X182027017Y-82161637D01*
X181729637Y-82459017D01*
X181495988Y-82808698D01*
X181335047Y-83197244D01*
X181253000Y-83609721D01*
X176634629Y-83609721D01*
X180716952Y-79527400D01*
X181403245Y-79527400D01*
X181495988Y-79751302D01*
X181729637Y-80100983D01*
X182027017Y-80398363D01*
X182376698Y-80632012D01*
X182765244Y-80792953D01*
X183177721Y-80875000D01*
X183598279Y-80875000D01*
X184010756Y-80792953D01*
X184399302Y-80632012D01*
X184748983Y-80398363D01*
X185046363Y-80100983D01*
X185280012Y-79751302D01*
X185440953Y-79362756D01*
X185523000Y-78950279D01*
X185523000Y-78529721D01*
X185440953Y-78117244D01*
X185280012Y-77728698D01*
X185046363Y-77379017D01*
X184748983Y-77081637D01*
X184399302Y-76847988D01*
X184010756Y-76687047D01*
X183598279Y-76605000D01*
X183177721Y-76605000D01*
X182765244Y-76687047D01*
X182376698Y-76847988D01*
X182027017Y-77081637D01*
X181729637Y-77379017D01*
X181495988Y-77728698D01*
X181403245Y-77952600D01*
X180429462Y-77952600D01*
X180390799Y-77948792D01*
X180352136Y-77952600D01*
X180352127Y-77952600D01*
X180236443Y-77963994D01*
X180088017Y-78009018D01*
X179951228Y-78082134D01*
X179951226Y-78082135D01*
X179951227Y-78082135D01*
X179861369Y-78155879D01*
X179861367Y-78155881D01*
X179831331Y-78180531D01*
X179806681Y-78210567D01*
X175029050Y-82988200D01*
X175005661Y-82988200D01*
X174805702Y-83027974D01*
X174617344Y-83105995D01*
X174447826Y-83219263D01*
X174303663Y-83363426D01*
X174190395Y-83532944D01*
X174112374Y-83721302D01*
X174072600Y-83921261D01*
X156478102Y-83921261D01*
X156128246Y-83571405D01*
X156074137Y-83490426D01*
X155929974Y-83346263D01*
X155760456Y-83232995D01*
X155572098Y-83154974D01*
X155372139Y-83115200D01*
X155168261Y-83115200D01*
X154968302Y-83154974D01*
X154779944Y-83232995D01*
X154610426Y-83346263D01*
X154466263Y-83490426D01*
X154352995Y-83659944D01*
X154274974Y-83848302D01*
X154235200Y-84048261D01*
X154235200Y-84252139D01*
X154274974Y-84452098D01*
X154352995Y-84640456D01*
X154466263Y-84809974D01*
X154610426Y-84954137D01*
X154691405Y-85008246D01*
X155219401Y-85536242D01*
X155219400Y-92410941D01*
X155200400Y-92506461D01*
X155200400Y-92710339D01*
X155240174Y-92910298D01*
X155244801Y-92921468D01*
X155244800Y-98044000D01*
X109834072Y-98044000D01*
X109834072Y-97560000D01*
X109821812Y-97435518D01*
X109785502Y-97315820D01*
X109726537Y-97205506D01*
X109647185Y-97108815D01*
X109550494Y-97029463D01*
X109440180Y-96970498D01*
X109320482Y-96934188D01*
X109196000Y-96921928D01*
X106196000Y-96921928D01*
X106071518Y-96934188D01*
X105951820Y-96970498D01*
X105841506Y-97029463D01*
X105744815Y-97108815D01*
X105665463Y-97205506D01*
X105606498Y-97315820D01*
X105570188Y-97435518D01*
X105557928Y-97560000D01*
X102679500Y-97560000D01*
X102679500Y-93769721D01*
X105561000Y-93769721D01*
X105561000Y-94190279D01*
X105643047Y-94602756D01*
X105803988Y-94991302D01*
X106037637Y-95340983D01*
X106335017Y-95638363D01*
X106684698Y-95872012D01*
X107073244Y-96032953D01*
X107485721Y-96115000D01*
X107906279Y-96115000D01*
X108318756Y-96032953D01*
X108707302Y-95872012D01*
X109056983Y-95638363D01*
X109354363Y-95340983D01*
X109588012Y-94991302D01*
X109680755Y-94767400D01*
X150253137Y-94767400D01*
X150291800Y-94771208D01*
X150330463Y-94767400D01*
X150330473Y-94767400D01*
X150446157Y-94756006D01*
X150594583Y-94710982D01*
X150731372Y-94637866D01*
X150851269Y-94539469D01*
X150875928Y-94509422D01*
X153926352Y-91459000D01*
X153949739Y-91459000D01*
X154149698Y-91419226D01*
X154338056Y-91341205D01*
X154507574Y-91227937D01*
X154651737Y-91083774D01*
X154765005Y-90914256D01*
X154843026Y-90725898D01*
X154882800Y-90525939D01*
X154882800Y-90322061D01*
X154843026Y-90122102D01*
X154765005Y-89933744D01*
X154651737Y-89764226D01*
X154507574Y-89620063D01*
X154338056Y-89506795D01*
X154149698Y-89428774D01*
X153949739Y-89389000D01*
X153745861Y-89389000D01*
X153545902Y-89428774D01*
X153357544Y-89506795D01*
X153188026Y-89620063D01*
X153043863Y-89764226D01*
X152930595Y-89933744D01*
X152852574Y-90122102D01*
X152812800Y-90322061D01*
X152812800Y-90345448D01*
X149965650Y-93192600D01*
X109680755Y-93192600D01*
X109588012Y-92968698D01*
X109354363Y-92619017D01*
X109056983Y-92321637D01*
X108707302Y-92087988D01*
X108318756Y-91927047D01*
X107906279Y-91845000D01*
X107485721Y-91845000D01*
X107073244Y-91927047D01*
X106684698Y-92087988D01*
X106335017Y-92321637D01*
X106037637Y-92619017D01*
X105803988Y-92968698D01*
X105643047Y-93357244D01*
X105561000Y-93769721D01*
X102679500Y-93769721D01*
X102679500Y-88689721D01*
X105561000Y-88689721D01*
X105561000Y-89110279D01*
X105643047Y-89522756D01*
X105803988Y-89911302D01*
X106037637Y-90260983D01*
X106335017Y-90558363D01*
X106684698Y-90792012D01*
X107073244Y-90952953D01*
X107485721Y-91035000D01*
X107906279Y-91035000D01*
X108318756Y-90952953D01*
X108707302Y-90792012D01*
X109056983Y-90558363D01*
X109354363Y-90260983D01*
X109588012Y-89911302D01*
X109748953Y-89522756D01*
X109831000Y-89110279D01*
X109831000Y-88689721D01*
X109748953Y-88277244D01*
X109588012Y-87888698D01*
X109354363Y-87539017D01*
X109056983Y-87241637D01*
X108707302Y-87007988D01*
X108318756Y-86847047D01*
X107906279Y-86765000D01*
X107485721Y-86765000D01*
X107073244Y-86847047D01*
X106684698Y-87007988D01*
X106335017Y-87241637D01*
X106037637Y-87539017D01*
X105803988Y-87888698D01*
X105643047Y-88277244D01*
X105561000Y-88689721D01*
X102679500Y-88689721D01*
X102679500Y-83609721D01*
X105561000Y-83609721D01*
X105561000Y-84030279D01*
X105643047Y-84442756D01*
X105803988Y-84831302D01*
X106037637Y-85180983D01*
X106335017Y-85478363D01*
X106684698Y-85712012D01*
X107073244Y-85872953D01*
X107485721Y-85955000D01*
X107906279Y-85955000D01*
X108318756Y-85872953D01*
X108707302Y-85712012D01*
X109056983Y-85478363D01*
X109354363Y-85180983D01*
X109588012Y-84831302D01*
X109748953Y-84442756D01*
X109831000Y-84030279D01*
X109831000Y-83609721D01*
X109748953Y-83197244D01*
X109588012Y-82808698D01*
X109354363Y-82459017D01*
X109056983Y-82161637D01*
X108707302Y-81927988D01*
X108318756Y-81767047D01*
X107906279Y-81685000D01*
X107485721Y-81685000D01*
X107073244Y-81767047D01*
X106684698Y-81927988D01*
X106335017Y-82161637D01*
X106037637Y-82459017D01*
X105803988Y-82808698D01*
X105643047Y-83197244D01*
X105561000Y-83609721D01*
X102679500Y-83609721D01*
X102679500Y-78529721D01*
X105561000Y-78529721D01*
X105561000Y-78950279D01*
X105643047Y-79362756D01*
X105803988Y-79751302D01*
X106037637Y-80100983D01*
X106335017Y-80398363D01*
X106684698Y-80632012D01*
X107073244Y-80792953D01*
X107485721Y-80875000D01*
X107906279Y-80875000D01*
X108318756Y-80792953D01*
X108707302Y-80632012D01*
X109056983Y-80398363D01*
X109354363Y-80100983D01*
X109588012Y-79751302D01*
X109748953Y-79362756D01*
X109831000Y-78950279D01*
X109831000Y-78529721D01*
X109748953Y-78117244D01*
X109588012Y-77728698D01*
X109354363Y-77379017D01*
X109056983Y-77081637D01*
X108707302Y-76847988D01*
X108318756Y-76687047D01*
X107906279Y-76605000D01*
X107485721Y-76605000D01*
X107073244Y-76687047D01*
X106684698Y-76847988D01*
X106335017Y-77081637D01*
X106037637Y-77379017D01*
X105803988Y-77728698D01*
X105643047Y-78117244D01*
X105561000Y-78529721D01*
X102679500Y-78529721D01*
X102679500Y-75151653D01*
X106383952Y-75151653D01*
X106539962Y-75467214D01*
X106914745Y-75658020D01*
X107319551Y-75772044D01*
X107738824Y-75804902D01*
X108156451Y-75755334D01*
X108556383Y-75625243D01*
X108852038Y-75467214D01*
X109008048Y-75151653D01*
X182075952Y-75151653D01*
X182231962Y-75467214D01*
X182606745Y-75658020D01*
X183011551Y-75772044D01*
X183430824Y-75804902D01*
X183848451Y-75755334D01*
X184248383Y-75625243D01*
X184544038Y-75467214D01*
X184700048Y-75151653D01*
X183388000Y-73839605D01*
X182075952Y-75151653D01*
X109008048Y-75151653D01*
X107696000Y-73839605D01*
X106383952Y-75151653D01*
X102679500Y-75151653D01*
X102679500Y-73702824D01*
X105551098Y-73702824D01*
X105600666Y-74120451D01*
X105730757Y-74520383D01*
X105888786Y-74816038D01*
X106204347Y-74972048D01*
X107516395Y-73660000D01*
X107875605Y-73660000D01*
X109187653Y-74972048D01*
X109503214Y-74816038D01*
X109694020Y-74441255D01*
X109808044Y-74036449D01*
X109834189Y-73702824D01*
X181243098Y-73702824D01*
X181292666Y-74120451D01*
X181422757Y-74520383D01*
X181580786Y-74816038D01*
X181896347Y-74972048D01*
X183208395Y-73660000D01*
X183567605Y-73660000D01*
X184879653Y-74972048D01*
X185195214Y-74816038D01*
X185386020Y-74441255D01*
X185500044Y-74036449D01*
X185532902Y-73617176D01*
X185483334Y-73199549D01*
X185353243Y-72799617D01*
X185195214Y-72503962D01*
X184879653Y-72347952D01*
X183567605Y-73660000D01*
X183208395Y-73660000D01*
X181896347Y-72347952D01*
X181580786Y-72503962D01*
X181389980Y-72878745D01*
X181275956Y-73283551D01*
X181243098Y-73702824D01*
X109834189Y-73702824D01*
X109840902Y-73617176D01*
X109791334Y-73199549D01*
X109661243Y-72799617D01*
X109503214Y-72503962D01*
X109187653Y-72347952D01*
X107875605Y-73660000D01*
X107516395Y-73660000D01*
X106204347Y-72347952D01*
X105888786Y-72503962D01*
X105697980Y-72878745D01*
X105583956Y-73283551D01*
X105551098Y-73702824D01*
X102679500Y-73702824D01*
X102679500Y-72168347D01*
X106383952Y-72168347D01*
X107696000Y-73480395D01*
X109008048Y-72168347D01*
X182075952Y-72168347D01*
X183388000Y-73480395D01*
X184700048Y-72168347D01*
X184544038Y-71852786D01*
X184169255Y-71661980D01*
X183764449Y-71547956D01*
X183345176Y-71515098D01*
X182927549Y-71564666D01*
X182527617Y-71694757D01*
X182231962Y-71852786D01*
X182075952Y-72168347D01*
X109008048Y-72168347D01*
X108852038Y-71852786D01*
X108477255Y-71661980D01*
X108072449Y-71547956D01*
X107653176Y-71515098D01*
X107235549Y-71564666D01*
X106835617Y-71694757D01*
X106539962Y-71852786D01*
X106383952Y-72168347D01*
X102679500Y-72168347D01*
X102679500Y-70510000D01*
X188240001Y-70510000D01*
X188240000Y-102040000D01*
%TD*%
M02*
