%TF.GenerationSoftware,KiCad,Pcbnew,(5.1.6)-1*%
%TF.CreationDate,2020-11-12T09:23:23-07:00*%
%TF.ProjectId,WhiteJewel,57686974-654a-4657-9765-6c2e6b696361,rev?*%
%TF.SameCoordinates,Original*%
%TF.FileFunction,Copper,L1,Top*%
%TF.FilePolarity,Positive*%
%FSLAX46Y46*%
G04 Gerber Fmt 4.6, Leading zero omitted, Abs format (unit mm)*
G04 Created by KiCad (PCBNEW (5.1.6)-1) date 2020-11-12 09:23:23*
%MOMM*%
%LPD*%
G01*
G04 APERTURE LIST*
%TA.AperFunction,SMDPad,CuDef*%
%ADD10R,0.800000X0.900000*%
%TD*%
%TA.AperFunction,ComponentPad*%
%ADD11C,3.000000*%
%TD*%
%TA.AperFunction,ComponentPad*%
%ADD12R,3.000000X3.000000*%
%TD*%
%TA.AperFunction,SMDPad,CuDef*%
%ADD13R,0.900000X0.800000*%
%TD*%
%TA.AperFunction,SMDPad,CuDef*%
%ADD14C,2.500000*%
%TD*%
%TA.AperFunction,ViaPad*%
%ADD15C,0.800000*%
%TD*%
%TA.AperFunction,Conductor*%
%ADD16C,0.304800*%
%TD*%
%TA.AperFunction,Conductor*%
%ADD17C,0.762000*%
%TD*%
%TA.AperFunction,Conductor*%
%ADD18C,0.250000*%
%TD*%
%TA.AperFunction,Conductor*%
%ADD19C,0.508000*%
%TD*%
%TA.AperFunction,Conductor*%
%ADD20C,0.254000*%
%TD*%
G04 APERTURE END LIST*
%TO.P,R18,2*%
%TO.N,GND*%
%TA.AperFunction,SMDPad,CuDef*%
G36*
G01*
X171773000Y-87013201D02*
X171773000Y-86113199D01*
G75*
G02*
X172022999Y-85863200I249999J0D01*
G01*
X172673001Y-85863200D01*
G75*
G02*
X172923000Y-86113199I0J-249999D01*
G01*
X172923000Y-87013201D01*
G75*
G02*
X172673001Y-87263200I-249999J0D01*
G01*
X172022999Y-87263200D01*
G75*
G02*
X171773000Y-87013201I0J249999D01*
G01*
G37*
%TD.AperFunction*%
%TO.P,R18,1*%
%TO.N,Net-(Q4-Pad3)*%
%TA.AperFunction,SMDPad,CuDef*%
G36*
G01*
X169723000Y-87013201D02*
X169723000Y-86113199D01*
G75*
G02*
X169972999Y-85863200I249999J0D01*
G01*
X170623001Y-85863200D01*
G75*
G02*
X170873000Y-86113199I0J-249999D01*
G01*
X170873000Y-87013201D01*
G75*
G02*
X170623001Y-87263200I-249999J0D01*
G01*
X169972999Y-87263200D01*
G75*
G02*
X169723000Y-87013201I0J249999D01*
G01*
G37*
%TD.AperFunction*%
%TD*%
%TO.P,R17,2*%
%TO.N,GND*%
%TA.AperFunction,SMDPad,CuDef*%
G36*
G01*
X167124800Y-75075201D02*
X167124800Y-74175199D01*
G75*
G02*
X167374799Y-73925200I249999J0D01*
G01*
X168024801Y-73925200D01*
G75*
G02*
X168274800Y-74175199I0J-249999D01*
G01*
X168274800Y-75075201D01*
G75*
G02*
X168024801Y-75325200I-249999J0D01*
G01*
X167374799Y-75325200D01*
G75*
G02*
X167124800Y-75075201I0J249999D01*
G01*
G37*
%TD.AperFunction*%
%TO.P,R17,1*%
%TO.N,Net-(Q3-Pad3)*%
%TA.AperFunction,SMDPad,CuDef*%
G36*
G01*
X165074800Y-75075201D02*
X165074800Y-74175199D01*
G75*
G02*
X165324799Y-73925200I249999J0D01*
G01*
X165974801Y-73925200D01*
G75*
G02*
X166224800Y-74175199I0J-249999D01*
G01*
X166224800Y-75075201D01*
G75*
G02*
X165974801Y-75325200I-249999J0D01*
G01*
X165324799Y-75325200D01*
G75*
G02*
X165074800Y-75075201I0J249999D01*
G01*
G37*
%TD.AperFunction*%
%TD*%
D10*
%TO.P,D6,1*%
%TO.N,Net-(D6-Pad1)*%
X171348400Y-90535000D03*
%TO.P,D6,*%
%TO.N,*%
X170398400Y-88535000D03*
%TO.P,D6,2*%
%TO.N,GND*%
X172298400Y-88535000D03*
%TD*%
%TO.P,U2,8*%
%TO.N,+24V*%
%TA.AperFunction,SMDPad,CuDef*%
G36*
G01*
X160226600Y-90375600D02*
X160226600Y-90675600D01*
G75*
G02*
X160076600Y-90825600I-150000J0D01*
G01*
X158726600Y-90825600D01*
G75*
G02*
X158576600Y-90675600I0J150000D01*
G01*
X158576600Y-90375600D01*
G75*
G02*
X158726600Y-90225600I150000J0D01*
G01*
X160076600Y-90225600D01*
G75*
G02*
X160226600Y-90375600I0J-150000D01*
G01*
G37*
%TD.AperFunction*%
%TO.P,U2,7*%
%TA.AperFunction,SMDPad,CuDef*%
G36*
G01*
X160226600Y-89105600D02*
X160226600Y-89405600D01*
G75*
G02*
X160076600Y-89555600I-150000J0D01*
G01*
X158726600Y-89555600D01*
G75*
G02*
X158576600Y-89405600I0J150000D01*
G01*
X158576600Y-89105600D01*
G75*
G02*
X158726600Y-88955600I150000J0D01*
G01*
X160076600Y-88955600D01*
G75*
G02*
X160226600Y-89105600I0J-150000D01*
G01*
G37*
%TD.AperFunction*%
%TO.P,U2,6*%
%TA.AperFunction,SMDPad,CuDef*%
G36*
G01*
X160226600Y-87835600D02*
X160226600Y-88135600D01*
G75*
G02*
X160076600Y-88285600I-150000J0D01*
G01*
X158726600Y-88285600D01*
G75*
G02*
X158576600Y-88135600I0J150000D01*
G01*
X158576600Y-87835600D01*
G75*
G02*
X158726600Y-87685600I150000J0D01*
G01*
X160076600Y-87685600D01*
G75*
G02*
X160226600Y-87835600I0J-150000D01*
G01*
G37*
%TD.AperFunction*%
%TO.P,U2,5*%
%TA.AperFunction,SMDPad,CuDef*%
G36*
G01*
X160226600Y-86565600D02*
X160226600Y-86865600D01*
G75*
G02*
X160076600Y-87015600I-150000J0D01*
G01*
X158726600Y-87015600D01*
G75*
G02*
X158576600Y-86865600I0J150000D01*
G01*
X158576600Y-86565600D01*
G75*
G02*
X158726600Y-86415600I150000J0D01*
G01*
X160076600Y-86415600D01*
G75*
G02*
X160226600Y-86565600I0J-150000D01*
G01*
G37*
%TD.AperFunction*%
%TO.P,U2,4*%
%TO.N,GND*%
%TA.AperFunction,SMDPad,CuDef*%
G36*
G01*
X165476600Y-86565600D02*
X165476600Y-86865600D01*
G75*
G02*
X165326600Y-87015600I-150000J0D01*
G01*
X163976600Y-87015600D01*
G75*
G02*
X163826600Y-86865600I0J150000D01*
G01*
X163826600Y-86565600D01*
G75*
G02*
X163976600Y-86415600I150000J0D01*
G01*
X165326600Y-86415600D01*
G75*
G02*
X165476600Y-86565600I0J-150000D01*
G01*
G37*
%TD.AperFunction*%
%TO.P,U2,3*%
%TO.N,Net-(J2-Pad2)*%
%TA.AperFunction,SMDPad,CuDef*%
G36*
G01*
X165476600Y-87835600D02*
X165476600Y-88135600D01*
G75*
G02*
X165326600Y-88285600I-150000J0D01*
G01*
X163976600Y-88285600D01*
G75*
G02*
X163826600Y-88135600I0J150000D01*
G01*
X163826600Y-87835600D01*
G75*
G02*
X163976600Y-87685600I150000J0D01*
G01*
X165326600Y-87685600D01*
G75*
G02*
X165476600Y-87835600I0J-150000D01*
G01*
G37*
%TD.AperFunction*%
%TO.P,U2,2*%
%TO.N,Net-(Q4-Pad3)*%
%TA.AperFunction,SMDPad,CuDef*%
G36*
G01*
X165476600Y-89105600D02*
X165476600Y-89405600D01*
G75*
G02*
X165326600Y-89555600I-150000J0D01*
G01*
X163976600Y-89555600D01*
G75*
G02*
X163826600Y-89405600I0J150000D01*
G01*
X163826600Y-89105600D01*
G75*
G02*
X163976600Y-88955600I150000J0D01*
G01*
X165326600Y-88955600D01*
G75*
G02*
X165476600Y-89105600I0J-150000D01*
G01*
G37*
%TD.AperFunction*%
%TO.P,U2,1*%
%TO.N,Net-(R12-Pad1)*%
%TA.AperFunction,SMDPad,CuDef*%
G36*
G01*
X165476600Y-90375600D02*
X165476600Y-90675600D01*
G75*
G02*
X165326600Y-90825600I-150000J0D01*
G01*
X163976600Y-90825600D01*
G75*
G02*
X163826600Y-90675600I0J150000D01*
G01*
X163826600Y-90375600D01*
G75*
G02*
X163976600Y-90225600I150000J0D01*
G01*
X165326600Y-90225600D01*
G75*
G02*
X165476600Y-90375600I0J-150000D01*
G01*
G37*
%TD.AperFunction*%
%TD*%
%TO.P,R16,2*%
%TO.N,GND*%
%TA.AperFunction,SMDPad,CuDef*%
G36*
G01*
X173870199Y-89959600D02*
X174770201Y-89959600D01*
G75*
G02*
X175020200Y-90209599I0J-249999D01*
G01*
X175020200Y-90859601D01*
G75*
G02*
X174770201Y-91109600I-249999J0D01*
G01*
X173870199Y-91109600D01*
G75*
G02*
X173620200Y-90859601I0J249999D01*
G01*
X173620200Y-90209599D01*
G75*
G02*
X173870199Y-89959600I249999J0D01*
G01*
G37*
%TD.AperFunction*%
%TO.P,R16,1*%
%TO.N,Net-(J1-Pad5)*%
%TA.AperFunction,SMDPad,CuDef*%
G36*
G01*
X173870199Y-87909600D02*
X174770201Y-87909600D01*
G75*
G02*
X175020200Y-88159599I0J-249999D01*
G01*
X175020200Y-88809601D01*
G75*
G02*
X174770201Y-89059600I-249999J0D01*
G01*
X173870199Y-89059600D01*
G75*
G02*
X173620200Y-88809601I0J249999D01*
G01*
X173620200Y-88159599D01*
G75*
G02*
X173870199Y-87909600I249999J0D01*
G01*
G37*
%TD.AperFunction*%
%TD*%
%TO.P,R15,2*%
%TO.N,Net-(D6-Pad1)*%
%TA.AperFunction,SMDPad,CuDef*%
G36*
G01*
X167342400Y-92183799D02*
X167342400Y-93083801D01*
G75*
G02*
X167092401Y-93333800I-249999J0D01*
G01*
X166442399Y-93333800D01*
G75*
G02*
X166192400Y-93083801I0J249999D01*
G01*
X166192400Y-92183799D01*
G75*
G02*
X166442399Y-91933800I249999J0D01*
G01*
X167092401Y-91933800D01*
G75*
G02*
X167342400Y-92183799I0J-249999D01*
G01*
G37*
%TD.AperFunction*%
%TO.P,R15,1*%
%TO.N,Net-(J1-Pad5)*%
%TA.AperFunction,SMDPad,CuDef*%
G36*
G01*
X169392400Y-92183799D02*
X169392400Y-93083801D01*
G75*
G02*
X169142401Y-93333800I-249999J0D01*
G01*
X168492399Y-93333800D01*
G75*
G02*
X168242400Y-93083801I0J249999D01*
G01*
X168242400Y-92183799D01*
G75*
G02*
X168492399Y-91933800I249999J0D01*
G01*
X169142401Y-91933800D01*
G75*
G02*
X169392400Y-92183799I0J-249999D01*
G01*
G37*
%TD.AperFunction*%
%TD*%
%TO.P,R14,2*%
%TO.N,GND*%
%TA.AperFunction,SMDPad,CuDef*%
G36*
G01*
X171976201Y-78721800D02*
X171076199Y-78721800D01*
G75*
G02*
X170826200Y-78471801I0J249999D01*
G01*
X170826200Y-77821799D01*
G75*
G02*
X171076199Y-77571800I249999J0D01*
G01*
X171976201Y-77571800D01*
G75*
G02*
X172226200Y-77821799I0J-249999D01*
G01*
X172226200Y-78471801D01*
G75*
G02*
X171976201Y-78721800I-249999J0D01*
G01*
G37*
%TD.AperFunction*%
%TO.P,R14,1*%
%TO.N,Net-(J1-Pad4)*%
%TA.AperFunction,SMDPad,CuDef*%
G36*
G01*
X171976201Y-80771800D02*
X171076199Y-80771800D01*
G75*
G02*
X170826200Y-80521801I0J249999D01*
G01*
X170826200Y-79871799D01*
G75*
G02*
X171076199Y-79621800I249999J0D01*
G01*
X171976201Y-79621800D01*
G75*
G02*
X172226200Y-79871799I0J-249999D01*
G01*
X172226200Y-80521801D01*
G75*
G02*
X171976201Y-80771800I-249999J0D01*
G01*
G37*
%TD.AperFunction*%
%TD*%
%TO.P,R13,2*%
%TO.N,Net-(D5-Pad1)*%
%TA.AperFunction,SMDPad,CuDef*%
G36*
G01*
X164269000Y-81591999D02*
X164269000Y-82492001D01*
G75*
G02*
X164019001Y-82742000I-249999J0D01*
G01*
X163368999Y-82742000D01*
G75*
G02*
X163119000Y-82492001I0J249999D01*
G01*
X163119000Y-81591999D01*
G75*
G02*
X163368999Y-81342000I249999J0D01*
G01*
X164019001Y-81342000D01*
G75*
G02*
X164269000Y-81591999I0J-249999D01*
G01*
G37*
%TD.AperFunction*%
%TO.P,R13,1*%
%TO.N,Net-(J1-Pad4)*%
%TA.AperFunction,SMDPad,CuDef*%
G36*
G01*
X166319000Y-81591999D02*
X166319000Y-82492001D01*
G75*
G02*
X166069001Y-82742000I-249999J0D01*
G01*
X165418999Y-82742000D01*
G75*
G02*
X165169000Y-82492001I0J249999D01*
G01*
X165169000Y-81591999D01*
G75*
G02*
X165418999Y-81342000I249999J0D01*
G01*
X166069001Y-81342000D01*
G75*
G02*
X166319000Y-81591999I0J-249999D01*
G01*
G37*
%TD.AperFunction*%
%TD*%
%TO.P,R9,1*%
%TO.N,+24V*%
%TA.AperFunction,SMDPad,CuDef*%
G36*
G01*
X158242200Y-92982201D02*
X158242200Y-92082199D01*
G75*
G02*
X158492199Y-91832200I249999J0D01*
G01*
X159142201Y-91832200D01*
G75*
G02*
X159392200Y-92082199I0J-249999D01*
G01*
X159392200Y-92982201D01*
G75*
G02*
X159142201Y-93232200I-249999J0D01*
G01*
X158492199Y-93232200D01*
G75*
G02*
X158242200Y-92982201I0J249999D01*
G01*
G37*
%TD.AperFunction*%
%TO.P,R9,2*%
%TO.N,Net-(Q4-Pad3)*%
%TA.AperFunction,SMDPad,CuDef*%
G36*
G01*
X160292200Y-92982201D02*
X160292200Y-92082199D01*
G75*
G02*
X160542199Y-91832200I249999J0D01*
G01*
X161192201Y-91832200D01*
G75*
G02*
X161442200Y-92082199I0J-249999D01*
G01*
X161442200Y-92982201D01*
G75*
G02*
X161192201Y-93232200I-249999J0D01*
G01*
X160542199Y-93232200D01*
G75*
G02*
X160292200Y-92982201I0J249999D01*
G01*
G37*
%TD.AperFunction*%
%TD*%
%TO.P,R2,1*%
%TO.N,+24V*%
%TA.AperFunction,SMDPad,CuDef*%
G36*
G01*
X154787800Y-81603001D02*
X154787800Y-80702999D01*
G75*
G02*
X155037799Y-80453000I249999J0D01*
G01*
X155687801Y-80453000D01*
G75*
G02*
X155937800Y-80702999I0J-249999D01*
G01*
X155937800Y-81603001D01*
G75*
G02*
X155687801Y-81853000I-249999J0D01*
G01*
X155037799Y-81853000D01*
G75*
G02*
X154787800Y-81603001I0J249999D01*
G01*
G37*
%TD.AperFunction*%
%TO.P,R2,2*%
%TO.N,Net-(Q3-Pad3)*%
%TA.AperFunction,SMDPad,CuDef*%
G36*
G01*
X156837800Y-81603001D02*
X156837800Y-80702999D01*
G75*
G02*
X157087799Y-80453000I249999J0D01*
G01*
X157737801Y-80453000D01*
G75*
G02*
X157987800Y-80702999I0J-249999D01*
G01*
X157987800Y-81603001D01*
G75*
G02*
X157737801Y-81853000I-249999J0D01*
G01*
X157087799Y-81853000D01*
G75*
G02*
X156837800Y-81603001I0J249999D01*
G01*
G37*
%TD.AperFunction*%
%TD*%
%TO.P,Q4,1*%
%TO.N,Net-(D6-Pad1)*%
X166690000Y-90585800D03*
%TO.P,Q4,2*%
%TO.N,GND*%
X168590000Y-90585800D03*
%TO.P,Q4,3*%
%TO.N,Net-(Q4-Pad3)*%
X167640000Y-88585800D03*
%TD*%
%TO.P,Q3,1*%
%TO.N,Net-(D5-Pad1)*%
X163743600Y-80206600D03*
%TO.P,Q3,2*%
%TO.N,GND*%
X165643600Y-80206600D03*
%TO.P,Q3,3*%
%TO.N,Net-(Q3-Pad3)*%
X164693600Y-78206600D03*
%TD*%
%TO.P,D5,2*%
%TO.N,GND*%
X169428200Y-78146400D03*
%TO.P,D5,*%
%TO.N,*%
X167528200Y-78146400D03*
%TO.P,D5,1*%
%TO.N,Net-(D5-Pad1)*%
X168478200Y-80146400D03*
%TD*%
%TO.P,R12,2*%
%TO.N,GND*%
%TA.AperFunction,SMDPad,CuDef*%
G36*
G01*
X163303800Y-92056799D02*
X163303800Y-92956801D01*
G75*
G02*
X163053801Y-93206800I-249999J0D01*
G01*
X162403799Y-93206800D01*
G75*
G02*
X162153800Y-92956801I0J249999D01*
G01*
X162153800Y-92056799D01*
G75*
G02*
X162403799Y-91806800I249999J0D01*
G01*
X163053801Y-91806800D01*
G75*
G02*
X163303800Y-92056799I0J-249999D01*
G01*
G37*
%TD.AperFunction*%
%TO.P,R12,1*%
%TO.N,Net-(R12-Pad1)*%
%TA.AperFunction,SMDPad,CuDef*%
G36*
G01*
X165353800Y-92056799D02*
X165353800Y-92956801D01*
G75*
G02*
X165103801Y-93206800I-249999J0D01*
G01*
X164453799Y-93206800D01*
G75*
G02*
X164203800Y-92956801I0J249999D01*
G01*
X164203800Y-92056799D01*
G75*
G02*
X164453799Y-91806800I249999J0D01*
G01*
X165103801Y-91806800D01*
G75*
G02*
X165353800Y-92056799I0J-249999D01*
G01*
G37*
%TD.AperFunction*%
%TD*%
%TO.P,R11,2*%
%TO.N,GND*%
%TA.AperFunction,SMDPad,CuDef*%
G36*
G01*
X159925600Y-80728399D02*
X159925600Y-81628401D01*
G75*
G02*
X159675601Y-81878400I-249999J0D01*
G01*
X159025599Y-81878400D01*
G75*
G02*
X158775600Y-81628401I0J249999D01*
G01*
X158775600Y-80728399D01*
G75*
G02*
X159025599Y-80478400I249999J0D01*
G01*
X159675601Y-80478400D01*
G75*
G02*
X159925600Y-80728399I0J-249999D01*
G01*
G37*
%TD.AperFunction*%
%TO.P,R11,1*%
%TO.N,Net-(R11-Pad1)*%
%TA.AperFunction,SMDPad,CuDef*%
G36*
G01*
X161975600Y-80728399D02*
X161975600Y-81628401D01*
G75*
G02*
X161725601Y-81878400I-249999J0D01*
G01*
X161075599Y-81878400D01*
G75*
G02*
X160825600Y-81628401I0J249999D01*
G01*
X160825600Y-80728399D01*
G75*
G02*
X161075599Y-80478400I249999J0D01*
G01*
X161725601Y-80478400D01*
G75*
G02*
X161975600Y-80728399I0J-249999D01*
G01*
G37*
%TD.AperFunction*%
%TD*%
D11*
%TO.P,J1,2*%
%TO.N,Net-(J1-Pad2)*%
X183388000Y-93980000D03*
%TO.P,J1,3*%
%TO.N,Net-(J1-Pad3)*%
X183388000Y-88900000D03*
D12*
%TO.P,J1,1*%
%TO.N,+24V*%
X183388000Y-99060000D03*
D11*
%TO.P,J1,4*%
%TO.N,Net-(J1-Pad4)*%
X183388000Y-83820000D03*
%TO.P,J1,5*%
%TO.N,Net-(J1-Pad5)*%
X183388000Y-78740000D03*
%TO.P,J1,6*%
%TO.N,GND*%
X183388000Y-73660000D03*
%TD*%
%TO.P,U1,8*%
%TO.N,+24V*%
%TA.AperFunction,SMDPad,CuDef*%
G36*
G01*
X156772200Y-78894800D02*
X156772200Y-79194800D01*
G75*
G02*
X156622200Y-79344800I-150000J0D01*
G01*
X155272200Y-79344800D01*
G75*
G02*
X155122200Y-79194800I0J150000D01*
G01*
X155122200Y-78894800D01*
G75*
G02*
X155272200Y-78744800I150000J0D01*
G01*
X156622200Y-78744800D01*
G75*
G02*
X156772200Y-78894800I0J-150000D01*
G01*
G37*
%TD.AperFunction*%
%TO.P,U1,7*%
%TA.AperFunction,SMDPad,CuDef*%
G36*
G01*
X156772200Y-77624800D02*
X156772200Y-77924800D01*
G75*
G02*
X156622200Y-78074800I-150000J0D01*
G01*
X155272200Y-78074800D01*
G75*
G02*
X155122200Y-77924800I0J150000D01*
G01*
X155122200Y-77624800D01*
G75*
G02*
X155272200Y-77474800I150000J0D01*
G01*
X156622200Y-77474800D01*
G75*
G02*
X156772200Y-77624800I0J-150000D01*
G01*
G37*
%TD.AperFunction*%
%TO.P,U1,6*%
%TA.AperFunction,SMDPad,CuDef*%
G36*
G01*
X156772200Y-76354800D02*
X156772200Y-76654800D01*
G75*
G02*
X156622200Y-76804800I-150000J0D01*
G01*
X155272200Y-76804800D01*
G75*
G02*
X155122200Y-76654800I0J150000D01*
G01*
X155122200Y-76354800D01*
G75*
G02*
X155272200Y-76204800I150000J0D01*
G01*
X156622200Y-76204800D01*
G75*
G02*
X156772200Y-76354800I0J-150000D01*
G01*
G37*
%TD.AperFunction*%
%TO.P,U1,5*%
%TA.AperFunction,SMDPad,CuDef*%
G36*
G01*
X156772200Y-75084800D02*
X156772200Y-75384800D01*
G75*
G02*
X156622200Y-75534800I-150000J0D01*
G01*
X155272200Y-75534800D01*
G75*
G02*
X155122200Y-75384800I0J150000D01*
G01*
X155122200Y-75084800D01*
G75*
G02*
X155272200Y-74934800I150000J0D01*
G01*
X156622200Y-74934800D01*
G75*
G02*
X156772200Y-75084800I0J-150000D01*
G01*
G37*
%TD.AperFunction*%
%TO.P,U1,4*%
%TO.N,GND*%
%TA.AperFunction,SMDPad,CuDef*%
G36*
G01*
X162022200Y-75084800D02*
X162022200Y-75384800D01*
G75*
G02*
X161872200Y-75534800I-150000J0D01*
G01*
X160522200Y-75534800D01*
G75*
G02*
X160372200Y-75384800I0J150000D01*
G01*
X160372200Y-75084800D01*
G75*
G02*
X160522200Y-74934800I150000J0D01*
G01*
X161872200Y-74934800D01*
G75*
G02*
X162022200Y-75084800I0J-150000D01*
G01*
G37*
%TD.AperFunction*%
%TO.P,U1,3*%
%TO.N,Net-(J2-Pad3)*%
%TA.AperFunction,SMDPad,CuDef*%
G36*
G01*
X162022200Y-76354800D02*
X162022200Y-76654800D01*
G75*
G02*
X161872200Y-76804800I-150000J0D01*
G01*
X160522200Y-76804800D01*
G75*
G02*
X160372200Y-76654800I0J150000D01*
G01*
X160372200Y-76354800D01*
G75*
G02*
X160522200Y-76204800I150000J0D01*
G01*
X161872200Y-76204800D01*
G75*
G02*
X162022200Y-76354800I0J-150000D01*
G01*
G37*
%TD.AperFunction*%
%TO.P,U1,2*%
%TO.N,Net-(Q3-Pad3)*%
%TA.AperFunction,SMDPad,CuDef*%
G36*
G01*
X162022200Y-77624800D02*
X162022200Y-77924800D01*
G75*
G02*
X161872200Y-78074800I-150000J0D01*
G01*
X160522200Y-78074800D01*
G75*
G02*
X160372200Y-77924800I0J150000D01*
G01*
X160372200Y-77624800D01*
G75*
G02*
X160522200Y-77474800I150000J0D01*
G01*
X161872200Y-77474800D01*
G75*
G02*
X162022200Y-77624800I0J-150000D01*
G01*
G37*
%TD.AperFunction*%
%TO.P,U1,1*%
%TO.N,Net-(R11-Pad1)*%
%TA.AperFunction,SMDPad,CuDef*%
G36*
G01*
X162022200Y-78894800D02*
X162022200Y-79194800D01*
G75*
G02*
X161872200Y-79344800I-150000J0D01*
G01*
X160522200Y-79344800D01*
G75*
G02*
X160372200Y-79194800I0J150000D01*
G01*
X160372200Y-78894800D01*
G75*
G02*
X160522200Y-78744800I150000J0D01*
G01*
X161872200Y-78744800D01*
G75*
G02*
X162022200Y-78894800I0J-150000D01*
G01*
G37*
%TD.AperFunction*%
%TD*%
D13*
%TO.P,Q2,3*%
%TO.N,Net-(J1-Pad3)*%
X126958600Y-85826600D03*
%TO.P,Q2,2*%
%TO.N,GND*%
X124958600Y-86776600D03*
%TO.P,Q2,1*%
%TO.N,Net-(Q2-Pad1)*%
X124958600Y-84876600D03*
%TD*%
%TO.P,Q1,3*%
%TO.N,Net-(J1-Pad2)*%
X126619000Y-78638400D03*
%TO.P,Q1,2*%
%TO.N,GND*%
X124619000Y-79588400D03*
%TO.P,Q1,1*%
%TO.N,Net-(Q1-Pad1)*%
X124619000Y-77688400D03*
%TD*%
%TO.P,R6,2*%
%TO.N,Net-(D3-Pad2)*%
%TA.AperFunction,SMDPad,CuDef*%
G36*
G01*
X149867200Y-72270199D02*
X149867200Y-73170201D01*
G75*
G02*
X149617201Y-73420200I-249999J0D01*
G01*
X148967199Y-73420200D01*
G75*
G02*
X148717200Y-73170201I0J249999D01*
G01*
X148717200Y-72270199D01*
G75*
G02*
X148967199Y-72020200I249999J0D01*
G01*
X149617201Y-72020200D01*
G75*
G02*
X149867200Y-72270199I0J-249999D01*
G01*
G37*
%TD.AperFunction*%
%TO.P,R6,1*%
%TO.N,Net-(J2-Pad3)*%
%TA.AperFunction,SMDPad,CuDef*%
G36*
G01*
X151917200Y-72270199D02*
X151917200Y-73170201D01*
G75*
G02*
X151667201Y-73420200I-249999J0D01*
G01*
X151017199Y-73420200D01*
G75*
G02*
X150767200Y-73170201I0J249999D01*
G01*
X150767200Y-72270199D01*
G75*
G02*
X151017199Y-72020200I249999J0D01*
G01*
X151667201Y-72020200D01*
G75*
G02*
X151917200Y-72270199I0J-249999D01*
G01*
G37*
%TD.AperFunction*%
%TD*%
D11*
%TO.P,J2,6*%
%TO.N,GND*%
X107696000Y-73660000D03*
%TO.P,J2,5*%
%TO.N,Net-(J2-Pad5)*%
X107696000Y-78740000D03*
%TO.P,J2,4*%
%TO.N,Net-(J2-Pad4)*%
X107696000Y-83820000D03*
D12*
%TO.P,J2,1*%
%TO.N,+24V*%
X107696000Y-99060000D03*
D11*
%TO.P,J2,3*%
%TO.N,Net-(J2-Pad3)*%
X107696000Y-88900000D03*
%TO.P,J2,2*%
%TO.N,Net-(J2-Pad2)*%
X107696000Y-93980000D03*
%TD*%
D14*
%TO.P,TP8,1*%
%TO.N,Net-(J1-Pad5)*%
X175107600Y-84023200D03*
%TD*%
%TO.P,TP5,1*%
%TO.N,Net-(J1-Pad4)*%
X168503600Y-82677000D03*
%TD*%
%TO.P,TP4,1*%
%TO.N,Net-(J1-Pad3)*%
X134112000Y-94488000D03*
%TD*%
%TO.P,TP3,1*%
%TO.N,Net-(Q2-Pad1)*%
X121920000Y-87376000D03*
%TD*%
%TO.P,TP2,1*%
%TO.N,Net-(J1-Pad2)*%
X133858000Y-76708000D03*
%TD*%
%TO.P,TP1,1*%
%TO.N,Net-(Q1-Pad1)*%
X129794000Y-76454000D03*
%TD*%
%TO.P,R4,2*%
%TO.N,Net-(D1-Pad2)*%
%TA.AperFunction,SMDPad,CuDef*%
G36*
G01*
X133800000Y-73602001D02*
X133800000Y-72701999D01*
G75*
G02*
X134049999Y-72452000I249999J0D01*
G01*
X134700001Y-72452000D01*
G75*
G02*
X134950000Y-72701999I0J-249999D01*
G01*
X134950000Y-73602001D01*
G75*
G02*
X134700001Y-73852000I-249999J0D01*
G01*
X134049999Y-73852000D01*
G75*
G02*
X133800000Y-73602001I0J249999D01*
G01*
G37*
%TD.AperFunction*%
%TO.P,R4,1*%
%TO.N,Net-(J2-Pad5)*%
%TA.AperFunction,SMDPad,CuDef*%
G36*
G01*
X131750000Y-73602001D02*
X131750000Y-72701999D01*
G75*
G02*
X131999999Y-72452000I249999J0D01*
G01*
X132650001Y-72452000D01*
G75*
G02*
X132900000Y-72701999I0J-249999D01*
G01*
X132900000Y-73602001D01*
G75*
G02*
X132650001Y-73852000I-249999J0D01*
G01*
X131999999Y-73852000D01*
G75*
G02*
X131750000Y-73602001I0J249999D01*
G01*
G37*
%TD.AperFunction*%
%TD*%
%TO.P,R7,2*%
%TO.N,Net-(D2-Pad2)*%
%TA.AperFunction,SMDPad,CuDef*%
G36*
G01*
X132022000Y-82746001D02*
X132022000Y-81845999D01*
G75*
G02*
X132271999Y-81596000I249999J0D01*
G01*
X132922001Y-81596000D01*
G75*
G02*
X133172000Y-81845999I0J-249999D01*
G01*
X133172000Y-82746001D01*
G75*
G02*
X132922001Y-82996000I-249999J0D01*
G01*
X132271999Y-82996000D01*
G75*
G02*
X132022000Y-82746001I0J249999D01*
G01*
G37*
%TD.AperFunction*%
%TO.P,R7,1*%
%TO.N,Net-(J2-Pad4)*%
%TA.AperFunction,SMDPad,CuDef*%
G36*
G01*
X129972000Y-82746001D02*
X129972000Y-81845999D01*
G75*
G02*
X130221999Y-81596000I249999J0D01*
G01*
X130872001Y-81596000D01*
G75*
G02*
X131122000Y-81845999I0J-249999D01*
G01*
X131122000Y-82746001D01*
G75*
G02*
X130872001Y-82996000I-249999J0D01*
G01*
X130221999Y-82996000D01*
G75*
G02*
X129972000Y-82746001I0J249999D01*
G01*
G37*
%TD.AperFunction*%
%TD*%
%TO.P,R3,2*%
%TO.N,GND*%
%TA.AperFunction,SMDPad,CuDef*%
G36*
G01*
X121469999Y-77920000D02*
X122370001Y-77920000D01*
G75*
G02*
X122620000Y-78169999I0J-249999D01*
G01*
X122620000Y-78820001D01*
G75*
G02*
X122370001Y-79070000I-249999J0D01*
G01*
X121469999Y-79070000D01*
G75*
G02*
X121220000Y-78820001I0J249999D01*
G01*
X121220000Y-78169999D01*
G75*
G02*
X121469999Y-77920000I249999J0D01*
G01*
G37*
%TD.AperFunction*%
%TO.P,R3,1*%
%TO.N,Net-(Q1-Pad1)*%
%TA.AperFunction,SMDPad,CuDef*%
G36*
G01*
X121469999Y-75870000D02*
X122370001Y-75870000D01*
G75*
G02*
X122620000Y-76119999I0J-249999D01*
G01*
X122620000Y-76770001D01*
G75*
G02*
X122370001Y-77020000I-249999J0D01*
G01*
X121469999Y-77020000D01*
G75*
G02*
X121220000Y-76770001I0J249999D01*
G01*
X121220000Y-76119999D01*
G75*
G02*
X121469999Y-75870000I249999J0D01*
G01*
G37*
%TD.AperFunction*%
%TD*%
%TO.P,D1,1*%
%TO.N,GND*%
%TA.AperFunction,SMDPad,CuDef*%
G36*
G01*
X140631000Y-85286001D02*
X140631000Y-84385999D01*
G75*
G02*
X140880999Y-84136000I249999J0D01*
G01*
X141531001Y-84136000D01*
G75*
G02*
X141781000Y-84385999I0J-249999D01*
G01*
X141781000Y-85286001D01*
G75*
G02*
X141531001Y-85536000I-249999J0D01*
G01*
X140880999Y-85536000D01*
G75*
G02*
X140631000Y-85286001I0J249999D01*
G01*
G37*
%TD.AperFunction*%
%TO.P,D1,2*%
%TO.N,Net-(D1-Pad2)*%
%TA.AperFunction,SMDPad,CuDef*%
G36*
G01*
X142681000Y-85286001D02*
X142681000Y-84385999D01*
G75*
G02*
X142930999Y-84136000I249999J0D01*
G01*
X143581001Y-84136000D01*
G75*
G02*
X143831000Y-84385999I0J-249999D01*
G01*
X143831000Y-85286001D01*
G75*
G02*
X143581001Y-85536000I-249999J0D01*
G01*
X142930999Y-85536000D01*
G75*
G02*
X142681000Y-85286001I0J249999D01*
G01*
G37*
%TD.AperFunction*%
%TD*%
%TO.P,D2,2*%
%TO.N,Net-(D2-Pad2)*%
%TA.AperFunction,SMDPad,CuDef*%
G36*
G01*
X141781000Y-77527999D02*
X141781000Y-78428001D01*
G75*
G02*
X141531001Y-78678000I-249999J0D01*
G01*
X140880999Y-78678000D01*
G75*
G02*
X140631000Y-78428001I0J249999D01*
G01*
X140631000Y-77527999D01*
G75*
G02*
X140880999Y-77278000I249999J0D01*
G01*
X141531001Y-77278000D01*
G75*
G02*
X141781000Y-77527999I0J-249999D01*
G01*
G37*
%TD.AperFunction*%
%TO.P,D2,1*%
%TO.N,GND*%
%TA.AperFunction,SMDPad,CuDef*%
G36*
G01*
X143831000Y-77527999D02*
X143831000Y-78428001D01*
G75*
G02*
X143581001Y-78678000I-249999J0D01*
G01*
X142930999Y-78678000D01*
G75*
G02*
X142681000Y-78428001I0J249999D01*
G01*
X142681000Y-77527999D01*
G75*
G02*
X142930999Y-77278000I249999J0D01*
G01*
X143581001Y-77278000D01*
G75*
G02*
X143831000Y-77527999I0J-249999D01*
G01*
G37*
%TD.AperFunction*%
%TD*%
%TO.P,D3,1*%
%TO.N,GND*%
%TA.AperFunction,SMDPad,CuDef*%
G36*
G01*
X151959000Y-77781999D02*
X151959000Y-78682001D01*
G75*
G02*
X151709001Y-78932000I-249999J0D01*
G01*
X151058999Y-78932000D01*
G75*
G02*
X150809000Y-78682001I0J249999D01*
G01*
X150809000Y-77781999D01*
G75*
G02*
X151058999Y-77532000I249999J0D01*
G01*
X151709001Y-77532000D01*
G75*
G02*
X151959000Y-77781999I0J-249999D01*
G01*
G37*
%TD.AperFunction*%
%TO.P,D3,2*%
%TO.N,Net-(D3-Pad2)*%
%TA.AperFunction,SMDPad,CuDef*%
G36*
G01*
X149909000Y-77781999D02*
X149909000Y-78682001D01*
G75*
G02*
X149659001Y-78932000I-249999J0D01*
G01*
X149008999Y-78932000D01*
G75*
G02*
X148759000Y-78682001I0J249999D01*
G01*
X148759000Y-77781999D01*
G75*
G02*
X149008999Y-77532000I249999J0D01*
G01*
X149659001Y-77532000D01*
G75*
G02*
X149909000Y-77781999I0J-249999D01*
G01*
G37*
%TD.AperFunction*%
%TD*%
%TO.P,D4,2*%
%TO.N,Net-(D4-Pad2)*%
%TA.AperFunction,SMDPad,CuDef*%
G36*
G01*
X149909000Y-84385999D02*
X149909000Y-85286001D01*
G75*
G02*
X149659001Y-85536000I-249999J0D01*
G01*
X149008999Y-85536000D01*
G75*
G02*
X148759000Y-85286001I0J249999D01*
G01*
X148759000Y-84385999D01*
G75*
G02*
X149008999Y-84136000I249999J0D01*
G01*
X149659001Y-84136000D01*
G75*
G02*
X149909000Y-84385999I0J-249999D01*
G01*
G37*
%TD.AperFunction*%
%TO.P,D4,1*%
%TO.N,GND*%
%TA.AperFunction,SMDPad,CuDef*%
G36*
G01*
X151959000Y-84385999D02*
X151959000Y-85286001D01*
G75*
G02*
X151709001Y-85536000I-249999J0D01*
G01*
X151058999Y-85536000D01*
G75*
G02*
X150809000Y-85286001I0J249999D01*
G01*
X150809000Y-84385999D01*
G75*
G02*
X151058999Y-84136000I249999J0D01*
G01*
X151709001Y-84136000D01*
G75*
G02*
X151959000Y-84385999I0J-249999D01*
G01*
G37*
%TD.AperFunction*%
%TD*%
%TO.P,R1,1*%
%TO.N,Net-(Q1-Pad1)*%
%TA.AperFunction,SMDPad,CuDef*%
G36*
G01*
X117659999Y-76115000D02*
X118560001Y-76115000D01*
G75*
G02*
X118810000Y-76364999I0J-249999D01*
G01*
X118810000Y-77015001D01*
G75*
G02*
X118560001Y-77265000I-249999J0D01*
G01*
X117659999Y-77265000D01*
G75*
G02*
X117410000Y-77015001I0J249999D01*
G01*
X117410000Y-76364999D01*
G75*
G02*
X117659999Y-76115000I249999J0D01*
G01*
G37*
%TD.AperFunction*%
%TO.P,R1,2*%
%TO.N,Net-(J2-Pad5)*%
%TA.AperFunction,SMDPad,CuDef*%
G36*
G01*
X117659999Y-78165000D02*
X118560001Y-78165000D01*
G75*
G02*
X118810000Y-78414999I0J-249999D01*
G01*
X118810000Y-79065001D01*
G75*
G02*
X118560001Y-79315000I-249999J0D01*
G01*
X117659999Y-79315000D01*
G75*
G02*
X117410000Y-79065001I0J249999D01*
G01*
X117410000Y-78414999D01*
G75*
G02*
X117659999Y-78165000I249999J0D01*
G01*
G37*
%TD.AperFunction*%
%TD*%
%TO.P,R5,2*%
%TO.N,Net-(J2-Pad4)*%
%TA.AperFunction,SMDPad,CuDef*%
G36*
G01*
X117905000Y-83369999D02*
X117905000Y-84270001D01*
G75*
G02*
X117655001Y-84520000I-249999J0D01*
G01*
X117004999Y-84520000D01*
G75*
G02*
X116755000Y-84270001I0J249999D01*
G01*
X116755000Y-83369999D01*
G75*
G02*
X117004999Y-83120000I249999J0D01*
G01*
X117655001Y-83120000D01*
G75*
G02*
X117905000Y-83369999I0J-249999D01*
G01*
G37*
%TD.AperFunction*%
%TO.P,R5,1*%
%TO.N,Net-(Q2-Pad1)*%
%TA.AperFunction,SMDPad,CuDef*%
G36*
G01*
X119955000Y-83369999D02*
X119955000Y-84270001D01*
G75*
G02*
X119705001Y-84520000I-249999J0D01*
G01*
X119054999Y-84520000D01*
G75*
G02*
X118805000Y-84270001I0J249999D01*
G01*
X118805000Y-83369999D01*
G75*
G02*
X119054999Y-83120000I249999J0D01*
G01*
X119705001Y-83120000D01*
G75*
G02*
X119955000Y-83369999I0J-249999D01*
G01*
G37*
%TD.AperFunction*%
%TD*%
%TO.P,R8,1*%
%TO.N,Net-(Q2-Pad1)*%
%TA.AperFunction,SMDPad,CuDef*%
G36*
G01*
X140631000Y-90366001D02*
X140631000Y-89465999D01*
G75*
G02*
X140880999Y-89216000I249999J0D01*
G01*
X141531001Y-89216000D01*
G75*
G02*
X141781000Y-89465999I0J-249999D01*
G01*
X141781000Y-90366001D01*
G75*
G02*
X141531001Y-90616000I-249999J0D01*
G01*
X140880999Y-90616000D01*
G75*
G02*
X140631000Y-90366001I0J249999D01*
G01*
G37*
%TD.AperFunction*%
%TO.P,R8,2*%
%TO.N,GND*%
%TA.AperFunction,SMDPad,CuDef*%
G36*
G01*
X142681000Y-90366001D02*
X142681000Y-89465999D01*
G75*
G02*
X142930999Y-89216000I249999J0D01*
G01*
X143581001Y-89216000D01*
G75*
G02*
X143831000Y-89465999I0J-249999D01*
G01*
X143831000Y-90366001D01*
G75*
G02*
X143581001Y-90616000I-249999J0D01*
G01*
X142930999Y-90616000D01*
G75*
G02*
X142681000Y-90366001I0J249999D01*
G01*
G37*
%TD.AperFunction*%
%TD*%
%TO.P,R10,2*%
%TO.N,Net-(D4-Pad2)*%
%TA.AperFunction,SMDPad,CuDef*%
G36*
G01*
X149927000Y-89415199D02*
X149927000Y-90315201D01*
G75*
G02*
X149677001Y-90565200I-249999J0D01*
G01*
X149026999Y-90565200D01*
G75*
G02*
X148777000Y-90315201I0J249999D01*
G01*
X148777000Y-89415199D01*
G75*
G02*
X149026999Y-89165200I249999J0D01*
G01*
X149677001Y-89165200D01*
G75*
G02*
X149927000Y-89415199I0J-249999D01*
G01*
G37*
%TD.AperFunction*%
%TO.P,R10,1*%
%TO.N,Net-(J2-Pad2)*%
%TA.AperFunction,SMDPad,CuDef*%
G36*
G01*
X151977000Y-89415199D02*
X151977000Y-90315201D01*
G75*
G02*
X151727001Y-90565200I-249999J0D01*
G01*
X151076999Y-90565200D01*
G75*
G02*
X150827000Y-90315201I0J249999D01*
G01*
X150827000Y-89415199D01*
G75*
G02*
X151076999Y-89165200I249999J0D01*
G01*
X151727001Y-89165200D01*
G75*
G02*
X151977000Y-89415199I0J-249999D01*
G01*
G37*
%TD.AperFunction*%
%TD*%
D15*
%TO.N,+24V*%
X156235400Y-92608400D03*
X155270200Y-84150200D03*
%TO.N,Net-(J1-Pad5)*%
X175107600Y-84023200D03*
%TO.N,GND*%
X180136800Y-90906600D03*
X182219600Y-90881200D03*
X181711600Y-91770200D03*
X180695600Y-91795600D03*
X181178200Y-92633800D03*
X181178200Y-90881200D03*
X130276600Y-85852000D03*
X131292600Y-86360000D03*
X131292600Y-87376000D03*
X130276600Y-87376000D03*
X132308600Y-87376000D03*
X133324600Y-87376000D03*
X134340600Y-87376000D03*
X135356600Y-87376000D03*
X136372600Y-87376000D03*
X137388600Y-87376000D03*
X136372600Y-86360000D03*
X137388600Y-85852000D03*
X130276600Y-88392000D03*
X130276600Y-89408000D03*
X130276600Y-90424000D03*
X130276600Y-91440000D03*
X137388600Y-88392000D03*
X137388600Y-89408000D03*
X137388600Y-90424000D03*
X137388600Y-91440000D03*
X131292600Y-90424000D03*
X131292600Y-92202000D03*
X136372600Y-90424000D03*
X136372600Y-92202000D03*
X132308600Y-90424000D03*
X133324600Y-90424000D03*
X134340600Y-90424000D03*
X135356600Y-90424000D03*
X129260600Y-89408000D03*
X128244600Y-89408000D03*
X129260600Y-88392000D03*
X138404600Y-88392000D03*
X138404600Y-89408000D03*
X139496800Y-89408000D03*
X131292600Y-89408000D03*
X132308600Y-89408000D03*
X133324600Y-89408000D03*
X134340600Y-89408000D03*
X135356600Y-89408000D03*
X136372600Y-89408000D03*
X132308600Y-88392000D03*
X133324600Y-88392000D03*
X134340600Y-88392000D03*
X135356600Y-88392000D03*
X138023600Y-74218800D03*
X138023600Y-75488800D03*
X139293600Y-75488800D03*
X139293600Y-74218800D03*
X167055800Y-80543400D03*
X170078400Y-91262200D03*
%TO.N,Net-(J2-Pad2)*%
X153847800Y-90424000D03*
%TD*%
D16*
%TO.N,Net-(D1-Pad2)*%
X134375000Y-73152000D02*
X143002000Y-73152000D01*
X143002000Y-73152000D02*
X145542000Y-75692000D01*
X145542000Y-82550000D02*
X143256000Y-84836000D01*
X145542000Y-75692000D02*
X145542000Y-82550000D01*
%TO.N,Net-(D2-Pad2)*%
X136888000Y-82296000D02*
X141206000Y-77978000D01*
X132597000Y-82296000D02*
X136888000Y-82296000D01*
%TO.N,Net-(D3-Pad2)*%
X149334000Y-72762000D02*
X149292200Y-72720200D01*
X149334000Y-78232000D02*
X149334000Y-72762000D01*
%TO.N,Net-(D4-Pad2)*%
X149334000Y-89847200D02*
X149352000Y-89865200D01*
X149334000Y-84836000D02*
X149334000Y-89847200D01*
%TO.N,Net-(J1-Pad2)*%
X181888001Y-95479999D02*
X151385399Y-95479999D01*
X183388000Y-93980000D02*
X181888001Y-95479999D01*
X142133410Y-77278470D02*
X141562940Y-76708000D01*
X142133410Y-86228010D02*
X142133410Y-77278470D01*
X141562940Y-76708000D02*
X133858000Y-76708000D01*
X151385399Y-95479999D02*
X142133410Y-86228010D01*
X131826000Y-78740000D02*
X133858000Y-76708000D01*
X127000000Y-78740000D02*
X131826000Y-78740000D01*
%TO.N,Net-(J1-Pad3)*%
X186690000Y-91440000D02*
X184150000Y-88900000D01*
X126968000Y-85918000D02*
X126968000Y-94456000D01*
X126968000Y-94456000D02*
X129032000Y-96520000D01*
X184658000Y-96520000D02*
X186690000Y-94488000D01*
X186690000Y-94488000D02*
X186690000Y-91440000D01*
X134112000Y-96266000D02*
X133858000Y-96520000D01*
X134112000Y-94488000D02*
X134112000Y-96266000D01*
X129032000Y-96520000D02*
X133858000Y-96520000D01*
X133858000Y-96520000D02*
X184658000Y-96520000D01*
D17*
%TO.N,+24V*%
X155362800Y-79629200D02*
X155947200Y-79044800D01*
X155362800Y-81153000D02*
X155362800Y-79629200D01*
X155947200Y-75234800D02*
X155947200Y-79044800D01*
X155270200Y-81245600D02*
X155362800Y-81153000D01*
X155270200Y-84150200D02*
X155270200Y-81245600D01*
X158741000Y-92608400D02*
X158817200Y-92532200D01*
X156235400Y-92608400D02*
X158741000Y-92608400D01*
X158817200Y-87300000D02*
X159401600Y-86715600D01*
X159401600Y-86715600D02*
X159401600Y-90525600D01*
X158817200Y-91110000D02*
X159401600Y-90525600D01*
X158817200Y-92532200D02*
X158817200Y-91110000D01*
D16*
%TO.N,Net-(J1-Pad4)*%
X183083200Y-83515200D02*
X183388000Y-83820000D01*
X168478200Y-82651600D02*
X168503600Y-82677000D01*
X179714400Y-80146400D02*
X183388000Y-83820000D01*
X165744000Y-82042000D02*
X165744000Y-81855200D01*
X170983800Y-80196800D02*
X171526200Y-80196800D01*
X168503600Y-82677000D02*
X170983800Y-80196800D01*
X166379000Y-82677000D02*
X165744000Y-82042000D01*
X168503600Y-82677000D02*
X166379000Y-82677000D01*
X179664000Y-80196800D02*
X179714400Y-80146400D01*
X171526200Y-80196800D02*
X179664000Y-80196800D01*
%TO.N,Net-(J1-Pad5)*%
X168817400Y-92633800D02*
X170929300Y-92633800D01*
X173267790Y-89537010D02*
X174320200Y-88484600D01*
X173267790Y-90295310D02*
X173267790Y-89537010D01*
X170929300Y-92633800D02*
X173267790Y-90295310D01*
X175107600Y-87697200D02*
X174320200Y-88484600D01*
X175107600Y-84023200D02*
X175107600Y-87697200D01*
%TO.N,GND*%
X140965000Y-84968000D02*
X141097000Y-84836000D01*
D18*
%TO.N,Net-(J2-Pad5)*%
X132325000Y-73152000D02*
X119126000Y-73152000D01*
X116332000Y-75946000D02*
X116332000Y-78740000D01*
X119126000Y-73152000D02*
X116332000Y-75946000D01*
X106680000Y-78740000D02*
X116332000Y-78740000D01*
X116332000Y-78740000D02*
X117856000Y-78740000D01*
D16*
%TO.N,Net-(J2-Pad4)*%
X116586000Y-83820000D02*
X106680000Y-83820000D01*
X117330000Y-82822000D02*
X117330000Y-83820000D01*
X130547000Y-82296000D02*
X117856000Y-82296000D01*
X117856000Y-82296000D02*
X117330000Y-82822000D01*
X116586000Y-83820000D02*
X117330000Y-83820000D01*
%TO.N,Net-(J2-Pad3)*%
X106527600Y-70764400D02*
X149386400Y-70764400D01*
X104343200Y-72948800D02*
X106527600Y-70764400D01*
X104343200Y-85547200D02*
X104343200Y-72948800D01*
X149386400Y-70764400D02*
X151342200Y-72720200D01*
X107696000Y-88900000D02*
X104343200Y-85547200D01*
X161197200Y-76504800D02*
X160680400Y-76504800D01*
X160680400Y-76504800D02*
X157032399Y-72856799D01*
X151478799Y-72856799D02*
X151342200Y-72720200D01*
X157032399Y-72856799D02*
X151478799Y-72856799D01*
%TO.N,Net-(J2-Pad2)*%
X163877600Y-87985200D02*
X164702600Y-87985200D01*
X151960800Y-90424000D02*
X151402000Y-89865200D01*
X153847800Y-90424000D02*
X151960800Y-90424000D01*
X164651600Y-87985600D02*
X163826600Y-87985600D01*
X163826600Y-87985600D02*
X160981800Y-85140800D01*
X159131000Y-85140800D02*
X153847800Y-90424000D01*
X160981800Y-85140800D02*
X159131000Y-85140800D01*
D18*
%TO.N,Net-(Q1-Pad1)*%
X118337000Y-76463000D02*
X118110000Y-76690000D01*
X122428000Y-76463000D02*
X118337000Y-76463000D01*
X122428000Y-76463000D02*
X122428000Y-76472000D01*
X123764000Y-77790000D02*
X125000000Y-77790000D01*
X122437000Y-76463000D02*
X123764000Y-77790000D01*
D16*
X126336000Y-76454000D02*
X125000000Y-77790000D01*
X129794000Y-76454000D02*
X126336000Y-76454000D01*
%TO.N,Net-(Q2-Pad1)*%
X137069554Y-84140000D02*
X125796000Y-84140000D01*
X141206000Y-88276446D02*
X137069554Y-84140000D01*
X141206000Y-89916000D02*
X141206000Y-88276446D01*
X124328000Y-84968000D02*
X124968000Y-84968000D01*
X121920000Y-87376000D02*
X124328000Y-84968000D01*
X119380000Y-83820000D02*
X123820000Y-83820000D01*
X123820000Y-83820000D02*
X124968000Y-84968000D01*
X125796000Y-84140000D02*
X124968000Y-84968000D01*
D19*
%TO.N,Net-(R11-Pad1)*%
X161197200Y-80975000D02*
X161400600Y-81178400D01*
X161197200Y-79044800D02*
X161197200Y-80975000D01*
D16*
%TO.N,Net-(R12-Pad1)*%
X164778800Y-90652800D02*
X164651600Y-90525600D01*
X164778800Y-92506800D02*
X164778800Y-90652800D01*
%TO.N,Net-(D5-Pad1)*%
X168478200Y-80146400D02*
X168875200Y-80146400D01*
X163743600Y-81992400D02*
X163694000Y-82042000D01*
X163743600Y-80206600D02*
X163743600Y-81992400D01*
X163743600Y-80206600D02*
X164816500Y-79133700D01*
X167465500Y-79133700D02*
X168478200Y-80146400D01*
X164816500Y-79133700D02*
X167465500Y-79133700D01*
%TO.N,Net-(D6-Pad1)*%
X166690000Y-92556400D02*
X166767400Y-92633800D01*
X166690000Y-90585800D02*
X166690000Y-92556400D01*
X166690000Y-90585800D02*
X166932100Y-90585800D01*
X170596799Y-89783399D02*
X171348400Y-90535000D01*
X167734501Y-89783399D02*
X170596799Y-89783399D01*
X166932100Y-90585800D02*
X167734501Y-89783399D01*
%TO.N,Net-(Q3-Pad3)*%
X161629000Y-78206600D02*
X161197200Y-77774800D01*
X164693600Y-78206600D02*
X161629000Y-78206600D01*
X160791000Y-77774800D02*
X161197200Y-77774800D01*
X157412800Y-81153000D02*
X160791000Y-77774800D01*
X165649800Y-77250400D02*
X164693600Y-78206600D01*
X165649800Y-74625200D02*
X165649800Y-77250400D01*
%TO.N,Net-(Q4-Pad3)*%
X164143800Y-89255600D02*
X160867200Y-92532200D01*
X164651600Y-89255600D02*
X164143800Y-89255600D01*
X170298000Y-87263200D02*
X168975400Y-88585800D01*
X168975400Y-88585800D02*
X167640000Y-88585800D01*
X170298000Y-86563200D02*
X170298000Y-87263200D01*
X166970200Y-89255600D02*
X167640000Y-88585800D01*
X164651600Y-89255600D02*
X166970200Y-89255600D01*
%TD*%
D20*
%TO.N,GND*%
G36*
X103813773Y-72364677D02*
G01*
X103783732Y-72389331D01*
X103759079Y-72419371D01*
X103685335Y-72509228D01*
X103612218Y-72646018D01*
X103567195Y-72794443D01*
X103551992Y-72948800D01*
X103555801Y-72987473D01*
X103555800Y-85508537D01*
X103551992Y-85547200D01*
X103555800Y-85585863D01*
X103555800Y-85585872D01*
X103567194Y-85701556D01*
X103612218Y-85849982D01*
X103685334Y-85986771D01*
X103783731Y-86106669D01*
X103813778Y-86131328D01*
X105735790Y-88053342D01*
X105643047Y-88277244D01*
X105561000Y-88689721D01*
X105561000Y-89110279D01*
X105643047Y-89522756D01*
X105803988Y-89911302D01*
X106037637Y-90260983D01*
X106335017Y-90558363D01*
X106684698Y-90792012D01*
X107073244Y-90952953D01*
X107485721Y-91035000D01*
X107906279Y-91035000D01*
X108318756Y-90952953D01*
X108707302Y-90792012D01*
X109056983Y-90558363D01*
X109354363Y-90260983D01*
X109588012Y-89911302D01*
X109748953Y-89522756D01*
X109831000Y-89110279D01*
X109831000Y-88689721D01*
X109748953Y-88277244D01*
X109588012Y-87888698D01*
X109354363Y-87539017D01*
X109056983Y-87241637D01*
X108707302Y-87007988D01*
X108318756Y-86847047D01*
X107906279Y-86765000D01*
X107485721Y-86765000D01*
X107073244Y-86847047D01*
X106849342Y-86939790D01*
X105130600Y-85221050D01*
X105130600Y-75151653D01*
X106383952Y-75151653D01*
X106539962Y-75467214D01*
X106914745Y-75658020D01*
X107319551Y-75772044D01*
X107738824Y-75804902D01*
X108156451Y-75755334D01*
X108556383Y-75625243D01*
X108852038Y-75467214D01*
X109008048Y-75151653D01*
X107696000Y-73839605D01*
X106383952Y-75151653D01*
X105130600Y-75151653D01*
X105130600Y-73274950D01*
X105875508Y-72530043D01*
X105697980Y-72878745D01*
X105583956Y-73283551D01*
X105551098Y-73702824D01*
X105600666Y-74120451D01*
X105730757Y-74520383D01*
X105888786Y-74816038D01*
X106204347Y-74972048D01*
X107516395Y-73660000D01*
X107875605Y-73660000D01*
X109187653Y-74972048D01*
X109503214Y-74816038D01*
X109694020Y-74441255D01*
X109808044Y-74036449D01*
X109840902Y-73617176D01*
X109791334Y-73199549D01*
X109661243Y-72799617D01*
X109503214Y-72503962D01*
X109187653Y-72347952D01*
X107875605Y-73660000D01*
X107516395Y-73660000D01*
X107502253Y-73645858D01*
X107681858Y-73466253D01*
X107696000Y-73480395D01*
X109008048Y-72168347D01*
X108852038Y-71852786D01*
X108477255Y-71661980D01*
X108086096Y-71551800D01*
X148449437Y-71551800D01*
X148339238Y-71642238D01*
X148228795Y-71776813D01*
X148146728Y-71930349D01*
X148096192Y-72096945D01*
X148079128Y-72270199D01*
X148079128Y-73170201D01*
X148096192Y-73343455D01*
X148146728Y-73510051D01*
X148228795Y-73663587D01*
X148339238Y-73798162D01*
X148473813Y-73908605D01*
X148546601Y-73947511D01*
X148546600Y-77027032D01*
X148515613Y-77043595D01*
X148381038Y-77154038D01*
X148270595Y-77288613D01*
X148188528Y-77442149D01*
X148137992Y-77608745D01*
X148120928Y-77781999D01*
X148120928Y-78682001D01*
X148137992Y-78855255D01*
X148188528Y-79021851D01*
X148270595Y-79175387D01*
X148381038Y-79309962D01*
X148515613Y-79420405D01*
X148669149Y-79502472D01*
X148835745Y-79553008D01*
X149008999Y-79570072D01*
X149659001Y-79570072D01*
X149832255Y-79553008D01*
X149998851Y-79502472D01*
X150152387Y-79420405D01*
X150286962Y-79309962D01*
X150292342Y-79303406D01*
X150357815Y-79383185D01*
X150454506Y-79462537D01*
X150564820Y-79521502D01*
X150684518Y-79557812D01*
X150809000Y-79570072D01*
X151098250Y-79567000D01*
X151257000Y-79408250D01*
X151257000Y-78359000D01*
X151511000Y-78359000D01*
X151511000Y-79408250D01*
X151669750Y-79567000D01*
X151959000Y-79570072D01*
X152083482Y-79557812D01*
X152203180Y-79521502D01*
X152313494Y-79462537D01*
X152410185Y-79383185D01*
X152489537Y-79286494D01*
X152548502Y-79176180D01*
X152584812Y-79056482D01*
X152597072Y-78932000D01*
X152594000Y-78517750D01*
X152435250Y-78359000D01*
X151511000Y-78359000D01*
X151257000Y-78359000D01*
X151237000Y-78359000D01*
X151237000Y-78105000D01*
X151257000Y-78105000D01*
X151257000Y-77055750D01*
X151511000Y-77055750D01*
X151511000Y-78105000D01*
X152435250Y-78105000D01*
X152594000Y-77946250D01*
X152597072Y-77532000D01*
X152584812Y-77407518D01*
X152548502Y-77287820D01*
X152489537Y-77177506D01*
X152410185Y-77080815D01*
X152313494Y-77001463D01*
X152203180Y-76942498D01*
X152083482Y-76906188D01*
X151959000Y-76893928D01*
X151669750Y-76897000D01*
X151511000Y-77055750D01*
X151257000Y-77055750D01*
X151098250Y-76897000D01*
X150809000Y-76893928D01*
X150684518Y-76906188D01*
X150564820Y-76942498D01*
X150454506Y-77001463D01*
X150357815Y-77080815D01*
X150292342Y-77160594D01*
X150286962Y-77154038D01*
X150152387Y-77043595D01*
X150121400Y-77027032D01*
X150121400Y-73899731D01*
X150245162Y-73798162D01*
X150317200Y-73710384D01*
X150389238Y-73798162D01*
X150523813Y-73908605D01*
X150677349Y-73990672D01*
X150843945Y-74041208D01*
X151017199Y-74058272D01*
X151667201Y-74058272D01*
X151840455Y-74041208D01*
X152007051Y-73990672D01*
X152160587Y-73908605D01*
X152295162Y-73798162D01*
X152405605Y-73663587D01*
X152415968Y-73644199D01*
X156706249Y-73644199D01*
X159736016Y-76673968D01*
X159749271Y-76808545D01*
X159794116Y-76956382D01*
X159866942Y-77092629D01*
X159905654Y-77139800D01*
X159866942Y-77186971D01*
X159794116Y-77323218D01*
X159749271Y-77471055D01*
X159734128Y-77624800D01*
X159734128Y-77718120D01*
X157637322Y-79814928D01*
X157102835Y-79814928D01*
X157179451Y-79752051D01*
X157277458Y-79632629D01*
X157350284Y-79496382D01*
X157395129Y-79348545D01*
X157410272Y-79194800D01*
X157410272Y-78894800D01*
X157395129Y-78741055D01*
X157350284Y-78593218D01*
X157277458Y-78456971D01*
X157238746Y-78409800D01*
X157277458Y-78362629D01*
X157350284Y-78226382D01*
X157395129Y-78078545D01*
X157410272Y-77924800D01*
X157410272Y-77624800D01*
X157395129Y-77471055D01*
X157350284Y-77323218D01*
X157277458Y-77186971D01*
X157238746Y-77139800D01*
X157277458Y-77092629D01*
X157350284Y-76956382D01*
X157395129Y-76808545D01*
X157410272Y-76654800D01*
X157410272Y-76354800D01*
X157395129Y-76201055D01*
X157350284Y-76053218D01*
X157277458Y-75916971D01*
X157238746Y-75869800D01*
X157277458Y-75822629D01*
X157350284Y-75686382D01*
X157395129Y-75538545D01*
X157410272Y-75384800D01*
X157410272Y-75084800D01*
X157395129Y-74931055D01*
X157350284Y-74783218D01*
X157277458Y-74646971D01*
X157179451Y-74527549D01*
X157060029Y-74429542D01*
X156923782Y-74356716D01*
X156775945Y-74311871D01*
X156622200Y-74296728D01*
X156347484Y-74296728D01*
X156337886Y-74291598D01*
X156146370Y-74233502D01*
X155947200Y-74213885D01*
X155748029Y-74233502D01*
X155556513Y-74291598D01*
X155546915Y-74296728D01*
X155272200Y-74296728D01*
X155118455Y-74311871D01*
X154970618Y-74356716D01*
X154834371Y-74429542D01*
X154714949Y-74527549D01*
X154616942Y-74646971D01*
X154544116Y-74783218D01*
X154499271Y-74931055D01*
X154484128Y-75084800D01*
X154484128Y-75384800D01*
X154499271Y-75538545D01*
X154544116Y-75686382D01*
X154616942Y-75822629D01*
X154655654Y-75869800D01*
X154616942Y-75916971D01*
X154544116Y-76053218D01*
X154499271Y-76201055D01*
X154484128Y-76354800D01*
X154484128Y-76654800D01*
X154499271Y-76808545D01*
X154544116Y-76956382D01*
X154616942Y-77092629D01*
X154655654Y-77139800D01*
X154616942Y-77186971D01*
X154544116Y-77323218D01*
X154499271Y-77471055D01*
X154484128Y-77624800D01*
X154484128Y-77924800D01*
X154499271Y-78078545D01*
X154544116Y-78226382D01*
X154616942Y-78362629D01*
X154655654Y-78409800D01*
X154616942Y-78456971D01*
X154544116Y-78593218D01*
X154499271Y-78741055D01*
X154484128Y-78894800D01*
X154484128Y-79117787D01*
X154447720Y-79185902D01*
X154419599Y-79238513D01*
X154361502Y-79430030D01*
X154341885Y-79629200D01*
X154346801Y-79679111D01*
X154346801Y-80151849D01*
X154299395Y-80209613D01*
X154217328Y-80363149D01*
X154166792Y-80529745D01*
X154149728Y-80702999D01*
X154149728Y-81603001D01*
X154166792Y-81776255D01*
X154217328Y-81942851D01*
X154254201Y-82011835D01*
X154254200Y-83952740D01*
X154235200Y-84048261D01*
X154235200Y-84252139D01*
X154274974Y-84452098D01*
X154352995Y-84640456D01*
X154466263Y-84809974D01*
X154610426Y-84954137D01*
X154779944Y-85067405D01*
X154968302Y-85145426D01*
X155168261Y-85185200D01*
X155372139Y-85185200D01*
X155572098Y-85145426D01*
X155760456Y-85067405D01*
X155929974Y-84954137D01*
X156074137Y-84809974D01*
X156187405Y-84640456D01*
X156265426Y-84452098D01*
X156305200Y-84252139D01*
X156305200Y-84048261D01*
X156286200Y-83952741D01*
X156286200Y-82255223D01*
X156315762Y-82230962D01*
X156387800Y-82143184D01*
X156459838Y-82230962D01*
X156594413Y-82341405D01*
X156747949Y-82423472D01*
X156914545Y-82474008D01*
X157087799Y-82491072D01*
X157737801Y-82491072D01*
X157911055Y-82474008D01*
X158077651Y-82423472D01*
X158231187Y-82341405D01*
X158292691Y-82290930D01*
X158324415Y-82329585D01*
X158421106Y-82408937D01*
X158531420Y-82467902D01*
X158651118Y-82504212D01*
X158775600Y-82516472D01*
X159064850Y-82513400D01*
X159223600Y-82354650D01*
X159223600Y-81305400D01*
X159203600Y-81305400D01*
X159203600Y-81051400D01*
X159223600Y-81051400D01*
X159223600Y-81031400D01*
X159477600Y-81031400D01*
X159477600Y-81051400D01*
X159497600Y-81051400D01*
X159497600Y-81305400D01*
X159477600Y-81305400D01*
X159477600Y-82354650D01*
X159636350Y-82513400D01*
X159925600Y-82516472D01*
X160050082Y-82504212D01*
X160169780Y-82467902D01*
X160280094Y-82408937D01*
X160376785Y-82329585D01*
X160442258Y-82249806D01*
X160447638Y-82256362D01*
X160582213Y-82366805D01*
X160735749Y-82448872D01*
X160902345Y-82499408D01*
X161075599Y-82516472D01*
X161725601Y-82516472D01*
X161898855Y-82499408D01*
X162065451Y-82448872D01*
X162218987Y-82366805D01*
X162353562Y-82256362D01*
X162464005Y-82121787D01*
X162480928Y-82090126D01*
X162480928Y-82492001D01*
X162497992Y-82665255D01*
X162548528Y-82831851D01*
X162630595Y-82985387D01*
X162741038Y-83119962D01*
X162875613Y-83230405D01*
X163029149Y-83312472D01*
X163195745Y-83363008D01*
X163368999Y-83380072D01*
X164019001Y-83380072D01*
X164192255Y-83363008D01*
X164358851Y-83312472D01*
X164512387Y-83230405D01*
X164646962Y-83119962D01*
X164719000Y-83032184D01*
X164791038Y-83119962D01*
X164925613Y-83230405D01*
X165079149Y-83312472D01*
X165245745Y-83363008D01*
X165418999Y-83380072D01*
X166024002Y-83380072D01*
X166076217Y-83407982D01*
X166224643Y-83453006D01*
X166340327Y-83464400D01*
X166340335Y-83464400D01*
X166379000Y-83468208D01*
X166417665Y-83464400D01*
X166789442Y-83464400D01*
X166833134Y-83569882D01*
X167039425Y-83878618D01*
X167301982Y-84141175D01*
X167610718Y-84347466D01*
X167953766Y-84489561D01*
X168317944Y-84562000D01*
X168689256Y-84562000D01*
X169053434Y-84489561D01*
X169396482Y-84347466D01*
X169705218Y-84141175D01*
X169967775Y-83878618D01*
X170174066Y-83569882D01*
X170316161Y-83226834D01*
X170388600Y-82862656D01*
X170388600Y-82491344D01*
X170316161Y-82127166D01*
X170272468Y-82021683D01*
X170901716Y-81392435D01*
X170902945Y-81392808D01*
X171076199Y-81409872D01*
X171976201Y-81409872D01*
X172149455Y-81392808D01*
X172316051Y-81342272D01*
X172469587Y-81260205D01*
X172604162Y-81149762D01*
X172714605Y-81015187D01*
X172731168Y-80984200D01*
X179438650Y-80984200D01*
X181427791Y-82973341D01*
X181335047Y-83197244D01*
X181253000Y-83609721D01*
X181253000Y-84030279D01*
X181335047Y-84442756D01*
X181495988Y-84831302D01*
X181729637Y-85180983D01*
X182027017Y-85478363D01*
X182376698Y-85712012D01*
X182765244Y-85872953D01*
X183177721Y-85955000D01*
X183598279Y-85955000D01*
X184010756Y-85872953D01*
X184399302Y-85712012D01*
X184748983Y-85478363D01*
X185046363Y-85180983D01*
X185280012Y-84831302D01*
X185440953Y-84442756D01*
X185523000Y-84030279D01*
X185523000Y-83609721D01*
X185440953Y-83197244D01*
X185280012Y-82808698D01*
X185046363Y-82459017D01*
X184748983Y-82161637D01*
X184399302Y-81927988D01*
X184010756Y-81767047D01*
X183598279Y-81685000D01*
X183177721Y-81685000D01*
X182765244Y-81767047D01*
X182541341Y-81859791D01*
X180298518Y-79616968D01*
X180273868Y-79586932D01*
X180243832Y-79562282D01*
X180243829Y-79562279D01*
X180153972Y-79488535D01*
X180017182Y-79415418D01*
X179868757Y-79370395D01*
X179714400Y-79355192D01*
X179714399Y-79355192D01*
X179637602Y-79362756D01*
X179560043Y-79370395D01*
X179431457Y-79409400D01*
X172731168Y-79409400D01*
X172714605Y-79378413D01*
X172604162Y-79243838D01*
X172597606Y-79238458D01*
X172677385Y-79172985D01*
X172756737Y-79076294D01*
X172815702Y-78965980D01*
X172852012Y-78846282D01*
X172864272Y-78721800D01*
X172862233Y-78529721D01*
X181253000Y-78529721D01*
X181253000Y-78950279D01*
X181335047Y-79362756D01*
X181495988Y-79751302D01*
X181729637Y-80100983D01*
X182027017Y-80398363D01*
X182376698Y-80632012D01*
X182765244Y-80792953D01*
X183177721Y-80875000D01*
X183598279Y-80875000D01*
X184010756Y-80792953D01*
X184399302Y-80632012D01*
X184748983Y-80398363D01*
X185046363Y-80100983D01*
X185280012Y-79751302D01*
X185440953Y-79362756D01*
X185523000Y-78950279D01*
X185523000Y-78529721D01*
X185440953Y-78117244D01*
X185280012Y-77728698D01*
X185046363Y-77379017D01*
X184748983Y-77081637D01*
X184399302Y-76847988D01*
X184010756Y-76687047D01*
X183598279Y-76605000D01*
X183177721Y-76605000D01*
X182765244Y-76687047D01*
X182376698Y-76847988D01*
X182027017Y-77081637D01*
X181729637Y-77379017D01*
X181495988Y-77728698D01*
X181335047Y-78117244D01*
X181253000Y-78529721D01*
X172862233Y-78529721D01*
X172861200Y-78432550D01*
X172702450Y-78273800D01*
X171653200Y-78273800D01*
X171653200Y-78293800D01*
X171399200Y-78293800D01*
X171399200Y-78273800D01*
X170349950Y-78273800D01*
X170327400Y-78296350D01*
X170304450Y-78273400D01*
X169555200Y-78273400D01*
X169555200Y-79072650D01*
X169713950Y-79231400D01*
X169828200Y-79234472D01*
X169952682Y-79222212D01*
X170072380Y-79185902D01*
X170182694Y-79126937D01*
X170279385Y-79047585D01*
X170279950Y-79046897D01*
X170295663Y-79076294D01*
X170375015Y-79172985D01*
X170454794Y-79238458D01*
X170448238Y-79243838D01*
X170337795Y-79378413D01*
X170255728Y-79531949D01*
X170205192Y-79698545D01*
X170188128Y-79871799D01*
X170188128Y-79878920D01*
X169592766Y-80474283D01*
X169606182Y-80449183D01*
X169651206Y-80300757D01*
X169666409Y-80146400D01*
X169651206Y-79992043D01*
X169606182Y-79843617D01*
X169533066Y-79706828D01*
X169515149Y-79684996D01*
X169504012Y-79571918D01*
X169467702Y-79452220D01*
X169408737Y-79341906D01*
X169329385Y-79245215D01*
X169232694Y-79165863D01*
X169216593Y-79157257D01*
X169301200Y-79072650D01*
X169301200Y-78273400D01*
X169281200Y-78273400D01*
X169281200Y-78019400D01*
X169301200Y-78019400D01*
X169301200Y-77220150D01*
X169555200Y-77220150D01*
X169555200Y-78019400D01*
X170304450Y-78019400D01*
X170327000Y-77996850D01*
X170349950Y-78019800D01*
X171399200Y-78019800D01*
X171399200Y-77095550D01*
X171653200Y-77095550D01*
X171653200Y-78019800D01*
X172702450Y-78019800D01*
X172861200Y-77861050D01*
X172864272Y-77571800D01*
X172852012Y-77447318D01*
X172815702Y-77327620D01*
X172756737Y-77217306D01*
X172677385Y-77120615D01*
X172580694Y-77041263D01*
X172470380Y-76982298D01*
X172350682Y-76945988D01*
X172226200Y-76933728D01*
X171811950Y-76936800D01*
X171653200Y-77095550D01*
X171399200Y-77095550D01*
X171240450Y-76936800D01*
X170826200Y-76933728D01*
X170701718Y-76945988D01*
X170582020Y-76982298D01*
X170471706Y-77041263D01*
X170375015Y-77120615D01*
X170295663Y-77217306D01*
X170280209Y-77246219D01*
X170279385Y-77245215D01*
X170182694Y-77165863D01*
X170072380Y-77106898D01*
X169952682Y-77070588D01*
X169828200Y-77058328D01*
X169713950Y-77061400D01*
X169555200Y-77220150D01*
X169301200Y-77220150D01*
X169142450Y-77061400D01*
X169028200Y-77058328D01*
X168903718Y-77070588D01*
X168784020Y-77106898D01*
X168673706Y-77165863D01*
X168577015Y-77245215D01*
X168497663Y-77341906D01*
X168478200Y-77378318D01*
X168458737Y-77341906D01*
X168379385Y-77245215D01*
X168282694Y-77165863D01*
X168172380Y-77106898D01*
X168052682Y-77070588D01*
X167928200Y-77058328D01*
X167128200Y-77058328D01*
X167003718Y-77070588D01*
X166884020Y-77106898D01*
X166773706Y-77165863D01*
X166677015Y-77245215D01*
X166597663Y-77341906D01*
X166538698Y-77452220D01*
X166502388Y-77571918D01*
X166490128Y-77696400D01*
X166490128Y-78346300D01*
X165731672Y-78346300D01*
X165731672Y-78282079D01*
X166179228Y-77834523D01*
X166209269Y-77809869D01*
X166307666Y-77689972D01*
X166380782Y-77553183D01*
X166425806Y-77404757D01*
X166437200Y-77289073D01*
X166437200Y-77289064D01*
X166441008Y-77250401D01*
X166437200Y-77211738D01*
X166437200Y-75830168D01*
X166468187Y-75813605D01*
X166602762Y-75703162D01*
X166608142Y-75696606D01*
X166673615Y-75776385D01*
X166770306Y-75855737D01*
X166880620Y-75914702D01*
X167000318Y-75951012D01*
X167124800Y-75963272D01*
X167414050Y-75960200D01*
X167572800Y-75801450D01*
X167572800Y-74752200D01*
X167826800Y-74752200D01*
X167826800Y-75801450D01*
X167985550Y-75960200D01*
X168274800Y-75963272D01*
X168399282Y-75951012D01*
X168518980Y-75914702D01*
X168629294Y-75855737D01*
X168725985Y-75776385D01*
X168805337Y-75679694D01*
X168864302Y-75569380D01*
X168900612Y-75449682D01*
X168912872Y-75325200D01*
X168911586Y-75151653D01*
X182075952Y-75151653D01*
X182231962Y-75467214D01*
X182606745Y-75658020D01*
X183011551Y-75772044D01*
X183430824Y-75804902D01*
X183848451Y-75755334D01*
X184248383Y-75625243D01*
X184544038Y-75467214D01*
X184700048Y-75151653D01*
X183388000Y-73839605D01*
X182075952Y-75151653D01*
X168911586Y-75151653D01*
X168909800Y-74910950D01*
X168751050Y-74752200D01*
X167826800Y-74752200D01*
X167572800Y-74752200D01*
X167552800Y-74752200D01*
X167552800Y-74498200D01*
X167572800Y-74498200D01*
X167572800Y-73448950D01*
X167826800Y-73448950D01*
X167826800Y-74498200D01*
X168751050Y-74498200D01*
X168909800Y-74339450D01*
X168912872Y-73925200D01*
X168900612Y-73800718D01*
X168870917Y-73702824D01*
X181243098Y-73702824D01*
X181292666Y-74120451D01*
X181422757Y-74520383D01*
X181580786Y-74816038D01*
X181896347Y-74972048D01*
X183208395Y-73660000D01*
X183567605Y-73660000D01*
X184879653Y-74972048D01*
X185195214Y-74816038D01*
X185386020Y-74441255D01*
X185500044Y-74036449D01*
X185532902Y-73617176D01*
X185483334Y-73199549D01*
X185353243Y-72799617D01*
X185195214Y-72503962D01*
X184879653Y-72347952D01*
X183567605Y-73660000D01*
X183208395Y-73660000D01*
X181896347Y-72347952D01*
X181580786Y-72503962D01*
X181389980Y-72878745D01*
X181275956Y-73283551D01*
X181243098Y-73702824D01*
X168870917Y-73702824D01*
X168864302Y-73681020D01*
X168805337Y-73570706D01*
X168725985Y-73474015D01*
X168629294Y-73394663D01*
X168518980Y-73335698D01*
X168399282Y-73299388D01*
X168274800Y-73287128D01*
X167985550Y-73290200D01*
X167826800Y-73448950D01*
X167572800Y-73448950D01*
X167414050Y-73290200D01*
X167124800Y-73287128D01*
X167000318Y-73299388D01*
X166880620Y-73335698D01*
X166770306Y-73394663D01*
X166673615Y-73474015D01*
X166608142Y-73553794D01*
X166602762Y-73547238D01*
X166468187Y-73436795D01*
X166314651Y-73354728D01*
X166148055Y-73304192D01*
X165974801Y-73287128D01*
X165324799Y-73287128D01*
X165151545Y-73304192D01*
X164984949Y-73354728D01*
X164831413Y-73436795D01*
X164696838Y-73547238D01*
X164586395Y-73681813D01*
X164504328Y-73835349D01*
X164453792Y-74001945D01*
X164436728Y-74175199D01*
X164436728Y-75075201D01*
X164453792Y-75248455D01*
X164504328Y-75415051D01*
X164586395Y-75568587D01*
X164696838Y-75703162D01*
X164831413Y-75813605D01*
X164862400Y-75830168D01*
X164862401Y-76924248D01*
X164668121Y-77118528D01*
X164293600Y-77118528D01*
X164169118Y-77130788D01*
X164049420Y-77167098D01*
X163939106Y-77226063D01*
X163842415Y-77305415D01*
X163763063Y-77402106D01*
X163753926Y-77419200D01*
X162629399Y-77419200D01*
X162600284Y-77323218D01*
X162527458Y-77186971D01*
X162488746Y-77139800D01*
X162527458Y-77092629D01*
X162600284Y-76956382D01*
X162645129Y-76808545D01*
X162660272Y-76654800D01*
X162660272Y-76354800D01*
X162645129Y-76201055D01*
X162600284Y-76053218D01*
X162528470Y-75918864D01*
X162552737Y-75889294D01*
X162611702Y-75778980D01*
X162648012Y-75659282D01*
X162660272Y-75534800D01*
X162657200Y-75520550D01*
X162498450Y-75361800D01*
X161324200Y-75361800D01*
X161324200Y-75381800D01*
X161070200Y-75381800D01*
X161070200Y-75361800D01*
X161050200Y-75361800D01*
X161050200Y-75107800D01*
X161070200Y-75107800D01*
X161070200Y-74458550D01*
X161324200Y-74458550D01*
X161324200Y-75107800D01*
X162498450Y-75107800D01*
X162657200Y-74949050D01*
X162660272Y-74934800D01*
X162648012Y-74810318D01*
X162611702Y-74690620D01*
X162552737Y-74580306D01*
X162473385Y-74483615D01*
X162376694Y-74404263D01*
X162266380Y-74345298D01*
X162146682Y-74308988D01*
X162022200Y-74296728D01*
X161482950Y-74299800D01*
X161324200Y-74458550D01*
X161070200Y-74458550D01*
X160911450Y-74299800D01*
X160372200Y-74296728D01*
X160247718Y-74308988D01*
X160128020Y-74345298D01*
X160017706Y-74404263D01*
X159921015Y-74483615D01*
X159854191Y-74565040D01*
X157616527Y-72327377D01*
X157591868Y-72297330D01*
X157471971Y-72198933D01*
X157414750Y-72168347D01*
X182075952Y-72168347D01*
X183388000Y-73480395D01*
X184700048Y-72168347D01*
X184544038Y-71852786D01*
X184169255Y-71661980D01*
X183764449Y-71547956D01*
X183345176Y-71515098D01*
X182927549Y-71564666D01*
X182527617Y-71694757D01*
X182231962Y-71852786D01*
X182075952Y-72168347D01*
X157414750Y-72168347D01*
X157335182Y-72125817D01*
X157186756Y-72080793D01*
X157071072Y-72069399D01*
X157071062Y-72069399D01*
X157032399Y-72065591D01*
X156993736Y-72069399D01*
X152529852Y-72069399D01*
X152487672Y-71930349D01*
X152405605Y-71776813D01*
X152295162Y-71642238D01*
X152160587Y-71531795D01*
X152007051Y-71449728D01*
X151840455Y-71399192D01*
X151667201Y-71382128D01*
X151117679Y-71382128D01*
X150245550Y-70510000D01*
X188240001Y-70510000D01*
X188240000Y-96940470D01*
X188233983Y-96929213D01*
X188155013Y-96832987D01*
X188058787Y-96754017D01*
X187949004Y-96695336D01*
X187829882Y-96659201D01*
X187706000Y-96647000D01*
X185644550Y-96647000D01*
X187219429Y-95072122D01*
X187249469Y-95047469D01*
X187300384Y-94985429D01*
X187347866Y-94927573D01*
X187420982Y-94790783D01*
X187450765Y-94692599D01*
X187466006Y-94642357D01*
X187477400Y-94526673D01*
X187477400Y-94526663D01*
X187481208Y-94488000D01*
X187477400Y-94449337D01*
X187477400Y-91478662D01*
X187481208Y-91439999D01*
X187477400Y-91401336D01*
X187477400Y-91401327D01*
X187466006Y-91285643D01*
X187420982Y-91137217D01*
X187347866Y-91000428D01*
X187278814Y-90916288D01*
X187274121Y-90910569D01*
X187274119Y-90910567D01*
X187249469Y-90880531D01*
X187219433Y-90855881D01*
X185514842Y-89151291D01*
X185523000Y-89110279D01*
X185523000Y-88689721D01*
X185440953Y-88277244D01*
X185280012Y-87888698D01*
X185046363Y-87539017D01*
X184748983Y-87241637D01*
X184399302Y-87007988D01*
X184010756Y-86847047D01*
X183598279Y-86765000D01*
X183177721Y-86765000D01*
X182765244Y-86847047D01*
X182376698Y-87007988D01*
X182027017Y-87241637D01*
X181729637Y-87539017D01*
X181495988Y-87888698D01*
X181335047Y-88277244D01*
X181253000Y-88689721D01*
X181253000Y-89110279D01*
X181335047Y-89522756D01*
X181495988Y-89911302D01*
X181729637Y-90260983D01*
X182027017Y-90558363D01*
X182376698Y-90792012D01*
X182765244Y-90952953D01*
X183177721Y-91035000D01*
X183598279Y-91035000D01*
X184010756Y-90952953D01*
X184399302Y-90792012D01*
X184716510Y-90580061D01*
X185902601Y-91766153D01*
X185902600Y-94161849D01*
X185426287Y-94638162D01*
X185440953Y-94602756D01*
X185523000Y-94190279D01*
X185523000Y-93769721D01*
X185440953Y-93357244D01*
X185280012Y-92968698D01*
X185046363Y-92619017D01*
X184748983Y-92321637D01*
X184399302Y-92087988D01*
X184010756Y-91927047D01*
X183598279Y-91845000D01*
X183177721Y-91845000D01*
X182765244Y-91927047D01*
X182376698Y-92087988D01*
X182027017Y-92321637D01*
X181729637Y-92619017D01*
X181495988Y-92968698D01*
X181335047Y-93357244D01*
X181253000Y-93769721D01*
X181253000Y-94190279D01*
X181335047Y-94602756D01*
X181372261Y-94692599D01*
X151711551Y-94692599D01*
X143193022Y-86174072D01*
X143581001Y-86174072D01*
X143754255Y-86157008D01*
X143920851Y-86106472D01*
X144074387Y-86024405D01*
X144208962Y-85913962D01*
X144319405Y-85779387D01*
X144401472Y-85625851D01*
X144452008Y-85459255D01*
X144469072Y-85286001D01*
X144469072Y-84736479D01*
X144819552Y-84385999D01*
X148120928Y-84385999D01*
X148120928Y-85286001D01*
X148137992Y-85459255D01*
X148188528Y-85625851D01*
X148270595Y-85779387D01*
X148381038Y-85913962D01*
X148515613Y-86024405D01*
X148546600Y-86040968D01*
X148546601Y-88669853D01*
X148533613Y-88676795D01*
X148399038Y-88787238D01*
X148288595Y-88921813D01*
X148206528Y-89075349D01*
X148155992Y-89241945D01*
X148138928Y-89415199D01*
X148138928Y-90315201D01*
X148155992Y-90488455D01*
X148206528Y-90655051D01*
X148288595Y-90808587D01*
X148399038Y-90943162D01*
X148533613Y-91053605D01*
X148687149Y-91135672D01*
X148853745Y-91186208D01*
X149026999Y-91203272D01*
X149677001Y-91203272D01*
X149850255Y-91186208D01*
X150016851Y-91135672D01*
X150170387Y-91053605D01*
X150304962Y-90943162D01*
X150377000Y-90855384D01*
X150449038Y-90943162D01*
X150583613Y-91053605D01*
X150737149Y-91135672D01*
X150903745Y-91186208D01*
X151076999Y-91203272D01*
X151727001Y-91203272D01*
X151795099Y-91196565D01*
X151806443Y-91200006D01*
X151922127Y-91211400D01*
X151922135Y-91211400D01*
X151960800Y-91215208D01*
X151999465Y-91211400D01*
X153171489Y-91211400D01*
X153188026Y-91227937D01*
X153357544Y-91341205D01*
X153545902Y-91419226D01*
X153745861Y-91459000D01*
X153949739Y-91459000D01*
X154149698Y-91419226D01*
X154338056Y-91341205D01*
X154507574Y-91227937D01*
X154651737Y-91083774D01*
X154765005Y-90914256D01*
X154843026Y-90725898D01*
X154882800Y-90525939D01*
X154882800Y-90502550D01*
X157832259Y-87553092D01*
X157873999Y-87690687D01*
X157940540Y-87815176D01*
X157938528Y-87835600D01*
X157938528Y-88135600D01*
X157953671Y-88289345D01*
X157998516Y-88437182D01*
X158071342Y-88573429D01*
X158110054Y-88620600D01*
X158071342Y-88667771D01*
X157998516Y-88804018D01*
X157953671Y-88951855D01*
X157938528Y-89105600D01*
X157938528Y-89405600D01*
X157953671Y-89559345D01*
X157998516Y-89707182D01*
X158071342Y-89843429D01*
X158110054Y-89890600D01*
X158071342Y-89937771D01*
X157998516Y-90074018D01*
X157953671Y-90221855D01*
X157938528Y-90375600D01*
X157938528Y-90598587D01*
X157897364Y-90675600D01*
X157873999Y-90719313D01*
X157815902Y-90910830D01*
X157796285Y-91110000D01*
X157801201Y-91159911D01*
X157801201Y-91531049D01*
X157753795Y-91588813D01*
X157751878Y-91592400D01*
X156432859Y-91592400D01*
X156337339Y-91573400D01*
X156133461Y-91573400D01*
X155933502Y-91613174D01*
X155745144Y-91691195D01*
X155575626Y-91804463D01*
X155431463Y-91948626D01*
X155318195Y-92118144D01*
X155240174Y-92306502D01*
X155200400Y-92506461D01*
X155200400Y-92710339D01*
X155240174Y-92910298D01*
X155318195Y-93098656D01*
X155431463Y-93268174D01*
X155575626Y-93412337D01*
X155745144Y-93525605D01*
X155933502Y-93603626D01*
X156133461Y-93643400D01*
X156337339Y-93643400D01*
X156432859Y-93624400D01*
X157881587Y-93624400D01*
X157998813Y-93720605D01*
X158152349Y-93802672D01*
X158318945Y-93853208D01*
X158492199Y-93870272D01*
X159142201Y-93870272D01*
X159315455Y-93853208D01*
X159482051Y-93802672D01*
X159635587Y-93720605D01*
X159770162Y-93610162D01*
X159842200Y-93522384D01*
X159914238Y-93610162D01*
X160048813Y-93720605D01*
X160202349Y-93802672D01*
X160368945Y-93853208D01*
X160542199Y-93870272D01*
X161192201Y-93870272D01*
X161365455Y-93853208D01*
X161532051Y-93802672D01*
X161685587Y-93720605D01*
X161732252Y-93682308D01*
X161799306Y-93737337D01*
X161909620Y-93796302D01*
X162029318Y-93832612D01*
X162153800Y-93844872D01*
X162443050Y-93841800D01*
X162601800Y-93683050D01*
X162601800Y-92633800D01*
X162581800Y-92633800D01*
X162581800Y-92379800D01*
X162601800Y-92379800D01*
X162601800Y-92359800D01*
X162855800Y-92359800D01*
X162855800Y-92379800D01*
X162875800Y-92379800D01*
X162875800Y-92633800D01*
X162855800Y-92633800D01*
X162855800Y-93683050D01*
X163014550Y-93841800D01*
X163303800Y-93844872D01*
X163428282Y-93832612D01*
X163547980Y-93796302D01*
X163658294Y-93737337D01*
X163754985Y-93657985D01*
X163820458Y-93578206D01*
X163825838Y-93584762D01*
X163960413Y-93695205D01*
X164113949Y-93777272D01*
X164280545Y-93827808D01*
X164453799Y-93844872D01*
X165103801Y-93844872D01*
X165277055Y-93827808D01*
X165443651Y-93777272D01*
X165597187Y-93695205D01*
X165718885Y-93595330D01*
X165814438Y-93711762D01*
X165949013Y-93822205D01*
X166102549Y-93904272D01*
X166269145Y-93954808D01*
X166442399Y-93971872D01*
X167092401Y-93971872D01*
X167265655Y-93954808D01*
X167432251Y-93904272D01*
X167585787Y-93822205D01*
X167720362Y-93711762D01*
X167792400Y-93623984D01*
X167864438Y-93711762D01*
X167999013Y-93822205D01*
X168152549Y-93904272D01*
X168319145Y-93954808D01*
X168492399Y-93971872D01*
X169142401Y-93971872D01*
X169315655Y-93954808D01*
X169482251Y-93904272D01*
X169635787Y-93822205D01*
X169770362Y-93711762D01*
X169880805Y-93577187D01*
X169962872Y-93423651D01*
X169963615Y-93421200D01*
X170890637Y-93421200D01*
X170929300Y-93425008D01*
X170967963Y-93421200D01*
X170967973Y-93421200D01*
X171083657Y-93409806D01*
X171232083Y-93364782D01*
X171368872Y-93291666D01*
X171488769Y-93193269D01*
X171513428Y-93163223D01*
X173145058Y-91531593D01*
X173169015Y-91560785D01*
X173265706Y-91640137D01*
X173376020Y-91699102D01*
X173495718Y-91735412D01*
X173620200Y-91747672D01*
X174034450Y-91744600D01*
X174193200Y-91585850D01*
X174193200Y-90661600D01*
X174447200Y-90661600D01*
X174447200Y-91585850D01*
X174605950Y-91744600D01*
X175020200Y-91747672D01*
X175144682Y-91735412D01*
X175264380Y-91699102D01*
X175374694Y-91640137D01*
X175471385Y-91560785D01*
X175550737Y-91464094D01*
X175609702Y-91353780D01*
X175646012Y-91234082D01*
X175658272Y-91109600D01*
X175655200Y-90820350D01*
X175496450Y-90661600D01*
X174447200Y-90661600D01*
X174193200Y-90661600D01*
X174173200Y-90661600D01*
X174173200Y-90407600D01*
X174193200Y-90407600D01*
X174193200Y-90387600D01*
X174447200Y-90387600D01*
X174447200Y-90407600D01*
X175496450Y-90407600D01*
X175655200Y-90248850D01*
X175658272Y-89959600D01*
X175646012Y-89835118D01*
X175609702Y-89715420D01*
X175550737Y-89605106D01*
X175471385Y-89508415D01*
X175391606Y-89442942D01*
X175398162Y-89437562D01*
X175508605Y-89302987D01*
X175590672Y-89149451D01*
X175641208Y-88982855D01*
X175658272Y-88809601D01*
X175658272Y-88263889D01*
X175667069Y-88256669D01*
X175728498Y-88181818D01*
X175765466Y-88136773D01*
X175838582Y-87999983D01*
X175883606Y-87851557D01*
X175895000Y-87735873D01*
X175895000Y-87735865D01*
X175898808Y-87697200D01*
X175895000Y-87658535D01*
X175895000Y-85737358D01*
X176000482Y-85693666D01*
X176309218Y-85487375D01*
X176571775Y-85224818D01*
X176778066Y-84916082D01*
X176920161Y-84573034D01*
X176992600Y-84208856D01*
X176992600Y-83837544D01*
X176920161Y-83473366D01*
X176778066Y-83130318D01*
X176571775Y-82821582D01*
X176309218Y-82559025D01*
X176000482Y-82352734D01*
X175657434Y-82210639D01*
X175293256Y-82138200D01*
X174921944Y-82138200D01*
X174557766Y-82210639D01*
X174214718Y-82352734D01*
X173905982Y-82559025D01*
X173643425Y-82821582D01*
X173437134Y-83130318D01*
X173295039Y-83473366D01*
X173222600Y-83837544D01*
X173222600Y-84208856D01*
X173295039Y-84573034D01*
X173437134Y-84916082D01*
X173643425Y-85224818D01*
X173905982Y-85487375D01*
X174214718Y-85693666D01*
X174320200Y-85737358D01*
X174320201Y-87271528D01*
X173870199Y-87271528D01*
X173696945Y-87288592D01*
X173554310Y-87331860D01*
X173561072Y-87263200D01*
X173558000Y-86848950D01*
X173399250Y-86690200D01*
X172475000Y-86690200D01*
X172475000Y-87559150D01*
X172425400Y-87608750D01*
X172425400Y-88408000D01*
X172445400Y-88408000D01*
X172445400Y-88662000D01*
X172425400Y-88662000D01*
X172425400Y-89461250D01*
X172478786Y-89514636D01*
X172476582Y-89537010D01*
X172480390Y-89575673D01*
X172480390Y-89969158D01*
X172384506Y-90065042D01*
X172374212Y-89960518D01*
X172337902Y-89840820D01*
X172278937Y-89730506D01*
X172199585Y-89633815D01*
X172102894Y-89554463D01*
X172086793Y-89545857D01*
X172171400Y-89461250D01*
X172171400Y-88662000D01*
X172151400Y-88662000D01*
X172151400Y-88408000D01*
X172171400Y-88408000D01*
X172171400Y-87789050D01*
X172221000Y-87739450D01*
X172221000Y-86690200D01*
X172201000Y-86690200D01*
X172201000Y-86436200D01*
X172221000Y-86436200D01*
X172221000Y-85386950D01*
X172475000Y-85386950D01*
X172475000Y-86436200D01*
X173399250Y-86436200D01*
X173558000Y-86277450D01*
X173561072Y-85863200D01*
X173548812Y-85738718D01*
X173512502Y-85619020D01*
X173453537Y-85508706D01*
X173374185Y-85412015D01*
X173277494Y-85332663D01*
X173167180Y-85273698D01*
X173047482Y-85237388D01*
X172923000Y-85225128D01*
X172633750Y-85228200D01*
X172475000Y-85386950D01*
X172221000Y-85386950D01*
X172062250Y-85228200D01*
X171773000Y-85225128D01*
X171648518Y-85237388D01*
X171528820Y-85273698D01*
X171418506Y-85332663D01*
X171321815Y-85412015D01*
X171256342Y-85491794D01*
X171250962Y-85485238D01*
X171116387Y-85374795D01*
X170962851Y-85292728D01*
X170796255Y-85242192D01*
X170623001Y-85225128D01*
X169972999Y-85225128D01*
X169799745Y-85242192D01*
X169633149Y-85292728D01*
X169479613Y-85374795D01*
X169345038Y-85485238D01*
X169234595Y-85619813D01*
X169152528Y-85773349D01*
X169101992Y-85939945D01*
X169084928Y-86113199D01*
X169084928Y-87013201D01*
X169101992Y-87186455D01*
X169139045Y-87308604D01*
X168649250Y-87798400D01*
X168579674Y-87798400D01*
X168570537Y-87781306D01*
X168491185Y-87684615D01*
X168394494Y-87605263D01*
X168284180Y-87546298D01*
X168164482Y-87509988D01*
X168040000Y-87497728D01*
X167240000Y-87497728D01*
X167115518Y-87509988D01*
X166995820Y-87546298D01*
X166885506Y-87605263D01*
X166788815Y-87684615D01*
X166709463Y-87781306D01*
X166650498Y-87891620D01*
X166614188Y-88011318D01*
X166601928Y-88135800D01*
X166601928Y-88468200D01*
X166038104Y-88468200D01*
X166054684Y-88437182D01*
X166099529Y-88289345D01*
X166114672Y-88135600D01*
X166114672Y-87835600D01*
X166099529Y-87681855D01*
X166054684Y-87534018D01*
X165982870Y-87399664D01*
X166007137Y-87370094D01*
X166066102Y-87259780D01*
X166102412Y-87140082D01*
X166114672Y-87015600D01*
X166111600Y-87001350D01*
X165952850Y-86842600D01*
X164778600Y-86842600D01*
X164778600Y-86862600D01*
X164524600Y-86862600D01*
X164524600Y-86842600D01*
X164504600Y-86842600D01*
X164504600Y-86588600D01*
X164524600Y-86588600D01*
X164524600Y-85939350D01*
X164778600Y-85939350D01*
X164778600Y-86588600D01*
X165952850Y-86588600D01*
X166111600Y-86429850D01*
X166114672Y-86415600D01*
X166102412Y-86291118D01*
X166066102Y-86171420D01*
X166007137Y-86061106D01*
X165927785Y-85964415D01*
X165831094Y-85885063D01*
X165720780Y-85826098D01*
X165601082Y-85789788D01*
X165476600Y-85777528D01*
X164937350Y-85780600D01*
X164778600Y-85939350D01*
X164524600Y-85939350D01*
X164365850Y-85780600D01*
X163826600Y-85777528D01*
X163702118Y-85789788D01*
X163582420Y-85826098D01*
X163472106Y-85885063D01*
X163375415Y-85964415D01*
X163296063Y-86061106D01*
X163237098Y-86171420D01*
X163211234Y-86256683D01*
X161565928Y-84611378D01*
X161541269Y-84581331D01*
X161421372Y-84482934D01*
X161284583Y-84409818D01*
X161136157Y-84364794D01*
X161020473Y-84353400D01*
X161020463Y-84353400D01*
X160981800Y-84349592D01*
X160943137Y-84353400D01*
X159169662Y-84353400D01*
X159130999Y-84349592D01*
X159092336Y-84353400D01*
X159092327Y-84353400D01*
X158976643Y-84364794D01*
X158828217Y-84409818D01*
X158691428Y-84482934D01*
X158691426Y-84482935D01*
X158691427Y-84482935D01*
X158601569Y-84556679D01*
X158601567Y-84556681D01*
X158571531Y-84581331D01*
X158546881Y-84611367D01*
X153769250Y-89389000D01*
X153745861Y-89389000D01*
X153545902Y-89428774D01*
X153357544Y-89506795D01*
X153188026Y-89620063D01*
X153171489Y-89636600D01*
X152615072Y-89636600D01*
X152615072Y-89415199D01*
X152598008Y-89241945D01*
X152547472Y-89075349D01*
X152465405Y-88921813D01*
X152354962Y-88787238D01*
X152220387Y-88676795D01*
X152066851Y-88594728D01*
X151900255Y-88544192D01*
X151727001Y-88527128D01*
X151076999Y-88527128D01*
X150903745Y-88544192D01*
X150737149Y-88594728D01*
X150583613Y-88676795D01*
X150449038Y-88787238D01*
X150377000Y-88875016D01*
X150304962Y-88787238D01*
X150170387Y-88676795D01*
X150121400Y-88650611D01*
X150121400Y-86040968D01*
X150152387Y-86024405D01*
X150286962Y-85913962D01*
X150292342Y-85907406D01*
X150357815Y-85987185D01*
X150454506Y-86066537D01*
X150564820Y-86125502D01*
X150684518Y-86161812D01*
X150809000Y-86174072D01*
X151098250Y-86171000D01*
X151257000Y-86012250D01*
X151257000Y-84963000D01*
X151511000Y-84963000D01*
X151511000Y-86012250D01*
X151669750Y-86171000D01*
X151959000Y-86174072D01*
X152083482Y-86161812D01*
X152203180Y-86125502D01*
X152313494Y-86066537D01*
X152410185Y-85987185D01*
X152489537Y-85890494D01*
X152548502Y-85780180D01*
X152584812Y-85660482D01*
X152597072Y-85536000D01*
X152594000Y-85121750D01*
X152435250Y-84963000D01*
X151511000Y-84963000D01*
X151257000Y-84963000D01*
X151237000Y-84963000D01*
X151237000Y-84709000D01*
X151257000Y-84709000D01*
X151257000Y-83659750D01*
X151511000Y-83659750D01*
X151511000Y-84709000D01*
X152435250Y-84709000D01*
X152594000Y-84550250D01*
X152597072Y-84136000D01*
X152584812Y-84011518D01*
X152548502Y-83891820D01*
X152489537Y-83781506D01*
X152410185Y-83684815D01*
X152313494Y-83605463D01*
X152203180Y-83546498D01*
X152083482Y-83510188D01*
X151959000Y-83497928D01*
X151669750Y-83501000D01*
X151511000Y-83659750D01*
X151257000Y-83659750D01*
X151098250Y-83501000D01*
X150809000Y-83497928D01*
X150684518Y-83510188D01*
X150564820Y-83546498D01*
X150454506Y-83605463D01*
X150357815Y-83684815D01*
X150292342Y-83764594D01*
X150286962Y-83758038D01*
X150152387Y-83647595D01*
X149998851Y-83565528D01*
X149832255Y-83514992D01*
X149659001Y-83497928D01*
X149008999Y-83497928D01*
X148835745Y-83514992D01*
X148669149Y-83565528D01*
X148515613Y-83647595D01*
X148381038Y-83758038D01*
X148270595Y-83892613D01*
X148188528Y-84046149D01*
X148137992Y-84212745D01*
X148120928Y-84385999D01*
X144819552Y-84385999D01*
X146071433Y-83134119D01*
X146101469Y-83109469D01*
X146199866Y-82989572D01*
X146272982Y-82852783D01*
X146318006Y-82704357D01*
X146329400Y-82588673D01*
X146329400Y-82588664D01*
X146333208Y-82550001D01*
X146329400Y-82511338D01*
X146329400Y-75730662D01*
X146333208Y-75691999D01*
X146329400Y-75653336D01*
X146329400Y-75653327D01*
X146318006Y-75537643D01*
X146272982Y-75389217D01*
X146199866Y-75252428D01*
X146154375Y-75196997D01*
X146126121Y-75162569D01*
X146126119Y-75162567D01*
X146101469Y-75132531D01*
X146071434Y-75107882D01*
X143586128Y-72622578D01*
X143561469Y-72592531D01*
X143441572Y-72494134D01*
X143304783Y-72421018D01*
X143156357Y-72375994D01*
X143040673Y-72364600D01*
X143040663Y-72364600D01*
X143002000Y-72360792D01*
X142963337Y-72364600D01*
X135521215Y-72364600D01*
X135520472Y-72362149D01*
X135438405Y-72208613D01*
X135327962Y-72074038D01*
X135193387Y-71963595D01*
X135039851Y-71881528D01*
X134873255Y-71830992D01*
X134700001Y-71813928D01*
X134049999Y-71813928D01*
X133876745Y-71830992D01*
X133710149Y-71881528D01*
X133556613Y-71963595D01*
X133422038Y-72074038D01*
X133350000Y-72161816D01*
X133277962Y-72074038D01*
X133143387Y-71963595D01*
X132989851Y-71881528D01*
X132823255Y-71830992D01*
X132650001Y-71813928D01*
X131999999Y-71813928D01*
X131826745Y-71830992D01*
X131660149Y-71881528D01*
X131506613Y-71963595D01*
X131372038Y-72074038D01*
X131261595Y-72208613D01*
X131179528Y-72362149D01*
X131170473Y-72392000D01*
X119163325Y-72392000D01*
X119126000Y-72388324D01*
X119088675Y-72392000D01*
X119088667Y-72392000D01*
X118977014Y-72402997D01*
X118833753Y-72446454D01*
X118701724Y-72517026D01*
X118585999Y-72611999D01*
X118562201Y-72640997D01*
X115821003Y-75382196D01*
X115791999Y-75405999D01*
X115756150Y-75449682D01*
X115697026Y-75521724D01*
X115664877Y-75581871D01*
X115626454Y-75653754D01*
X115582997Y-75797015D01*
X115572000Y-75908668D01*
X115572000Y-75908678D01*
X115568324Y-75946000D01*
X115572000Y-75983323D01*
X115572001Y-77980000D01*
X109692105Y-77980000D01*
X109588012Y-77728698D01*
X109354363Y-77379017D01*
X109056983Y-77081637D01*
X108707302Y-76847988D01*
X108318756Y-76687047D01*
X107906279Y-76605000D01*
X107485721Y-76605000D01*
X107073244Y-76687047D01*
X106684698Y-76847988D01*
X106335017Y-77081637D01*
X106037637Y-77379017D01*
X105803988Y-77728698D01*
X105643047Y-78117244D01*
X105561000Y-78529721D01*
X105561000Y-78950279D01*
X105643047Y-79362756D01*
X105803988Y-79751302D01*
X106037637Y-80100983D01*
X106335017Y-80398363D01*
X106684698Y-80632012D01*
X107073244Y-80792953D01*
X107485721Y-80875000D01*
X107906279Y-80875000D01*
X108318756Y-80792953D01*
X108707302Y-80632012D01*
X109056983Y-80398363D01*
X109354363Y-80100983D01*
X109429588Y-79988400D01*
X123530928Y-79988400D01*
X123543188Y-80112882D01*
X123579498Y-80232580D01*
X123638463Y-80342894D01*
X123717815Y-80439585D01*
X123814506Y-80518937D01*
X123924820Y-80577902D01*
X124044518Y-80614212D01*
X124169000Y-80626472D01*
X124333250Y-80623400D01*
X124492000Y-80464650D01*
X124492000Y-79715400D01*
X124746000Y-79715400D01*
X124746000Y-80464650D01*
X124904750Y-80623400D01*
X125069000Y-80626472D01*
X125193482Y-80614212D01*
X125313180Y-80577902D01*
X125423494Y-80518937D01*
X125520185Y-80439585D01*
X125599537Y-80342894D01*
X125658502Y-80232580D01*
X125694812Y-80112882D01*
X125707072Y-79988400D01*
X125704000Y-79874150D01*
X125545250Y-79715400D01*
X124746000Y-79715400D01*
X124492000Y-79715400D01*
X123692750Y-79715400D01*
X123534000Y-79874150D01*
X123530928Y-79988400D01*
X109429588Y-79988400D01*
X109588012Y-79751302D01*
X109692105Y-79500000D01*
X116294667Y-79500000D01*
X116332000Y-79503677D01*
X116369333Y-79500000D01*
X116890386Y-79500000D01*
X116921595Y-79558387D01*
X117032038Y-79692962D01*
X117166613Y-79803405D01*
X117320149Y-79885472D01*
X117486745Y-79936008D01*
X117659999Y-79953072D01*
X118560001Y-79953072D01*
X118733255Y-79936008D01*
X118899851Y-79885472D01*
X119053387Y-79803405D01*
X119187962Y-79692962D01*
X119298405Y-79558387D01*
X119380472Y-79404851D01*
X119431008Y-79238255D01*
X119447579Y-79070000D01*
X120581928Y-79070000D01*
X120594188Y-79194482D01*
X120630498Y-79314180D01*
X120689463Y-79424494D01*
X120768815Y-79521185D01*
X120865506Y-79600537D01*
X120975820Y-79659502D01*
X121095518Y-79695812D01*
X121220000Y-79708072D01*
X121634250Y-79705000D01*
X121793000Y-79546250D01*
X121793000Y-78622000D01*
X122047000Y-78622000D01*
X122047000Y-79546250D01*
X122205750Y-79705000D01*
X122620000Y-79708072D01*
X122744482Y-79695812D01*
X122864180Y-79659502D01*
X122974494Y-79600537D01*
X123071185Y-79521185D01*
X123150537Y-79424494D01*
X123209502Y-79314180D01*
X123245812Y-79194482D01*
X123258072Y-79070000D01*
X123255000Y-78780750D01*
X123096250Y-78622000D01*
X122047000Y-78622000D01*
X121793000Y-78622000D01*
X120743750Y-78622000D01*
X120585000Y-78780750D01*
X120581928Y-79070000D01*
X119447579Y-79070000D01*
X119448072Y-79065001D01*
X119448072Y-78414999D01*
X119431008Y-78241745D01*
X119380472Y-78075149D01*
X119298405Y-77921613D01*
X119187962Y-77787038D01*
X119100184Y-77715000D01*
X119187962Y-77642962D01*
X119298405Y-77508387D01*
X119380472Y-77354851D01*
X119420468Y-77223000D01*
X120710008Y-77223000D01*
X120731595Y-77263387D01*
X120842038Y-77397962D01*
X120848594Y-77403342D01*
X120768815Y-77468815D01*
X120689463Y-77565506D01*
X120630498Y-77675820D01*
X120594188Y-77795518D01*
X120581928Y-77920000D01*
X120585000Y-78209250D01*
X120743750Y-78368000D01*
X121793000Y-78368000D01*
X121793000Y-78348000D01*
X122047000Y-78348000D01*
X122047000Y-78368000D01*
X123096250Y-78368000D01*
X123181724Y-78282526D01*
X123200205Y-78301008D01*
X123223999Y-78330001D01*
X123252992Y-78353795D01*
X123252996Y-78353799D01*
X123292669Y-78386357D01*
X123339724Y-78424974D01*
X123471753Y-78495546D01*
X123615014Y-78539003D01*
X123726667Y-78550000D01*
X123726676Y-78550000D01*
X123731028Y-78550429D01*
X123814506Y-78618937D01*
X123850918Y-78638400D01*
X123814506Y-78657863D01*
X123717815Y-78737215D01*
X123638463Y-78833906D01*
X123579498Y-78944220D01*
X123543188Y-79063918D01*
X123530928Y-79188400D01*
X123534000Y-79302650D01*
X123692750Y-79461400D01*
X124492000Y-79461400D01*
X124492000Y-79441400D01*
X124746000Y-79441400D01*
X124746000Y-79461400D01*
X125545250Y-79461400D01*
X125629857Y-79376793D01*
X125638463Y-79392894D01*
X125717815Y-79489585D01*
X125814506Y-79568937D01*
X125924820Y-79627902D01*
X126044518Y-79664212D01*
X126169000Y-79676472D01*
X127069000Y-79676472D01*
X127193482Y-79664212D01*
X127313180Y-79627902D01*
X127423494Y-79568937D01*
X127474107Y-79527400D01*
X131787337Y-79527400D01*
X131826000Y-79531208D01*
X131864663Y-79527400D01*
X131864673Y-79527400D01*
X131980357Y-79516006D01*
X132128783Y-79470982D01*
X132265572Y-79397866D01*
X132385469Y-79299469D01*
X132410128Y-79269422D01*
X133202682Y-78476868D01*
X133308166Y-78520561D01*
X133672344Y-78593000D01*
X134043656Y-78593000D01*
X134407834Y-78520561D01*
X134750882Y-78378466D01*
X135059618Y-78172175D01*
X135322175Y-77909618D01*
X135528466Y-77600882D01*
X135572158Y-77495400D01*
X139996139Y-77495400D01*
X139992928Y-77527999D01*
X139992928Y-78077520D01*
X136561850Y-81508600D01*
X133743215Y-81508600D01*
X133742472Y-81506149D01*
X133660405Y-81352613D01*
X133549962Y-81218038D01*
X133415387Y-81107595D01*
X133261851Y-81025528D01*
X133095255Y-80974992D01*
X132922001Y-80957928D01*
X132271999Y-80957928D01*
X132098745Y-80974992D01*
X131932149Y-81025528D01*
X131778613Y-81107595D01*
X131644038Y-81218038D01*
X131572000Y-81305816D01*
X131499962Y-81218038D01*
X131365387Y-81107595D01*
X131211851Y-81025528D01*
X131045255Y-80974992D01*
X130872001Y-80957928D01*
X130221999Y-80957928D01*
X130048745Y-80974992D01*
X129882149Y-81025528D01*
X129728613Y-81107595D01*
X129594038Y-81218038D01*
X129483595Y-81352613D01*
X129401528Y-81506149D01*
X129400785Y-81508600D01*
X117894662Y-81508600D01*
X117855999Y-81504792D01*
X117817336Y-81508600D01*
X117817327Y-81508600D01*
X117701643Y-81519994D01*
X117553217Y-81565018D01*
X117416428Y-81638134D01*
X117296531Y-81736531D01*
X117271878Y-81766571D01*
X116800577Y-82237873D01*
X116770531Y-82262531D01*
X116672134Y-82382429D01*
X116599018Y-82519218D01*
X116575247Y-82597582D01*
X116511613Y-82631595D01*
X116377038Y-82742038D01*
X116266595Y-82876613D01*
X116184528Y-83030149D01*
X116183785Y-83032600D01*
X109680755Y-83032600D01*
X109588012Y-82808698D01*
X109354363Y-82459017D01*
X109056983Y-82161637D01*
X108707302Y-81927988D01*
X108318756Y-81767047D01*
X107906279Y-81685000D01*
X107485721Y-81685000D01*
X107073244Y-81767047D01*
X106684698Y-81927988D01*
X106335017Y-82161637D01*
X106037637Y-82459017D01*
X105803988Y-82808698D01*
X105643047Y-83197244D01*
X105561000Y-83609721D01*
X105561000Y-84030279D01*
X105643047Y-84442756D01*
X105803988Y-84831302D01*
X106037637Y-85180983D01*
X106335017Y-85478363D01*
X106684698Y-85712012D01*
X107073244Y-85872953D01*
X107485721Y-85955000D01*
X107906279Y-85955000D01*
X108318756Y-85872953D01*
X108707302Y-85712012D01*
X109056983Y-85478363D01*
X109354363Y-85180983D01*
X109588012Y-84831302D01*
X109680755Y-84607400D01*
X116183785Y-84607400D01*
X116184528Y-84609851D01*
X116266595Y-84763387D01*
X116377038Y-84897962D01*
X116511613Y-85008405D01*
X116665149Y-85090472D01*
X116831745Y-85141008D01*
X117004999Y-85158072D01*
X117655001Y-85158072D01*
X117828255Y-85141008D01*
X117994851Y-85090472D01*
X118148387Y-85008405D01*
X118282962Y-84897962D01*
X118355000Y-84810184D01*
X118427038Y-84897962D01*
X118561613Y-85008405D01*
X118715149Y-85090472D01*
X118881745Y-85141008D01*
X119054999Y-85158072D01*
X119705001Y-85158072D01*
X119878255Y-85141008D01*
X120044851Y-85090472D01*
X120198387Y-85008405D01*
X120332962Y-84897962D01*
X120443405Y-84763387D01*
X120525472Y-84609851D01*
X120526215Y-84607400D01*
X123493850Y-84607400D01*
X123534449Y-84647999D01*
X122575317Y-85607132D01*
X122469834Y-85563439D01*
X122105656Y-85491000D01*
X121734344Y-85491000D01*
X121370166Y-85563439D01*
X121027118Y-85705534D01*
X120718382Y-85911825D01*
X120455825Y-86174382D01*
X120249534Y-86483118D01*
X120107439Y-86826166D01*
X120035000Y-87190344D01*
X120035000Y-87561656D01*
X120107439Y-87925834D01*
X120249534Y-88268882D01*
X120455825Y-88577618D01*
X120718382Y-88840175D01*
X121027118Y-89046466D01*
X121370166Y-89188561D01*
X121734344Y-89261000D01*
X122105656Y-89261000D01*
X122469834Y-89188561D01*
X122812882Y-89046466D01*
X123121618Y-88840175D01*
X123384175Y-88577618D01*
X123590466Y-88268882D01*
X123732561Y-87925834D01*
X123805000Y-87561656D01*
X123805000Y-87190344D01*
X123802267Y-87176600D01*
X123870528Y-87176600D01*
X123882788Y-87301082D01*
X123919098Y-87420780D01*
X123978063Y-87531094D01*
X124057415Y-87627785D01*
X124154106Y-87707137D01*
X124264420Y-87766102D01*
X124384118Y-87802412D01*
X124508600Y-87814672D01*
X124672850Y-87811600D01*
X124831600Y-87652850D01*
X124831600Y-86903600D01*
X125085600Y-86903600D01*
X125085600Y-87652850D01*
X125244350Y-87811600D01*
X125408600Y-87814672D01*
X125533082Y-87802412D01*
X125652780Y-87766102D01*
X125763094Y-87707137D01*
X125859785Y-87627785D01*
X125939137Y-87531094D01*
X125998102Y-87420780D01*
X126034412Y-87301082D01*
X126046672Y-87176600D01*
X126043600Y-87062350D01*
X125884850Y-86903600D01*
X125085600Y-86903600D01*
X124831600Y-86903600D01*
X124032350Y-86903600D01*
X123873600Y-87062350D01*
X123870528Y-87176600D01*
X123802267Y-87176600D01*
X123732561Y-86826166D01*
X123688868Y-86720683D01*
X123896151Y-86513401D01*
X124032350Y-86649600D01*
X124831600Y-86649600D01*
X124831600Y-86629600D01*
X125085600Y-86629600D01*
X125085600Y-86649600D01*
X125884850Y-86649600D01*
X125969457Y-86564993D01*
X125978063Y-86581094D01*
X126057415Y-86677785D01*
X126154106Y-86757137D01*
X126180600Y-86771299D01*
X126180601Y-94417327D01*
X126176792Y-94456000D01*
X126191995Y-94610357D01*
X126237018Y-94758782D01*
X126310135Y-94895572D01*
X126408532Y-95015469D01*
X126438573Y-95040123D01*
X128045449Y-96647000D01*
X103124000Y-96647000D01*
X103000118Y-96659201D01*
X102880996Y-96695336D01*
X102800627Y-96738294D01*
X102794325Y-93769721D01*
X105561000Y-93769721D01*
X105561000Y-94190279D01*
X105643047Y-94602756D01*
X105803988Y-94991302D01*
X106037637Y-95340983D01*
X106335017Y-95638363D01*
X106684698Y-95872012D01*
X107073244Y-96032953D01*
X107485721Y-96115000D01*
X107906279Y-96115000D01*
X108318756Y-96032953D01*
X108707302Y-95872012D01*
X109056983Y-95638363D01*
X109354363Y-95340983D01*
X109588012Y-94991302D01*
X109748953Y-94602756D01*
X109831000Y-94190279D01*
X109831000Y-93769721D01*
X109748953Y-93357244D01*
X109588012Y-92968698D01*
X109354363Y-92619017D01*
X109056983Y-92321637D01*
X108707302Y-92087988D01*
X108318756Y-91927047D01*
X107906279Y-91845000D01*
X107485721Y-91845000D01*
X107073244Y-91927047D01*
X106684698Y-92087988D01*
X106335017Y-92321637D01*
X106037637Y-92619017D01*
X105803988Y-92968698D01*
X105643047Y-93357244D01*
X105561000Y-93769721D01*
X102794325Y-93769721D01*
X102744941Y-70510000D01*
X105668448Y-70510000D01*
X103813773Y-72364677D01*
G37*
X103813773Y-72364677D02*
X103783732Y-72389331D01*
X103759079Y-72419371D01*
X103685335Y-72509228D01*
X103612218Y-72646018D01*
X103567195Y-72794443D01*
X103551992Y-72948800D01*
X103555801Y-72987473D01*
X103555800Y-85508537D01*
X103551992Y-85547200D01*
X103555800Y-85585863D01*
X103555800Y-85585872D01*
X103567194Y-85701556D01*
X103612218Y-85849982D01*
X103685334Y-85986771D01*
X103783731Y-86106669D01*
X103813778Y-86131328D01*
X105735790Y-88053342D01*
X105643047Y-88277244D01*
X105561000Y-88689721D01*
X105561000Y-89110279D01*
X105643047Y-89522756D01*
X105803988Y-89911302D01*
X106037637Y-90260983D01*
X106335017Y-90558363D01*
X106684698Y-90792012D01*
X107073244Y-90952953D01*
X107485721Y-91035000D01*
X107906279Y-91035000D01*
X108318756Y-90952953D01*
X108707302Y-90792012D01*
X109056983Y-90558363D01*
X109354363Y-90260983D01*
X109588012Y-89911302D01*
X109748953Y-89522756D01*
X109831000Y-89110279D01*
X109831000Y-88689721D01*
X109748953Y-88277244D01*
X109588012Y-87888698D01*
X109354363Y-87539017D01*
X109056983Y-87241637D01*
X108707302Y-87007988D01*
X108318756Y-86847047D01*
X107906279Y-86765000D01*
X107485721Y-86765000D01*
X107073244Y-86847047D01*
X106849342Y-86939790D01*
X105130600Y-85221050D01*
X105130600Y-75151653D01*
X106383952Y-75151653D01*
X106539962Y-75467214D01*
X106914745Y-75658020D01*
X107319551Y-75772044D01*
X107738824Y-75804902D01*
X108156451Y-75755334D01*
X108556383Y-75625243D01*
X108852038Y-75467214D01*
X109008048Y-75151653D01*
X107696000Y-73839605D01*
X106383952Y-75151653D01*
X105130600Y-75151653D01*
X105130600Y-73274950D01*
X105875508Y-72530043D01*
X105697980Y-72878745D01*
X105583956Y-73283551D01*
X105551098Y-73702824D01*
X105600666Y-74120451D01*
X105730757Y-74520383D01*
X105888786Y-74816038D01*
X106204347Y-74972048D01*
X107516395Y-73660000D01*
X107875605Y-73660000D01*
X109187653Y-74972048D01*
X109503214Y-74816038D01*
X109694020Y-74441255D01*
X109808044Y-74036449D01*
X109840902Y-73617176D01*
X109791334Y-73199549D01*
X109661243Y-72799617D01*
X109503214Y-72503962D01*
X109187653Y-72347952D01*
X107875605Y-73660000D01*
X107516395Y-73660000D01*
X107502253Y-73645858D01*
X107681858Y-73466253D01*
X107696000Y-73480395D01*
X109008048Y-72168347D01*
X108852038Y-71852786D01*
X108477255Y-71661980D01*
X108086096Y-71551800D01*
X148449437Y-71551800D01*
X148339238Y-71642238D01*
X148228795Y-71776813D01*
X148146728Y-71930349D01*
X148096192Y-72096945D01*
X148079128Y-72270199D01*
X148079128Y-73170201D01*
X148096192Y-73343455D01*
X148146728Y-73510051D01*
X148228795Y-73663587D01*
X148339238Y-73798162D01*
X148473813Y-73908605D01*
X148546601Y-73947511D01*
X148546600Y-77027032D01*
X148515613Y-77043595D01*
X148381038Y-77154038D01*
X148270595Y-77288613D01*
X148188528Y-77442149D01*
X148137992Y-77608745D01*
X148120928Y-77781999D01*
X148120928Y-78682001D01*
X148137992Y-78855255D01*
X148188528Y-79021851D01*
X148270595Y-79175387D01*
X148381038Y-79309962D01*
X148515613Y-79420405D01*
X148669149Y-79502472D01*
X148835745Y-79553008D01*
X149008999Y-79570072D01*
X149659001Y-79570072D01*
X149832255Y-79553008D01*
X149998851Y-79502472D01*
X150152387Y-79420405D01*
X150286962Y-79309962D01*
X150292342Y-79303406D01*
X150357815Y-79383185D01*
X150454506Y-79462537D01*
X150564820Y-79521502D01*
X150684518Y-79557812D01*
X150809000Y-79570072D01*
X151098250Y-79567000D01*
X151257000Y-79408250D01*
X151257000Y-78359000D01*
X151511000Y-78359000D01*
X151511000Y-79408250D01*
X151669750Y-79567000D01*
X151959000Y-79570072D01*
X152083482Y-79557812D01*
X152203180Y-79521502D01*
X152313494Y-79462537D01*
X152410185Y-79383185D01*
X152489537Y-79286494D01*
X152548502Y-79176180D01*
X152584812Y-79056482D01*
X152597072Y-78932000D01*
X152594000Y-78517750D01*
X152435250Y-78359000D01*
X151511000Y-78359000D01*
X151257000Y-78359000D01*
X151237000Y-78359000D01*
X151237000Y-78105000D01*
X151257000Y-78105000D01*
X151257000Y-77055750D01*
X151511000Y-77055750D01*
X151511000Y-78105000D01*
X152435250Y-78105000D01*
X152594000Y-77946250D01*
X152597072Y-77532000D01*
X152584812Y-77407518D01*
X152548502Y-77287820D01*
X152489537Y-77177506D01*
X152410185Y-77080815D01*
X152313494Y-77001463D01*
X152203180Y-76942498D01*
X152083482Y-76906188D01*
X151959000Y-76893928D01*
X151669750Y-76897000D01*
X151511000Y-77055750D01*
X151257000Y-77055750D01*
X151098250Y-76897000D01*
X150809000Y-76893928D01*
X150684518Y-76906188D01*
X150564820Y-76942498D01*
X150454506Y-77001463D01*
X150357815Y-77080815D01*
X150292342Y-77160594D01*
X150286962Y-77154038D01*
X150152387Y-77043595D01*
X150121400Y-77027032D01*
X150121400Y-73899731D01*
X150245162Y-73798162D01*
X150317200Y-73710384D01*
X150389238Y-73798162D01*
X150523813Y-73908605D01*
X150677349Y-73990672D01*
X150843945Y-74041208D01*
X151017199Y-74058272D01*
X151667201Y-74058272D01*
X151840455Y-74041208D01*
X152007051Y-73990672D01*
X152160587Y-73908605D01*
X152295162Y-73798162D01*
X152405605Y-73663587D01*
X152415968Y-73644199D01*
X156706249Y-73644199D01*
X159736016Y-76673968D01*
X159749271Y-76808545D01*
X159794116Y-76956382D01*
X159866942Y-77092629D01*
X159905654Y-77139800D01*
X159866942Y-77186971D01*
X159794116Y-77323218D01*
X159749271Y-77471055D01*
X159734128Y-77624800D01*
X159734128Y-77718120D01*
X157637322Y-79814928D01*
X157102835Y-79814928D01*
X157179451Y-79752051D01*
X157277458Y-79632629D01*
X157350284Y-79496382D01*
X157395129Y-79348545D01*
X157410272Y-79194800D01*
X157410272Y-78894800D01*
X157395129Y-78741055D01*
X157350284Y-78593218D01*
X157277458Y-78456971D01*
X157238746Y-78409800D01*
X157277458Y-78362629D01*
X157350284Y-78226382D01*
X157395129Y-78078545D01*
X157410272Y-77924800D01*
X157410272Y-77624800D01*
X157395129Y-77471055D01*
X157350284Y-77323218D01*
X157277458Y-77186971D01*
X157238746Y-77139800D01*
X157277458Y-77092629D01*
X157350284Y-76956382D01*
X157395129Y-76808545D01*
X157410272Y-76654800D01*
X157410272Y-76354800D01*
X157395129Y-76201055D01*
X157350284Y-76053218D01*
X157277458Y-75916971D01*
X157238746Y-75869800D01*
X157277458Y-75822629D01*
X157350284Y-75686382D01*
X157395129Y-75538545D01*
X157410272Y-75384800D01*
X157410272Y-75084800D01*
X157395129Y-74931055D01*
X157350284Y-74783218D01*
X157277458Y-74646971D01*
X157179451Y-74527549D01*
X157060029Y-74429542D01*
X156923782Y-74356716D01*
X156775945Y-74311871D01*
X156622200Y-74296728D01*
X156347484Y-74296728D01*
X156337886Y-74291598D01*
X156146370Y-74233502D01*
X155947200Y-74213885D01*
X155748029Y-74233502D01*
X155556513Y-74291598D01*
X155546915Y-74296728D01*
X155272200Y-74296728D01*
X155118455Y-74311871D01*
X154970618Y-74356716D01*
X154834371Y-74429542D01*
X154714949Y-74527549D01*
X154616942Y-74646971D01*
X154544116Y-74783218D01*
X154499271Y-74931055D01*
X154484128Y-75084800D01*
X154484128Y-75384800D01*
X154499271Y-75538545D01*
X154544116Y-75686382D01*
X154616942Y-75822629D01*
X154655654Y-75869800D01*
X154616942Y-75916971D01*
X154544116Y-76053218D01*
X154499271Y-76201055D01*
X154484128Y-76354800D01*
X154484128Y-76654800D01*
X154499271Y-76808545D01*
X154544116Y-76956382D01*
X154616942Y-77092629D01*
X154655654Y-77139800D01*
X154616942Y-77186971D01*
X154544116Y-77323218D01*
X154499271Y-77471055D01*
X154484128Y-77624800D01*
X154484128Y-77924800D01*
X154499271Y-78078545D01*
X154544116Y-78226382D01*
X154616942Y-78362629D01*
X154655654Y-78409800D01*
X154616942Y-78456971D01*
X154544116Y-78593218D01*
X154499271Y-78741055D01*
X154484128Y-78894800D01*
X154484128Y-79117787D01*
X154447720Y-79185902D01*
X154419599Y-79238513D01*
X154361502Y-79430030D01*
X154341885Y-79629200D01*
X154346801Y-79679111D01*
X154346801Y-80151849D01*
X154299395Y-80209613D01*
X154217328Y-80363149D01*
X154166792Y-80529745D01*
X154149728Y-80702999D01*
X154149728Y-81603001D01*
X154166792Y-81776255D01*
X154217328Y-81942851D01*
X154254201Y-82011835D01*
X154254200Y-83952740D01*
X154235200Y-84048261D01*
X154235200Y-84252139D01*
X154274974Y-84452098D01*
X154352995Y-84640456D01*
X154466263Y-84809974D01*
X154610426Y-84954137D01*
X154779944Y-85067405D01*
X154968302Y-85145426D01*
X155168261Y-85185200D01*
X155372139Y-85185200D01*
X155572098Y-85145426D01*
X155760456Y-85067405D01*
X155929974Y-84954137D01*
X156074137Y-84809974D01*
X156187405Y-84640456D01*
X156265426Y-84452098D01*
X156305200Y-84252139D01*
X156305200Y-84048261D01*
X156286200Y-83952741D01*
X156286200Y-82255223D01*
X156315762Y-82230962D01*
X156387800Y-82143184D01*
X156459838Y-82230962D01*
X156594413Y-82341405D01*
X156747949Y-82423472D01*
X156914545Y-82474008D01*
X157087799Y-82491072D01*
X157737801Y-82491072D01*
X157911055Y-82474008D01*
X158077651Y-82423472D01*
X158231187Y-82341405D01*
X158292691Y-82290930D01*
X158324415Y-82329585D01*
X158421106Y-82408937D01*
X158531420Y-82467902D01*
X158651118Y-82504212D01*
X158775600Y-82516472D01*
X159064850Y-82513400D01*
X159223600Y-82354650D01*
X159223600Y-81305400D01*
X159203600Y-81305400D01*
X159203600Y-81051400D01*
X159223600Y-81051400D01*
X159223600Y-81031400D01*
X159477600Y-81031400D01*
X159477600Y-81051400D01*
X159497600Y-81051400D01*
X159497600Y-81305400D01*
X159477600Y-81305400D01*
X159477600Y-82354650D01*
X159636350Y-82513400D01*
X159925600Y-82516472D01*
X160050082Y-82504212D01*
X160169780Y-82467902D01*
X160280094Y-82408937D01*
X160376785Y-82329585D01*
X160442258Y-82249806D01*
X160447638Y-82256362D01*
X160582213Y-82366805D01*
X160735749Y-82448872D01*
X160902345Y-82499408D01*
X161075599Y-82516472D01*
X161725601Y-82516472D01*
X161898855Y-82499408D01*
X162065451Y-82448872D01*
X162218987Y-82366805D01*
X162353562Y-82256362D01*
X162464005Y-82121787D01*
X162480928Y-82090126D01*
X162480928Y-82492001D01*
X162497992Y-82665255D01*
X162548528Y-82831851D01*
X162630595Y-82985387D01*
X162741038Y-83119962D01*
X162875613Y-83230405D01*
X163029149Y-83312472D01*
X163195745Y-83363008D01*
X163368999Y-83380072D01*
X164019001Y-83380072D01*
X164192255Y-83363008D01*
X164358851Y-83312472D01*
X164512387Y-83230405D01*
X164646962Y-83119962D01*
X164719000Y-83032184D01*
X164791038Y-83119962D01*
X164925613Y-83230405D01*
X165079149Y-83312472D01*
X165245745Y-83363008D01*
X165418999Y-83380072D01*
X166024002Y-83380072D01*
X166076217Y-83407982D01*
X166224643Y-83453006D01*
X166340327Y-83464400D01*
X166340335Y-83464400D01*
X166379000Y-83468208D01*
X166417665Y-83464400D01*
X166789442Y-83464400D01*
X166833134Y-83569882D01*
X167039425Y-83878618D01*
X167301982Y-84141175D01*
X167610718Y-84347466D01*
X167953766Y-84489561D01*
X168317944Y-84562000D01*
X168689256Y-84562000D01*
X169053434Y-84489561D01*
X169396482Y-84347466D01*
X169705218Y-84141175D01*
X169967775Y-83878618D01*
X170174066Y-83569882D01*
X170316161Y-83226834D01*
X170388600Y-82862656D01*
X170388600Y-82491344D01*
X170316161Y-82127166D01*
X170272468Y-82021683D01*
X170901716Y-81392435D01*
X170902945Y-81392808D01*
X171076199Y-81409872D01*
X171976201Y-81409872D01*
X172149455Y-81392808D01*
X172316051Y-81342272D01*
X172469587Y-81260205D01*
X172604162Y-81149762D01*
X172714605Y-81015187D01*
X172731168Y-80984200D01*
X179438650Y-80984200D01*
X181427791Y-82973341D01*
X181335047Y-83197244D01*
X181253000Y-83609721D01*
X181253000Y-84030279D01*
X181335047Y-84442756D01*
X181495988Y-84831302D01*
X181729637Y-85180983D01*
X182027017Y-85478363D01*
X182376698Y-85712012D01*
X182765244Y-85872953D01*
X183177721Y-85955000D01*
X183598279Y-85955000D01*
X184010756Y-85872953D01*
X184399302Y-85712012D01*
X184748983Y-85478363D01*
X185046363Y-85180983D01*
X185280012Y-84831302D01*
X185440953Y-84442756D01*
X185523000Y-84030279D01*
X185523000Y-83609721D01*
X185440953Y-83197244D01*
X185280012Y-82808698D01*
X185046363Y-82459017D01*
X184748983Y-82161637D01*
X184399302Y-81927988D01*
X184010756Y-81767047D01*
X183598279Y-81685000D01*
X183177721Y-81685000D01*
X182765244Y-81767047D01*
X182541341Y-81859791D01*
X180298518Y-79616968D01*
X180273868Y-79586932D01*
X180243832Y-79562282D01*
X180243829Y-79562279D01*
X180153972Y-79488535D01*
X180017182Y-79415418D01*
X179868757Y-79370395D01*
X179714400Y-79355192D01*
X179714399Y-79355192D01*
X179637602Y-79362756D01*
X179560043Y-79370395D01*
X179431457Y-79409400D01*
X172731168Y-79409400D01*
X172714605Y-79378413D01*
X172604162Y-79243838D01*
X172597606Y-79238458D01*
X172677385Y-79172985D01*
X172756737Y-79076294D01*
X172815702Y-78965980D01*
X172852012Y-78846282D01*
X172864272Y-78721800D01*
X172862233Y-78529721D01*
X181253000Y-78529721D01*
X181253000Y-78950279D01*
X181335047Y-79362756D01*
X181495988Y-79751302D01*
X181729637Y-80100983D01*
X182027017Y-80398363D01*
X182376698Y-80632012D01*
X182765244Y-80792953D01*
X183177721Y-80875000D01*
X183598279Y-80875000D01*
X184010756Y-80792953D01*
X184399302Y-80632012D01*
X184748983Y-80398363D01*
X185046363Y-80100983D01*
X185280012Y-79751302D01*
X185440953Y-79362756D01*
X185523000Y-78950279D01*
X185523000Y-78529721D01*
X185440953Y-78117244D01*
X185280012Y-77728698D01*
X185046363Y-77379017D01*
X184748983Y-77081637D01*
X184399302Y-76847988D01*
X184010756Y-76687047D01*
X183598279Y-76605000D01*
X183177721Y-76605000D01*
X182765244Y-76687047D01*
X182376698Y-76847988D01*
X182027017Y-77081637D01*
X181729637Y-77379017D01*
X181495988Y-77728698D01*
X181335047Y-78117244D01*
X181253000Y-78529721D01*
X172862233Y-78529721D01*
X172861200Y-78432550D01*
X172702450Y-78273800D01*
X171653200Y-78273800D01*
X171653200Y-78293800D01*
X171399200Y-78293800D01*
X171399200Y-78273800D01*
X170349950Y-78273800D01*
X170327400Y-78296350D01*
X170304450Y-78273400D01*
X169555200Y-78273400D01*
X169555200Y-79072650D01*
X169713950Y-79231400D01*
X169828200Y-79234472D01*
X169952682Y-79222212D01*
X170072380Y-79185902D01*
X170182694Y-79126937D01*
X170279385Y-79047585D01*
X170279950Y-79046897D01*
X170295663Y-79076294D01*
X170375015Y-79172985D01*
X170454794Y-79238458D01*
X170448238Y-79243838D01*
X170337795Y-79378413D01*
X170255728Y-79531949D01*
X170205192Y-79698545D01*
X170188128Y-79871799D01*
X170188128Y-79878920D01*
X169592766Y-80474283D01*
X169606182Y-80449183D01*
X169651206Y-80300757D01*
X169666409Y-80146400D01*
X169651206Y-79992043D01*
X169606182Y-79843617D01*
X169533066Y-79706828D01*
X169515149Y-79684996D01*
X169504012Y-79571918D01*
X169467702Y-79452220D01*
X169408737Y-79341906D01*
X169329385Y-79245215D01*
X169232694Y-79165863D01*
X169216593Y-79157257D01*
X169301200Y-79072650D01*
X169301200Y-78273400D01*
X169281200Y-78273400D01*
X169281200Y-78019400D01*
X169301200Y-78019400D01*
X169301200Y-77220150D01*
X169555200Y-77220150D01*
X169555200Y-78019400D01*
X170304450Y-78019400D01*
X170327000Y-77996850D01*
X170349950Y-78019800D01*
X171399200Y-78019800D01*
X171399200Y-77095550D01*
X171653200Y-77095550D01*
X171653200Y-78019800D01*
X172702450Y-78019800D01*
X172861200Y-77861050D01*
X172864272Y-77571800D01*
X172852012Y-77447318D01*
X172815702Y-77327620D01*
X172756737Y-77217306D01*
X172677385Y-77120615D01*
X172580694Y-77041263D01*
X172470380Y-76982298D01*
X172350682Y-76945988D01*
X172226200Y-76933728D01*
X171811950Y-76936800D01*
X171653200Y-77095550D01*
X171399200Y-77095550D01*
X171240450Y-76936800D01*
X170826200Y-76933728D01*
X170701718Y-76945988D01*
X170582020Y-76982298D01*
X170471706Y-77041263D01*
X170375015Y-77120615D01*
X170295663Y-77217306D01*
X170280209Y-77246219D01*
X170279385Y-77245215D01*
X170182694Y-77165863D01*
X170072380Y-77106898D01*
X169952682Y-77070588D01*
X169828200Y-77058328D01*
X169713950Y-77061400D01*
X169555200Y-77220150D01*
X169301200Y-77220150D01*
X169142450Y-77061400D01*
X169028200Y-77058328D01*
X168903718Y-77070588D01*
X168784020Y-77106898D01*
X168673706Y-77165863D01*
X168577015Y-77245215D01*
X168497663Y-77341906D01*
X168478200Y-77378318D01*
X168458737Y-77341906D01*
X168379385Y-77245215D01*
X168282694Y-77165863D01*
X168172380Y-77106898D01*
X168052682Y-77070588D01*
X167928200Y-77058328D01*
X167128200Y-77058328D01*
X167003718Y-77070588D01*
X166884020Y-77106898D01*
X166773706Y-77165863D01*
X166677015Y-77245215D01*
X166597663Y-77341906D01*
X166538698Y-77452220D01*
X166502388Y-77571918D01*
X166490128Y-77696400D01*
X166490128Y-78346300D01*
X165731672Y-78346300D01*
X165731672Y-78282079D01*
X166179228Y-77834523D01*
X166209269Y-77809869D01*
X166307666Y-77689972D01*
X166380782Y-77553183D01*
X166425806Y-77404757D01*
X166437200Y-77289073D01*
X166437200Y-77289064D01*
X166441008Y-77250401D01*
X166437200Y-77211738D01*
X166437200Y-75830168D01*
X166468187Y-75813605D01*
X166602762Y-75703162D01*
X166608142Y-75696606D01*
X166673615Y-75776385D01*
X166770306Y-75855737D01*
X166880620Y-75914702D01*
X167000318Y-75951012D01*
X167124800Y-75963272D01*
X167414050Y-75960200D01*
X167572800Y-75801450D01*
X167572800Y-74752200D01*
X167826800Y-74752200D01*
X167826800Y-75801450D01*
X167985550Y-75960200D01*
X168274800Y-75963272D01*
X168399282Y-75951012D01*
X168518980Y-75914702D01*
X168629294Y-75855737D01*
X168725985Y-75776385D01*
X168805337Y-75679694D01*
X168864302Y-75569380D01*
X168900612Y-75449682D01*
X168912872Y-75325200D01*
X168911586Y-75151653D01*
X182075952Y-75151653D01*
X182231962Y-75467214D01*
X182606745Y-75658020D01*
X183011551Y-75772044D01*
X183430824Y-75804902D01*
X183848451Y-75755334D01*
X184248383Y-75625243D01*
X184544038Y-75467214D01*
X184700048Y-75151653D01*
X183388000Y-73839605D01*
X182075952Y-75151653D01*
X168911586Y-75151653D01*
X168909800Y-74910950D01*
X168751050Y-74752200D01*
X167826800Y-74752200D01*
X167572800Y-74752200D01*
X167552800Y-74752200D01*
X167552800Y-74498200D01*
X167572800Y-74498200D01*
X167572800Y-73448950D01*
X167826800Y-73448950D01*
X167826800Y-74498200D01*
X168751050Y-74498200D01*
X168909800Y-74339450D01*
X168912872Y-73925200D01*
X168900612Y-73800718D01*
X168870917Y-73702824D01*
X181243098Y-73702824D01*
X181292666Y-74120451D01*
X181422757Y-74520383D01*
X181580786Y-74816038D01*
X181896347Y-74972048D01*
X183208395Y-73660000D01*
X183567605Y-73660000D01*
X184879653Y-74972048D01*
X185195214Y-74816038D01*
X185386020Y-74441255D01*
X185500044Y-74036449D01*
X185532902Y-73617176D01*
X185483334Y-73199549D01*
X185353243Y-72799617D01*
X185195214Y-72503962D01*
X184879653Y-72347952D01*
X183567605Y-73660000D01*
X183208395Y-73660000D01*
X181896347Y-72347952D01*
X181580786Y-72503962D01*
X181389980Y-72878745D01*
X181275956Y-73283551D01*
X181243098Y-73702824D01*
X168870917Y-73702824D01*
X168864302Y-73681020D01*
X168805337Y-73570706D01*
X168725985Y-73474015D01*
X168629294Y-73394663D01*
X168518980Y-73335698D01*
X168399282Y-73299388D01*
X168274800Y-73287128D01*
X167985550Y-73290200D01*
X167826800Y-73448950D01*
X167572800Y-73448950D01*
X167414050Y-73290200D01*
X167124800Y-73287128D01*
X167000318Y-73299388D01*
X166880620Y-73335698D01*
X166770306Y-73394663D01*
X166673615Y-73474015D01*
X166608142Y-73553794D01*
X166602762Y-73547238D01*
X166468187Y-73436795D01*
X166314651Y-73354728D01*
X166148055Y-73304192D01*
X165974801Y-73287128D01*
X165324799Y-73287128D01*
X165151545Y-73304192D01*
X164984949Y-73354728D01*
X164831413Y-73436795D01*
X164696838Y-73547238D01*
X164586395Y-73681813D01*
X164504328Y-73835349D01*
X164453792Y-74001945D01*
X164436728Y-74175199D01*
X164436728Y-75075201D01*
X164453792Y-75248455D01*
X164504328Y-75415051D01*
X164586395Y-75568587D01*
X164696838Y-75703162D01*
X164831413Y-75813605D01*
X164862400Y-75830168D01*
X164862401Y-76924248D01*
X164668121Y-77118528D01*
X164293600Y-77118528D01*
X164169118Y-77130788D01*
X164049420Y-77167098D01*
X163939106Y-77226063D01*
X163842415Y-77305415D01*
X163763063Y-77402106D01*
X163753926Y-77419200D01*
X162629399Y-77419200D01*
X162600284Y-77323218D01*
X162527458Y-77186971D01*
X162488746Y-77139800D01*
X162527458Y-77092629D01*
X162600284Y-76956382D01*
X162645129Y-76808545D01*
X162660272Y-76654800D01*
X162660272Y-76354800D01*
X162645129Y-76201055D01*
X162600284Y-76053218D01*
X162528470Y-75918864D01*
X162552737Y-75889294D01*
X162611702Y-75778980D01*
X162648012Y-75659282D01*
X162660272Y-75534800D01*
X162657200Y-75520550D01*
X162498450Y-75361800D01*
X161324200Y-75361800D01*
X161324200Y-75381800D01*
X161070200Y-75381800D01*
X161070200Y-75361800D01*
X161050200Y-75361800D01*
X161050200Y-75107800D01*
X161070200Y-75107800D01*
X161070200Y-74458550D01*
X161324200Y-74458550D01*
X161324200Y-75107800D01*
X162498450Y-75107800D01*
X162657200Y-74949050D01*
X162660272Y-74934800D01*
X162648012Y-74810318D01*
X162611702Y-74690620D01*
X162552737Y-74580306D01*
X162473385Y-74483615D01*
X162376694Y-74404263D01*
X162266380Y-74345298D01*
X162146682Y-74308988D01*
X162022200Y-74296728D01*
X161482950Y-74299800D01*
X161324200Y-74458550D01*
X161070200Y-74458550D01*
X160911450Y-74299800D01*
X160372200Y-74296728D01*
X160247718Y-74308988D01*
X160128020Y-74345298D01*
X160017706Y-74404263D01*
X159921015Y-74483615D01*
X159854191Y-74565040D01*
X157616527Y-72327377D01*
X157591868Y-72297330D01*
X157471971Y-72198933D01*
X157414750Y-72168347D01*
X182075952Y-72168347D01*
X183388000Y-73480395D01*
X184700048Y-72168347D01*
X184544038Y-71852786D01*
X184169255Y-71661980D01*
X183764449Y-71547956D01*
X183345176Y-71515098D01*
X182927549Y-71564666D01*
X182527617Y-71694757D01*
X182231962Y-71852786D01*
X182075952Y-72168347D01*
X157414750Y-72168347D01*
X157335182Y-72125817D01*
X157186756Y-72080793D01*
X157071072Y-72069399D01*
X157071062Y-72069399D01*
X157032399Y-72065591D01*
X156993736Y-72069399D01*
X152529852Y-72069399D01*
X152487672Y-71930349D01*
X152405605Y-71776813D01*
X152295162Y-71642238D01*
X152160587Y-71531795D01*
X152007051Y-71449728D01*
X151840455Y-71399192D01*
X151667201Y-71382128D01*
X151117679Y-71382128D01*
X150245550Y-70510000D01*
X188240001Y-70510000D01*
X188240000Y-96940470D01*
X188233983Y-96929213D01*
X188155013Y-96832987D01*
X188058787Y-96754017D01*
X187949004Y-96695336D01*
X187829882Y-96659201D01*
X187706000Y-96647000D01*
X185644550Y-96647000D01*
X187219429Y-95072122D01*
X187249469Y-95047469D01*
X187300384Y-94985429D01*
X187347866Y-94927573D01*
X187420982Y-94790783D01*
X187450765Y-94692599D01*
X187466006Y-94642357D01*
X187477400Y-94526673D01*
X187477400Y-94526663D01*
X187481208Y-94488000D01*
X187477400Y-94449337D01*
X187477400Y-91478662D01*
X187481208Y-91439999D01*
X187477400Y-91401336D01*
X187477400Y-91401327D01*
X187466006Y-91285643D01*
X187420982Y-91137217D01*
X187347866Y-91000428D01*
X187278814Y-90916288D01*
X187274121Y-90910569D01*
X187274119Y-90910567D01*
X187249469Y-90880531D01*
X187219433Y-90855881D01*
X185514842Y-89151291D01*
X185523000Y-89110279D01*
X185523000Y-88689721D01*
X185440953Y-88277244D01*
X185280012Y-87888698D01*
X185046363Y-87539017D01*
X184748983Y-87241637D01*
X184399302Y-87007988D01*
X184010756Y-86847047D01*
X183598279Y-86765000D01*
X183177721Y-86765000D01*
X182765244Y-86847047D01*
X182376698Y-87007988D01*
X182027017Y-87241637D01*
X181729637Y-87539017D01*
X181495988Y-87888698D01*
X181335047Y-88277244D01*
X181253000Y-88689721D01*
X181253000Y-89110279D01*
X181335047Y-89522756D01*
X181495988Y-89911302D01*
X181729637Y-90260983D01*
X182027017Y-90558363D01*
X182376698Y-90792012D01*
X182765244Y-90952953D01*
X183177721Y-91035000D01*
X183598279Y-91035000D01*
X184010756Y-90952953D01*
X184399302Y-90792012D01*
X184716510Y-90580061D01*
X185902601Y-91766153D01*
X185902600Y-94161849D01*
X185426287Y-94638162D01*
X185440953Y-94602756D01*
X185523000Y-94190279D01*
X185523000Y-93769721D01*
X185440953Y-93357244D01*
X185280012Y-92968698D01*
X185046363Y-92619017D01*
X184748983Y-92321637D01*
X184399302Y-92087988D01*
X184010756Y-91927047D01*
X183598279Y-91845000D01*
X183177721Y-91845000D01*
X182765244Y-91927047D01*
X182376698Y-92087988D01*
X182027017Y-92321637D01*
X181729637Y-92619017D01*
X181495988Y-92968698D01*
X181335047Y-93357244D01*
X181253000Y-93769721D01*
X181253000Y-94190279D01*
X181335047Y-94602756D01*
X181372261Y-94692599D01*
X151711551Y-94692599D01*
X143193022Y-86174072D01*
X143581001Y-86174072D01*
X143754255Y-86157008D01*
X143920851Y-86106472D01*
X144074387Y-86024405D01*
X144208962Y-85913962D01*
X144319405Y-85779387D01*
X144401472Y-85625851D01*
X144452008Y-85459255D01*
X144469072Y-85286001D01*
X144469072Y-84736479D01*
X144819552Y-84385999D01*
X148120928Y-84385999D01*
X148120928Y-85286001D01*
X148137992Y-85459255D01*
X148188528Y-85625851D01*
X148270595Y-85779387D01*
X148381038Y-85913962D01*
X148515613Y-86024405D01*
X148546600Y-86040968D01*
X148546601Y-88669853D01*
X148533613Y-88676795D01*
X148399038Y-88787238D01*
X148288595Y-88921813D01*
X148206528Y-89075349D01*
X148155992Y-89241945D01*
X148138928Y-89415199D01*
X148138928Y-90315201D01*
X148155992Y-90488455D01*
X148206528Y-90655051D01*
X148288595Y-90808587D01*
X148399038Y-90943162D01*
X148533613Y-91053605D01*
X148687149Y-91135672D01*
X148853745Y-91186208D01*
X149026999Y-91203272D01*
X149677001Y-91203272D01*
X149850255Y-91186208D01*
X150016851Y-91135672D01*
X150170387Y-91053605D01*
X150304962Y-90943162D01*
X150377000Y-90855384D01*
X150449038Y-90943162D01*
X150583613Y-91053605D01*
X150737149Y-91135672D01*
X150903745Y-91186208D01*
X151076999Y-91203272D01*
X151727001Y-91203272D01*
X151795099Y-91196565D01*
X151806443Y-91200006D01*
X151922127Y-91211400D01*
X151922135Y-91211400D01*
X151960800Y-91215208D01*
X151999465Y-91211400D01*
X153171489Y-91211400D01*
X153188026Y-91227937D01*
X153357544Y-91341205D01*
X153545902Y-91419226D01*
X153745861Y-91459000D01*
X153949739Y-91459000D01*
X154149698Y-91419226D01*
X154338056Y-91341205D01*
X154507574Y-91227937D01*
X154651737Y-91083774D01*
X154765005Y-90914256D01*
X154843026Y-90725898D01*
X154882800Y-90525939D01*
X154882800Y-90502550D01*
X157832259Y-87553092D01*
X157873999Y-87690687D01*
X157940540Y-87815176D01*
X157938528Y-87835600D01*
X157938528Y-88135600D01*
X157953671Y-88289345D01*
X157998516Y-88437182D01*
X158071342Y-88573429D01*
X158110054Y-88620600D01*
X158071342Y-88667771D01*
X157998516Y-88804018D01*
X157953671Y-88951855D01*
X157938528Y-89105600D01*
X157938528Y-89405600D01*
X157953671Y-89559345D01*
X157998516Y-89707182D01*
X158071342Y-89843429D01*
X158110054Y-89890600D01*
X158071342Y-89937771D01*
X157998516Y-90074018D01*
X157953671Y-90221855D01*
X157938528Y-90375600D01*
X157938528Y-90598587D01*
X157897364Y-90675600D01*
X157873999Y-90719313D01*
X157815902Y-90910830D01*
X157796285Y-91110000D01*
X157801201Y-91159911D01*
X157801201Y-91531049D01*
X157753795Y-91588813D01*
X157751878Y-91592400D01*
X156432859Y-91592400D01*
X156337339Y-91573400D01*
X156133461Y-91573400D01*
X155933502Y-91613174D01*
X155745144Y-91691195D01*
X155575626Y-91804463D01*
X155431463Y-91948626D01*
X155318195Y-92118144D01*
X155240174Y-92306502D01*
X155200400Y-92506461D01*
X155200400Y-92710339D01*
X155240174Y-92910298D01*
X155318195Y-93098656D01*
X155431463Y-93268174D01*
X155575626Y-93412337D01*
X155745144Y-93525605D01*
X155933502Y-93603626D01*
X156133461Y-93643400D01*
X156337339Y-93643400D01*
X156432859Y-93624400D01*
X157881587Y-93624400D01*
X157998813Y-93720605D01*
X158152349Y-93802672D01*
X158318945Y-93853208D01*
X158492199Y-93870272D01*
X159142201Y-93870272D01*
X159315455Y-93853208D01*
X159482051Y-93802672D01*
X159635587Y-93720605D01*
X159770162Y-93610162D01*
X159842200Y-93522384D01*
X159914238Y-93610162D01*
X160048813Y-93720605D01*
X160202349Y-93802672D01*
X160368945Y-93853208D01*
X160542199Y-93870272D01*
X161192201Y-93870272D01*
X161365455Y-93853208D01*
X161532051Y-93802672D01*
X161685587Y-93720605D01*
X161732252Y-93682308D01*
X161799306Y-93737337D01*
X161909620Y-93796302D01*
X162029318Y-93832612D01*
X162153800Y-93844872D01*
X162443050Y-93841800D01*
X162601800Y-93683050D01*
X162601800Y-92633800D01*
X162581800Y-92633800D01*
X162581800Y-92379800D01*
X162601800Y-92379800D01*
X162601800Y-92359800D01*
X162855800Y-92359800D01*
X162855800Y-92379800D01*
X162875800Y-92379800D01*
X162875800Y-92633800D01*
X162855800Y-92633800D01*
X162855800Y-93683050D01*
X163014550Y-93841800D01*
X163303800Y-93844872D01*
X163428282Y-93832612D01*
X163547980Y-93796302D01*
X163658294Y-93737337D01*
X163754985Y-93657985D01*
X163820458Y-93578206D01*
X163825838Y-93584762D01*
X163960413Y-93695205D01*
X164113949Y-93777272D01*
X164280545Y-93827808D01*
X164453799Y-93844872D01*
X165103801Y-93844872D01*
X165277055Y-93827808D01*
X165443651Y-93777272D01*
X165597187Y-93695205D01*
X165718885Y-93595330D01*
X165814438Y-93711762D01*
X165949013Y-93822205D01*
X166102549Y-93904272D01*
X166269145Y-93954808D01*
X166442399Y-93971872D01*
X167092401Y-93971872D01*
X167265655Y-93954808D01*
X167432251Y-93904272D01*
X167585787Y-93822205D01*
X167720362Y-93711762D01*
X167792400Y-93623984D01*
X167864438Y-93711762D01*
X167999013Y-93822205D01*
X168152549Y-93904272D01*
X168319145Y-93954808D01*
X168492399Y-93971872D01*
X169142401Y-93971872D01*
X169315655Y-93954808D01*
X169482251Y-93904272D01*
X169635787Y-93822205D01*
X169770362Y-93711762D01*
X169880805Y-93577187D01*
X169962872Y-93423651D01*
X169963615Y-93421200D01*
X170890637Y-93421200D01*
X170929300Y-93425008D01*
X170967963Y-93421200D01*
X170967973Y-93421200D01*
X171083657Y-93409806D01*
X171232083Y-93364782D01*
X171368872Y-93291666D01*
X171488769Y-93193269D01*
X171513428Y-93163223D01*
X173145058Y-91531593D01*
X173169015Y-91560785D01*
X173265706Y-91640137D01*
X173376020Y-91699102D01*
X173495718Y-91735412D01*
X173620200Y-91747672D01*
X174034450Y-91744600D01*
X174193200Y-91585850D01*
X174193200Y-90661600D01*
X174447200Y-90661600D01*
X174447200Y-91585850D01*
X174605950Y-91744600D01*
X175020200Y-91747672D01*
X175144682Y-91735412D01*
X175264380Y-91699102D01*
X175374694Y-91640137D01*
X175471385Y-91560785D01*
X175550737Y-91464094D01*
X175609702Y-91353780D01*
X175646012Y-91234082D01*
X175658272Y-91109600D01*
X175655200Y-90820350D01*
X175496450Y-90661600D01*
X174447200Y-90661600D01*
X174193200Y-90661600D01*
X174173200Y-90661600D01*
X174173200Y-90407600D01*
X174193200Y-90407600D01*
X174193200Y-90387600D01*
X174447200Y-90387600D01*
X174447200Y-90407600D01*
X175496450Y-90407600D01*
X175655200Y-90248850D01*
X175658272Y-89959600D01*
X175646012Y-89835118D01*
X175609702Y-89715420D01*
X175550737Y-89605106D01*
X175471385Y-89508415D01*
X175391606Y-89442942D01*
X175398162Y-89437562D01*
X175508605Y-89302987D01*
X175590672Y-89149451D01*
X175641208Y-88982855D01*
X175658272Y-88809601D01*
X175658272Y-88263889D01*
X175667069Y-88256669D01*
X175728498Y-88181818D01*
X175765466Y-88136773D01*
X175838582Y-87999983D01*
X175883606Y-87851557D01*
X175895000Y-87735873D01*
X175895000Y-87735865D01*
X175898808Y-87697200D01*
X175895000Y-87658535D01*
X175895000Y-85737358D01*
X176000482Y-85693666D01*
X176309218Y-85487375D01*
X176571775Y-85224818D01*
X176778066Y-84916082D01*
X176920161Y-84573034D01*
X176992600Y-84208856D01*
X176992600Y-83837544D01*
X176920161Y-83473366D01*
X176778066Y-83130318D01*
X176571775Y-82821582D01*
X176309218Y-82559025D01*
X176000482Y-82352734D01*
X175657434Y-82210639D01*
X175293256Y-82138200D01*
X174921944Y-82138200D01*
X174557766Y-82210639D01*
X174214718Y-82352734D01*
X173905982Y-82559025D01*
X173643425Y-82821582D01*
X173437134Y-83130318D01*
X173295039Y-83473366D01*
X173222600Y-83837544D01*
X173222600Y-84208856D01*
X173295039Y-84573034D01*
X173437134Y-84916082D01*
X173643425Y-85224818D01*
X173905982Y-85487375D01*
X174214718Y-85693666D01*
X174320200Y-85737358D01*
X174320201Y-87271528D01*
X173870199Y-87271528D01*
X173696945Y-87288592D01*
X173554310Y-87331860D01*
X173561072Y-87263200D01*
X173558000Y-86848950D01*
X173399250Y-86690200D01*
X172475000Y-86690200D01*
X172475000Y-87559150D01*
X172425400Y-87608750D01*
X172425400Y-88408000D01*
X172445400Y-88408000D01*
X172445400Y-88662000D01*
X172425400Y-88662000D01*
X172425400Y-89461250D01*
X172478786Y-89514636D01*
X172476582Y-89537010D01*
X172480390Y-89575673D01*
X172480390Y-89969158D01*
X172384506Y-90065042D01*
X172374212Y-89960518D01*
X172337902Y-89840820D01*
X172278937Y-89730506D01*
X172199585Y-89633815D01*
X172102894Y-89554463D01*
X172086793Y-89545857D01*
X172171400Y-89461250D01*
X172171400Y-88662000D01*
X172151400Y-88662000D01*
X172151400Y-88408000D01*
X172171400Y-88408000D01*
X172171400Y-87789050D01*
X172221000Y-87739450D01*
X172221000Y-86690200D01*
X172201000Y-86690200D01*
X172201000Y-86436200D01*
X172221000Y-86436200D01*
X172221000Y-85386950D01*
X172475000Y-85386950D01*
X172475000Y-86436200D01*
X173399250Y-86436200D01*
X173558000Y-86277450D01*
X173561072Y-85863200D01*
X173548812Y-85738718D01*
X173512502Y-85619020D01*
X173453537Y-85508706D01*
X173374185Y-85412015D01*
X173277494Y-85332663D01*
X173167180Y-85273698D01*
X173047482Y-85237388D01*
X172923000Y-85225128D01*
X172633750Y-85228200D01*
X172475000Y-85386950D01*
X172221000Y-85386950D01*
X172062250Y-85228200D01*
X171773000Y-85225128D01*
X171648518Y-85237388D01*
X171528820Y-85273698D01*
X171418506Y-85332663D01*
X171321815Y-85412015D01*
X171256342Y-85491794D01*
X171250962Y-85485238D01*
X171116387Y-85374795D01*
X170962851Y-85292728D01*
X170796255Y-85242192D01*
X170623001Y-85225128D01*
X169972999Y-85225128D01*
X169799745Y-85242192D01*
X169633149Y-85292728D01*
X169479613Y-85374795D01*
X169345038Y-85485238D01*
X169234595Y-85619813D01*
X169152528Y-85773349D01*
X169101992Y-85939945D01*
X169084928Y-86113199D01*
X169084928Y-87013201D01*
X169101992Y-87186455D01*
X169139045Y-87308604D01*
X168649250Y-87798400D01*
X168579674Y-87798400D01*
X168570537Y-87781306D01*
X168491185Y-87684615D01*
X168394494Y-87605263D01*
X168284180Y-87546298D01*
X168164482Y-87509988D01*
X168040000Y-87497728D01*
X167240000Y-87497728D01*
X167115518Y-87509988D01*
X166995820Y-87546298D01*
X166885506Y-87605263D01*
X166788815Y-87684615D01*
X166709463Y-87781306D01*
X166650498Y-87891620D01*
X166614188Y-88011318D01*
X166601928Y-88135800D01*
X166601928Y-88468200D01*
X166038104Y-88468200D01*
X166054684Y-88437182D01*
X166099529Y-88289345D01*
X166114672Y-88135600D01*
X166114672Y-87835600D01*
X166099529Y-87681855D01*
X166054684Y-87534018D01*
X165982870Y-87399664D01*
X166007137Y-87370094D01*
X166066102Y-87259780D01*
X166102412Y-87140082D01*
X166114672Y-87015600D01*
X166111600Y-87001350D01*
X165952850Y-86842600D01*
X164778600Y-86842600D01*
X164778600Y-86862600D01*
X164524600Y-86862600D01*
X164524600Y-86842600D01*
X164504600Y-86842600D01*
X164504600Y-86588600D01*
X164524600Y-86588600D01*
X164524600Y-85939350D01*
X164778600Y-85939350D01*
X164778600Y-86588600D01*
X165952850Y-86588600D01*
X166111600Y-86429850D01*
X166114672Y-86415600D01*
X166102412Y-86291118D01*
X166066102Y-86171420D01*
X166007137Y-86061106D01*
X165927785Y-85964415D01*
X165831094Y-85885063D01*
X165720780Y-85826098D01*
X165601082Y-85789788D01*
X165476600Y-85777528D01*
X164937350Y-85780600D01*
X164778600Y-85939350D01*
X164524600Y-85939350D01*
X164365850Y-85780600D01*
X163826600Y-85777528D01*
X163702118Y-85789788D01*
X163582420Y-85826098D01*
X163472106Y-85885063D01*
X163375415Y-85964415D01*
X163296063Y-86061106D01*
X163237098Y-86171420D01*
X163211234Y-86256683D01*
X161565928Y-84611378D01*
X161541269Y-84581331D01*
X161421372Y-84482934D01*
X161284583Y-84409818D01*
X161136157Y-84364794D01*
X161020473Y-84353400D01*
X161020463Y-84353400D01*
X160981800Y-84349592D01*
X160943137Y-84353400D01*
X159169662Y-84353400D01*
X159130999Y-84349592D01*
X159092336Y-84353400D01*
X159092327Y-84353400D01*
X158976643Y-84364794D01*
X158828217Y-84409818D01*
X158691428Y-84482934D01*
X158691426Y-84482935D01*
X158691427Y-84482935D01*
X158601569Y-84556679D01*
X158601567Y-84556681D01*
X158571531Y-84581331D01*
X158546881Y-84611367D01*
X153769250Y-89389000D01*
X153745861Y-89389000D01*
X153545902Y-89428774D01*
X153357544Y-89506795D01*
X153188026Y-89620063D01*
X153171489Y-89636600D01*
X152615072Y-89636600D01*
X152615072Y-89415199D01*
X152598008Y-89241945D01*
X152547472Y-89075349D01*
X152465405Y-88921813D01*
X152354962Y-88787238D01*
X152220387Y-88676795D01*
X152066851Y-88594728D01*
X151900255Y-88544192D01*
X151727001Y-88527128D01*
X151076999Y-88527128D01*
X150903745Y-88544192D01*
X150737149Y-88594728D01*
X150583613Y-88676795D01*
X150449038Y-88787238D01*
X150377000Y-88875016D01*
X150304962Y-88787238D01*
X150170387Y-88676795D01*
X150121400Y-88650611D01*
X150121400Y-86040968D01*
X150152387Y-86024405D01*
X150286962Y-85913962D01*
X150292342Y-85907406D01*
X150357815Y-85987185D01*
X150454506Y-86066537D01*
X150564820Y-86125502D01*
X150684518Y-86161812D01*
X150809000Y-86174072D01*
X151098250Y-86171000D01*
X151257000Y-86012250D01*
X151257000Y-84963000D01*
X151511000Y-84963000D01*
X151511000Y-86012250D01*
X151669750Y-86171000D01*
X151959000Y-86174072D01*
X152083482Y-86161812D01*
X152203180Y-86125502D01*
X152313494Y-86066537D01*
X152410185Y-85987185D01*
X152489537Y-85890494D01*
X152548502Y-85780180D01*
X152584812Y-85660482D01*
X152597072Y-85536000D01*
X152594000Y-85121750D01*
X152435250Y-84963000D01*
X151511000Y-84963000D01*
X151257000Y-84963000D01*
X151237000Y-84963000D01*
X151237000Y-84709000D01*
X151257000Y-84709000D01*
X151257000Y-83659750D01*
X151511000Y-83659750D01*
X151511000Y-84709000D01*
X152435250Y-84709000D01*
X152594000Y-84550250D01*
X152597072Y-84136000D01*
X152584812Y-84011518D01*
X152548502Y-83891820D01*
X152489537Y-83781506D01*
X152410185Y-83684815D01*
X152313494Y-83605463D01*
X152203180Y-83546498D01*
X152083482Y-83510188D01*
X151959000Y-83497928D01*
X151669750Y-83501000D01*
X151511000Y-83659750D01*
X151257000Y-83659750D01*
X151098250Y-83501000D01*
X150809000Y-83497928D01*
X150684518Y-83510188D01*
X150564820Y-83546498D01*
X150454506Y-83605463D01*
X150357815Y-83684815D01*
X150292342Y-83764594D01*
X150286962Y-83758038D01*
X150152387Y-83647595D01*
X149998851Y-83565528D01*
X149832255Y-83514992D01*
X149659001Y-83497928D01*
X149008999Y-83497928D01*
X148835745Y-83514992D01*
X148669149Y-83565528D01*
X148515613Y-83647595D01*
X148381038Y-83758038D01*
X148270595Y-83892613D01*
X148188528Y-84046149D01*
X148137992Y-84212745D01*
X148120928Y-84385999D01*
X144819552Y-84385999D01*
X146071433Y-83134119D01*
X146101469Y-83109469D01*
X146199866Y-82989572D01*
X146272982Y-82852783D01*
X146318006Y-82704357D01*
X146329400Y-82588673D01*
X146329400Y-82588664D01*
X146333208Y-82550001D01*
X146329400Y-82511338D01*
X146329400Y-75730662D01*
X146333208Y-75691999D01*
X146329400Y-75653336D01*
X146329400Y-75653327D01*
X146318006Y-75537643D01*
X146272982Y-75389217D01*
X146199866Y-75252428D01*
X146154375Y-75196997D01*
X146126121Y-75162569D01*
X146126119Y-75162567D01*
X146101469Y-75132531D01*
X146071434Y-75107882D01*
X143586128Y-72622578D01*
X143561469Y-72592531D01*
X143441572Y-72494134D01*
X143304783Y-72421018D01*
X143156357Y-72375994D01*
X143040673Y-72364600D01*
X143040663Y-72364600D01*
X143002000Y-72360792D01*
X142963337Y-72364600D01*
X135521215Y-72364600D01*
X135520472Y-72362149D01*
X135438405Y-72208613D01*
X135327962Y-72074038D01*
X135193387Y-71963595D01*
X135039851Y-71881528D01*
X134873255Y-71830992D01*
X134700001Y-71813928D01*
X134049999Y-71813928D01*
X133876745Y-71830992D01*
X133710149Y-71881528D01*
X133556613Y-71963595D01*
X133422038Y-72074038D01*
X133350000Y-72161816D01*
X133277962Y-72074038D01*
X133143387Y-71963595D01*
X132989851Y-71881528D01*
X132823255Y-71830992D01*
X132650001Y-71813928D01*
X131999999Y-71813928D01*
X131826745Y-71830992D01*
X131660149Y-71881528D01*
X131506613Y-71963595D01*
X131372038Y-72074038D01*
X131261595Y-72208613D01*
X131179528Y-72362149D01*
X131170473Y-72392000D01*
X119163325Y-72392000D01*
X119126000Y-72388324D01*
X119088675Y-72392000D01*
X119088667Y-72392000D01*
X118977014Y-72402997D01*
X118833753Y-72446454D01*
X118701724Y-72517026D01*
X118585999Y-72611999D01*
X118562201Y-72640997D01*
X115821003Y-75382196D01*
X115791999Y-75405999D01*
X115756150Y-75449682D01*
X115697026Y-75521724D01*
X115664877Y-75581871D01*
X115626454Y-75653754D01*
X115582997Y-75797015D01*
X115572000Y-75908668D01*
X115572000Y-75908678D01*
X115568324Y-75946000D01*
X115572000Y-75983323D01*
X115572001Y-77980000D01*
X109692105Y-77980000D01*
X109588012Y-77728698D01*
X109354363Y-77379017D01*
X109056983Y-77081637D01*
X108707302Y-76847988D01*
X108318756Y-76687047D01*
X107906279Y-76605000D01*
X107485721Y-76605000D01*
X107073244Y-76687047D01*
X106684698Y-76847988D01*
X106335017Y-77081637D01*
X106037637Y-77379017D01*
X105803988Y-77728698D01*
X105643047Y-78117244D01*
X105561000Y-78529721D01*
X105561000Y-78950279D01*
X105643047Y-79362756D01*
X105803988Y-79751302D01*
X106037637Y-80100983D01*
X106335017Y-80398363D01*
X106684698Y-80632012D01*
X107073244Y-80792953D01*
X107485721Y-80875000D01*
X107906279Y-80875000D01*
X108318756Y-80792953D01*
X108707302Y-80632012D01*
X109056983Y-80398363D01*
X109354363Y-80100983D01*
X109429588Y-79988400D01*
X123530928Y-79988400D01*
X123543188Y-80112882D01*
X123579498Y-80232580D01*
X123638463Y-80342894D01*
X123717815Y-80439585D01*
X123814506Y-80518937D01*
X123924820Y-80577902D01*
X124044518Y-80614212D01*
X124169000Y-80626472D01*
X124333250Y-80623400D01*
X124492000Y-80464650D01*
X124492000Y-79715400D01*
X124746000Y-79715400D01*
X124746000Y-80464650D01*
X124904750Y-80623400D01*
X125069000Y-80626472D01*
X125193482Y-80614212D01*
X125313180Y-80577902D01*
X125423494Y-80518937D01*
X125520185Y-80439585D01*
X125599537Y-80342894D01*
X125658502Y-80232580D01*
X125694812Y-80112882D01*
X125707072Y-79988400D01*
X125704000Y-79874150D01*
X125545250Y-79715400D01*
X124746000Y-79715400D01*
X124492000Y-79715400D01*
X123692750Y-79715400D01*
X123534000Y-79874150D01*
X123530928Y-79988400D01*
X109429588Y-79988400D01*
X109588012Y-79751302D01*
X109692105Y-79500000D01*
X116294667Y-79500000D01*
X116332000Y-79503677D01*
X116369333Y-79500000D01*
X116890386Y-79500000D01*
X116921595Y-79558387D01*
X117032038Y-79692962D01*
X117166613Y-79803405D01*
X117320149Y-79885472D01*
X117486745Y-79936008D01*
X117659999Y-79953072D01*
X118560001Y-79953072D01*
X118733255Y-79936008D01*
X118899851Y-79885472D01*
X119053387Y-79803405D01*
X119187962Y-79692962D01*
X119298405Y-79558387D01*
X119380472Y-79404851D01*
X119431008Y-79238255D01*
X119447579Y-79070000D01*
X120581928Y-79070000D01*
X120594188Y-79194482D01*
X120630498Y-79314180D01*
X120689463Y-79424494D01*
X120768815Y-79521185D01*
X120865506Y-79600537D01*
X120975820Y-79659502D01*
X121095518Y-79695812D01*
X121220000Y-79708072D01*
X121634250Y-79705000D01*
X121793000Y-79546250D01*
X121793000Y-78622000D01*
X122047000Y-78622000D01*
X122047000Y-79546250D01*
X122205750Y-79705000D01*
X122620000Y-79708072D01*
X122744482Y-79695812D01*
X122864180Y-79659502D01*
X122974494Y-79600537D01*
X123071185Y-79521185D01*
X123150537Y-79424494D01*
X123209502Y-79314180D01*
X123245812Y-79194482D01*
X123258072Y-79070000D01*
X123255000Y-78780750D01*
X123096250Y-78622000D01*
X122047000Y-78622000D01*
X121793000Y-78622000D01*
X120743750Y-78622000D01*
X120585000Y-78780750D01*
X120581928Y-79070000D01*
X119447579Y-79070000D01*
X119448072Y-79065001D01*
X119448072Y-78414999D01*
X119431008Y-78241745D01*
X119380472Y-78075149D01*
X119298405Y-77921613D01*
X119187962Y-77787038D01*
X119100184Y-77715000D01*
X119187962Y-77642962D01*
X119298405Y-77508387D01*
X119380472Y-77354851D01*
X119420468Y-77223000D01*
X120710008Y-77223000D01*
X120731595Y-77263387D01*
X120842038Y-77397962D01*
X120848594Y-77403342D01*
X120768815Y-77468815D01*
X120689463Y-77565506D01*
X120630498Y-77675820D01*
X120594188Y-77795518D01*
X120581928Y-77920000D01*
X120585000Y-78209250D01*
X120743750Y-78368000D01*
X121793000Y-78368000D01*
X121793000Y-78348000D01*
X122047000Y-78348000D01*
X122047000Y-78368000D01*
X123096250Y-78368000D01*
X123181724Y-78282526D01*
X123200205Y-78301008D01*
X123223999Y-78330001D01*
X123252992Y-78353795D01*
X123252996Y-78353799D01*
X123292669Y-78386357D01*
X123339724Y-78424974D01*
X123471753Y-78495546D01*
X123615014Y-78539003D01*
X123726667Y-78550000D01*
X123726676Y-78550000D01*
X123731028Y-78550429D01*
X123814506Y-78618937D01*
X123850918Y-78638400D01*
X123814506Y-78657863D01*
X123717815Y-78737215D01*
X123638463Y-78833906D01*
X123579498Y-78944220D01*
X123543188Y-79063918D01*
X123530928Y-79188400D01*
X123534000Y-79302650D01*
X123692750Y-79461400D01*
X124492000Y-79461400D01*
X124492000Y-79441400D01*
X124746000Y-79441400D01*
X124746000Y-79461400D01*
X125545250Y-79461400D01*
X125629857Y-79376793D01*
X125638463Y-79392894D01*
X125717815Y-79489585D01*
X125814506Y-79568937D01*
X125924820Y-79627902D01*
X126044518Y-79664212D01*
X126169000Y-79676472D01*
X127069000Y-79676472D01*
X127193482Y-79664212D01*
X127313180Y-79627902D01*
X127423494Y-79568937D01*
X127474107Y-79527400D01*
X131787337Y-79527400D01*
X131826000Y-79531208D01*
X131864663Y-79527400D01*
X131864673Y-79527400D01*
X131980357Y-79516006D01*
X132128783Y-79470982D01*
X132265572Y-79397866D01*
X132385469Y-79299469D01*
X132410128Y-79269422D01*
X133202682Y-78476868D01*
X133308166Y-78520561D01*
X133672344Y-78593000D01*
X134043656Y-78593000D01*
X134407834Y-78520561D01*
X134750882Y-78378466D01*
X135059618Y-78172175D01*
X135322175Y-77909618D01*
X135528466Y-77600882D01*
X135572158Y-77495400D01*
X139996139Y-77495400D01*
X139992928Y-77527999D01*
X139992928Y-78077520D01*
X136561850Y-81508600D01*
X133743215Y-81508600D01*
X133742472Y-81506149D01*
X133660405Y-81352613D01*
X133549962Y-81218038D01*
X133415387Y-81107595D01*
X133261851Y-81025528D01*
X133095255Y-80974992D01*
X132922001Y-80957928D01*
X132271999Y-80957928D01*
X132098745Y-80974992D01*
X131932149Y-81025528D01*
X131778613Y-81107595D01*
X131644038Y-81218038D01*
X131572000Y-81305816D01*
X131499962Y-81218038D01*
X131365387Y-81107595D01*
X131211851Y-81025528D01*
X131045255Y-80974992D01*
X130872001Y-80957928D01*
X130221999Y-80957928D01*
X130048745Y-80974992D01*
X129882149Y-81025528D01*
X129728613Y-81107595D01*
X129594038Y-81218038D01*
X129483595Y-81352613D01*
X129401528Y-81506149D01*
X129400785Y-81508600D01*
X117894662Y-81508600D01*
X117855999Y-81504792D01*
X117817336Y-81508600D01*
X117817327Y-81508600D01*
X117701643Y-81519994D01*
X117553217Y-81565018D01*
X117416428Y-81638134D01*
X117296531Y-81736531D01*
X117271878Y-81766571D01*
X116800577Y-82237873D01*
X116770531Y-82262531D01*
X116672134Y-82382429D01*
X116599018Y-82519218D01*
X116575247Y-82597582D01*
X116511613Y-82631595D01*
X116377038Y-82742038D01*
X116266595Y-82876613D01*
X116184528Y-83030149D01*
X116183785Y-83032600D01*
X109680755Y-83032600D01*
X109588012Y-82808698D01*
X109354363Y-82459017D01*
X109056983Y-82161637D01*
X108707302Y-81927988D01*
X108318756Y-81767047D01*
X107906279Y-81685000D01*
X107485721Y-81685000D01*
X107073244Y-81767047D01*
X106684698Y-81927988D01*
X106335017Y-82161637D01*
X106037637Y-82459017D01*
X105803988Y-82808698D01*
X105643047Y-83197244D01*
X105561000Y-83609721D01*
X105561000Y-84030279D01*
X105643047Y-84442756D01*
X105803988Y-84831302D01*
X106037637Y-85180983D01*
X106335017Y-85478363D01*
X106684698Y-85712012D01*
X107073244Y-85872953D01*
X107485721Y-85955000D01*
X107906279Y-85955000D01*
X108318756Y-85872953D01*
X108707302Y-85712012D01*
X109056983Y-85478363D01*
X109354363Y-85180983D01*
X109588012Y-84831302D01*
X109680755Y-84607400D01*
X116183785Y-84607400D01*
X116184528Y-84609851D01*
X116266595Y-84763387D01*
X116377038Y-84897962D01*
X116511613Y-85008405D01*
X116665149Y-85090472D01*
X116831745Y-85141008D01*
X117004999Y-85158072D01*
X117655001Y-85158072D01*
X117828255Y-85141008D01*
X117994851Y-85090472D01*
X118148387Y-85008405D01*
X118282962Y-84897962D01*
X118355000Y-84810184D01*
X118427038Y-84897962D01*
X118561613Y-85008405D01*
X118715149Y-85090472D01*
X118881745Y-85141008D01*
X119054999Y-85158072D01*
X119705001Y-85158072D01*
X119878255Y-85141008D01*
X120044851Y-85090472D01*
X120198387Y-85008405D01*
X120332962Y-84897962D01*
X120443405Y-84763387D01*
X120525472Y-84609851D01*
X120526215Y-84607400D01*
X123493850Y-84607400D01*
X123534449Y-84647999D01*
X122575317Y-85607132D01*
X122469834Y-85563439D01*
X122105656Y-85491000D01*
X121734344Y-85491000D01*
X121370166Y-85563439D01*
X121027118Y-85705534D01*
X120718382Y-85911825D01*
X120455825Y-86174382D01*
X120249534Y-86483118D01*
X120107439Y-86826166D01*
X120035000Y-87190344D01*
X120035000Y-87561656D01*
X120107439Y-87925834D01*
X120249534Y-88268882D01*
X120455825Y-88577618D01*
X120718382Y-88840175D01*
X121027118Y-89046466D01*
X121370166Y-89188561D01*
X121734344Y-89261000D01*
X122105656Y-89261000D01*
X122469834Y-89188561D01*
X122812882Y-89046466D01*
X123121618Y-88840175D01*
X123384175Y-88577618D01*
X123590466Y-88268882D01*
X123732561Y-87925834D01*
X123805000Y-87561656D01*
X123805000Y-87190344D01*
X123802267Y-87176600D01*
X123870528Y-87176600D01*
X123882788Y-87301082D01*
X123919098Y-87420780D01*
X123978063Y-87531094D01*
X124057415Y-87627785D01*
X124154106Y-87707137D01*
X124264420Y-87766102D01*
X124384118Y-87802412D01*
X124508600Y-87814672D01*
X124672850Y-87811600D01*
X124831600Y-87652850D01*
X124831600Y-86903600D01*
X125085600Y-86903600D01*
X125085600Y-87652850D01*
X125244350Y-87811600D01*
X125408600Y-87814672D01*
X125533082Y-87802412D01*
X125652780Y-87766102D01*
X125763094Y-87707137D01*
X125859785Y-87627785D01*
X125939137Y-87531094D01*
X125998102Y-87420780D01*
X126034412Y-87301082D01*
X126046672Y-87176600D01*
X126043600Y-87062350D01*
X125884850Y-86903600D01*
X125085600Y-86903600D01*
X124831600Y-86903600D01*
X124032350Y-86903600D01*
X123873600Y-87062350D01*
X123870528Y-87176600D01*
X123802267Y-87176600D01*
X123732561Y-86826166D01*
X123688868Y-86720683D01*
X123896151Y-86513401D01*
X124032350Y-86649600D01*
X124831600Y-86649600D01*
X124831600Y-86629600D01*
X125085600Y-86629600D01*
X125085600Y-86649600D01*
X125884850Y-86649600D01*
X125969457Y-86564993D01*
X125978063Y-86581094D01*
X126057415Y-86677785D01*
X126154106Y-86757137D01*
X126180600Y-86771299D01*
X126180601Y-94417327D01*
X126176792Y-94456000D01*
X126191995Y-94610357D01*
X126237018Y-94758782D01*
X126310135Y-94895572D01*
X126408532Y-95015469D01*
X126438573Y-95040123D01*
X128045449Y-96647000D01*
X103124000Y-96647000D01*
X103000118Y-96659201D01*
X102880996Y-96695336D01*
X102800627Y-96738294D01*
X102794325Y-93769721D01*
X105561000Y-93769721D01*
X105561000Y-94190279D01*
X105643047Y-94602756D01*
X105803988Y-94991302D01*
X106037637Y-95340983D01*
X106335017Y-95638363D01*
X106684698Y-95872012D01*
X107073244Y-96032953D01*
X107485721Y-96115000D01*
X107906279Y-96115000D01*
X108318756Y-96032953D01*
X108707302Y-95872012D01*
X109056983Y-95638363D01*
X109354363Y-95340983D01*
X109588012Y-94991302D01*
X109748953Y-94602756D01*
X109831000Y-94190279D01*
X109831000Y-93769721D01*
X109748953Y-93357244D01*
X109588012Y-92968698D01*
X109354363Y-92619017D01*
X109056983Y-92321637D01*
X108707302Y-92087988D01*
X108318756Y-91927047D01*
X107906279Y-91845000D01*
X107485721Y-91845000D01*
X107073244Y-91927047D01*
X106684698Y-92087988D01*
X106335017Y-92321637D01*
X106037637Y-92619017D01*
X105803988Y-92968698D01*
X105643047Y-93357244D01*
X105561000Y-93769721D01*
X102794325Y-93769721D01*
X102744941Y-70510000D01*
X105668448Y-70510000D01*
X103813773Y-72364677D01*
G36*
X170310328Y-90610479D02*
G01*
X170310328Y-90985000D01*
X170322588Y-91109482D01*
X170358898Y-91229180D01*
X170417863Y-91339494D01*
X170497215Y-91436185D01*
X170593906Y-91515537D01*
X170704220Y-91574502D01*
X170823918Y-91610812D01*
X170837409Y-91612141D01*
X170603150Y-91846400D01*
X169963615Y-91846400D01*
X169962872Y-91843949D01*
X169880805Y-91690413D01*
X169770362Y-91555838D01*
X169635787Y-91445395D01*
X169523240Y-91385237D01*
X169579502Y-91279980D01*
X169615812Y-91160282D01*
X169628072Y-91035800D01*
X169625000Y-90871550D01*
X169466250Y-90712800D01*
X168717000Y-90712800D01*
X168717000Y-90732800D01*
X168463000Y-90732800D01*
X168463000Y-90712800D01*
X168443000Y-90712800D01*
X168443000Y-90570799D01*
X170270648Y-90570799D01*
X170310328Y-90610479D01*
G37*
X170310328Y-90610479D02*
X170310328Y-90985000D01*
X170322588Y-91109482D01*
X170358898Y-91229180D01*
X170417863Y-91339494D01*
X170497215Y-91436185D01*
X170593906Y-91515537D01*
X170704220Y-91574502D01*
X170823918Y-91610812D01*
X170837409Y-91612141D01*
X170603150Y-91846400D01*
X169963615Y-91846400D01*
X169962872Y-91843949D01*
X169880805Y-91690413D01*
X169770362Y-91555838D01*
X169635787Y-91445395D01*
X169523240Y-91385237D01*
X169579502Y-91279980D01*
X169615812Y-91160282D01*
X169628072Y-91035800D01*
X169625000Y-90871550D01*
X169466250Y-90712800D01*
X168717000Y-90712800D01*
X168717000Y-90732800D01*
X168463000Y-90732800D01*
X168463000Y-90712800D01*
X168443000Y-90712800D01*
X168443000Y-90570799D01*
X170270648Y-90570799D01*
X170310328Y-90610479D01*
G36*
X141346010Y-83646740D02*
G01*
X141333000Y-83659750D01*
X141333000Y-84709000D01*
X141346010Y-84709000D01*
X141346010Y-84963000D01*
X141333000Y-84963000D01*
X141333000Y-86012250D01*
X141346010Y-86025260D01*
X141346010Y-86189347D01*
X141342202Y-86228010D01*
X141346010Y-86266673D01*
X141346010Y-86266682D01*
X141357404Y-86382366D01*
X141402428Y-86530792D01*
X141475544Y-86667581D01*
X141573941Y-86787479D01*
X141603988Y-86812138D01*
X143457300Y-88665450D01*
X143383000Y-88739750D01*
X143383000Y-89789000D01*
X144307250Y-89789000D01*
X144444050Y-89652200D01*
X150524448Y-95732600D01*
X135533193Y-95732600D01*
X135576175Y-95689618D01*
X135782466Y-95380882D01*
X135924561Y-95037834D01*
X135997000Y-94673656D01*
X135997000Y-94302344D01*
X135924561Y-93938166D01*
X135782466Y-93595118D01*
X135576175Y-93286382D01*
X135313618Y-93023825D01*
X135004882Y-92817534D01*
X134661834Y-92675439D01*
X134297656Y-92603000D01*
X133926344Y-92603000D01*
X133562166Y-92675439D01*
X133219118Y-92817534D01*
X132910382Y-93023825D01*
X132647825Y-93286382D01*
X132441534Y-93595118D01*
X132299439Y-93938166D01*
X132227000Y-94302344D01*
X132227000Y-94673656D01*
X132299439Y-95037834D01*
X132441534Y-95380882D01*
X132647825Y-95689618D01*
X132690807Y-95732600D01*
X129358151Y-95732600D01*
X127755400Y-94129850D01*
X127755400Y-86761250D01*
X127763094Y-86757137D01*
X127859785Y-86677785D01*
X127939137Y-86581094D01*
X127998102Y-86470780D01*
X128034412Y-86351082D01*
X128046672Y-86226600D01*
X128046672Y-85426600D01*
X128034412Y-85302118D01*
X127998102Y-85182420D01*
X127939137Y-85072106D01*
X127859785Y-84975415D01*
X127801278Y-84927400D01*
X136743404Y-84927400D01*
X140418601Y-88602598D01*
X140418601Y-88711032D01*
X140387613Y-88727595D01*
X140253038Y-88838038D01*
X140142595Y-88972613D01*
X140060528Y-89126149D01*
X140009992Y-89292745D01*
X139992928Y-89465999D01*
X139992928Y-90366001D01*
X140009992Y-90539255D01*
X140060528Y-90705851D01*
X140142595Y-90859387D01*
X140253038Y-90993962D01*
X140387613Y-91104405D01*
X140541149Y-91186472D01*
X140707745Y-91237008D01*
X140880999Y-91254072D01*
X141531001Y-91254072D01*
X141704255Y-91237008D01*
X141870851Y-91186472D01*
X142024387Y-91104405D01*
X142158962Y-90993962D01*
X142164342Y-90987406D01*
X142229815Y-91067185D01*
X142326506Y-91146537D01*
X142436820Y-91205502D01*
X142556518Y-91241812D01*
X142681000Y-91254072D01*
X142970250Y-91251000D01*
X143129000Y-91092250D01*
X143129000Y-90043000D01*
X143383000Y-90043000D01*
X143383000Y-91092250D01*
X143541750Y-91251000D01*
X143831000Y-91254072D01*
X143955482Y-91241812D01*
X144075180Y-91205502D01*
X144185494Y-91146537D01*
X144282185Y-91067185D01*
X144361537Y-90970494D01*
X144420502Y-90860180D01*
X144456812Y-90740482D01*
X144469072Y-90616000D01*
X144466000Y-90201750D01*
X144307250Y-90043000D01*
X143383000Y-90043000D01*
X143129000Y-90043000D01*
X143109000Y-90043000D01*
X143109000Y-89789000D01*
X143129000Y-89789000D01*
X143129000Y-88739750D01*
X142970250Y-88581000D01*
X142681000Y-88577928D01*
X142556518Y-88590188D01*
X142436820Y-88626498D01*
X142326506Y-88685463D01*
X142229815Y-88764815D01*
X142164342Y-88844594D01*
X142158962Y-88838038D01*
X142024387Y-88727595D01*
X141993400Y-88711032D01*
X141993400Y-88315108D01*
X141997208Y-88276445D01*
X141993400Y-88237782D01*
X141993400Y-88237773D01*
X141982006Y-88122089D01*
X141936982Y-87973663D01*
X141863866Y-87836874D01*
X141765469Y-87716977D01*
X141735428Y-87692323D01*
X139579105Y-85536000D01*
X139992928Y-85536000D01*
X140005188Y-85660482D01*
X140041498Y-85780180D01*
X140100463Y-85890494D01*
X140179815Y-85987185D01*
X140276506Y-86066537D01*
X140386820Y-86125502D01*
X140506518Y-86161812D01*
X140631000Y-86174072D01*
X140920250Y-86171000D01*
X141079000Y-86012250D01*
X141079000Y-84963000D01*
X140154750Y-84963000D01*
X139996000Y-85121750D01*
X139992928Y-85536000D01*
X139579105Y-85536000D01*
X138179105Y-84136000D01*
X139992928Y-84136000D01*
X139996000Y-84550250D01*
X140154750Y-84709000D01*
X141079000Y-84709000D01*
X141079000Y-83659750D01*
X140920250Y-83501000D01*
X140631000Y-83497928D01*
X140506518Y-83510188D01*
X140386820Y-83546498D01*
X140276506Y-83605463D01*
X140179815Y-83684815D01*
X140100463Y-83781506D01*
X140041498Y-83891820D01*
X140005188Y-84011518D01*
X139992928Y-84136000D01*
X138179105Y-84136000D01*
X137653682Y-83610578D01*
X137629023Y-83580531D01*
X137509126Y-83482134D01*
X137372337Y-83409018D01*
X137223911Y-83363994D01*
X137108227Y-83352600D01*
X137108217Y-83352600D01*
X137069554Y-83348792D01*
X137030891Y-83352600D01*
X133567493Y-83352600D01*
X133660405Y-83239387D01*
X133742472Y-83085851D01*
X133743215Y-83083400D01*
X136849337Y-83083400D01*
X136888000Y-83087208D01*
X136926663Y-83083400D01*
X136926673Y-83083400D01*
X137042357Y-83072006D01*
X137190783Y-83026982D01*
X137327572Y-82953866D01*
X137447469Y-82855469D01*
X137472128Y-82825422D01*
X140981480Y-79316072D01*
X141346011Y-79316072D01*
X141346010Y-83646740D01*
G37*
X141346010Y-83646740D02*
X141333000Y-83659750D01*
X141333000Y-84709000D01*
X141346010Y-84709000D01*
X141346010Y-84963000D01*
X141333000Y-84963000D01*
X141333000Y-86012250D01*
X141346010Y-86025260D01*
X141346010Y-86189347D01*
X141342202Y-86228010D01*
X141346010Y-86266673D01*
X141346010Y-86266682D01*
X141357404Y-86382366D01*
X141402428Y-86530792D01*
X141475544Y-86667581D01*
X141573941Y-86787479D01*
X141603988Y-86812138D01*
X143457300Y-88665450D01*
X143383000Y-88739750D01*
X143383000Y-89789000D01*
X144307250Y-89789000D01*
X144444050Y-89652200D01*
X150524448Y-95732600D01*
X135533193Y-95732600D01*
X135576175Y-95689618D01*
X135782466Y-95380882D01*
X135924561Y-95037834D01*
X135997000Y-94673656D01*
X135997000Y-94302344D01*
X135924561Y-93938166D01*
X135782466Y-93595118D01*
X135576175Y-93286382D01*
X135313618Y-93023825D01*
X135004882Y-92817534D01*
X134661834Y-92675439D01*
X134297656Y-92603000D01*
X133926344Y-92603000D01*
X133562166Y-92675439D01*
X133219118Y-92817534D01*
X132910382Y-93023825D01*
X132647825Y-93286382D01*
X132441534Y-93595118D01*
X132299439Y-93938166D01*
X132227000Y-94302344D01*
X132227000Y-94673656D01*
X132299439Y-95037834D01*
X132441534Y-95380882D01*
X132647825Y-95689618D01*
X132690807Y-95732600D01*
X129358151Y-95732600D01*
X127755400Y-94129850D01*
X127755400Y-86761250D01*
X127763094Y-86757137D01*
X127859785Y-86677785D01*
X127939137Y-86581094D01*
X127998102Y-86470780D01*
X128034412Y-86351082D01*
X128046672Y-86226600D01*
X128046672Y-85426600D01*
X128034412Y-85302118D01*
X127998102Y-85182420D01*
X127939137Y-85072106D01*
X127859785Y-84975415D01*
X127801278Y-84927400D01*
X136743404Y-84927400D01*
X140418601Y-88602598D01*
X140418601Y-88711032D01*
X140387613Y-88727595D01*
X140253038Y-88838038D01*
X140142595Y-88972613D01*
X140060528Y-89126149D01*
X140009992Y-89292745D01*
X139992928Y-89465999D01*
X139992928Y-90366001D01*
X140009992Y-90539255D01*
X140060528Y-90705851D01*
X140142595Y-90859387D01*
X140253038Y-90993962D01*
X140387613Y-91104405D01*
X140541149Y-91186472D01*
X140707745Y-91237008D01*
X140880999Y-91254072D01*
X141531001Y-91254072D01*
X141704255Y-91237008D01*
X141870851Y-91186472D01*
X142024387Y-91104405D01*
X142158962Y-90993962D01*
X142164342Y-90987406D01*
X142229815Y-91067185D01*
X142326506Y-91146537D01*
X142436820Y-91205502D01*
X142556518Y-91241812D01*
X142681000Y-91254072D01*
X142970250Y-91251000D01*
X143129000Y-91092250D01*
X143129000Y-90043000D01*
X143383000Y-90043000D01*
X143383000Y-91092250D01*
X143541750Y-91251000D01*
X143831000Y-91254072D01*
X143955482Y-91241812D01*
X144075180Y-91205502D01*
X144185494Y-91146537D01*
X144282185Y-91067185D01*
X144361537Y-90970494D01*
X144420502Y-90860180D01*
X144456812Y-90740482D01*
X144469072Y-90616000D01*
X144466000Y-90201750D01*
X144307250Y-90043000D01*
X143383000Y-90043000D01*
X143129000Y-90043000D01*
X143109000Y-90043000D01*
X143109000Y-89789000D01*
X143129000Y-89789000D01*
X143129000Y-88739750D01*
X142970250Y-88581000D01*
X142681000Y-88577928D01*
X142556518Y-88590188D01*
X142436820Y-88626498D01*
X142326506Y-88685463D01*
X142229815Y-88764815D01*
X142164342Y-88844594D01*
X142158962Y-88838038D01*
X142024387Y-88727595D01*
X141993400Y-88711032D01*
X141993400Y-88315108D01*
X141997208Y-88276445D01*
X141993400Y-88237782D01*
X141993400Y-88237773D01*
X141982006Y-88122089D01*
X141936982Y-87973663D01*
X141863866Y-87836874D01*
X141765469Y-87716977D01*
X141735428Y-87692323D01*
X139579105Y-85536000D01*
X139992928Y-85536000D01*
X140005188Y-85660482D01*
X140041498Y-85780180D01*
X140100463Y-85890494D01*
X140179815Y-85987185D01*
X140276506Y-86066537D01*
X140386820Y-86125502D01*
X140506518Y-86161812D01*
X140631000Y-86174072D01*
X140920250Y-86171000D01*
X141079000Y-86012250D01*
X141079000Y-84963000D01*
X140154750Y-84963000D01*
X139996000Y-85121750D01*
X139992928Y-85536000D01*
X139579105Y-85536000D01*
X138179105Y-84136000D01*
X139992928Y-84136000D01*
X139996000Y-84550250D01*
X140154750Y-84709000D01*
X141079000Y-84709000D01*
X141079000Y-83659750D01*
X140920250Y-83501000D01*
X140631000Y-83497928D01*
X140506518Y-83510188D01*
X140386820Y-83546498D01*
X140276506Y-83605463D01*
X140179815Y-83684815D01*
X140100463Y-83781506D01*
X140041498Y-83891820D01*
X140005188Y-84011518D01*
X139992928Y-84136000D01*
X138179105Y-84136000D01*
X137653682Y-83610578D01*
X137629023Y-83580531D01*
X137509126Y-83482134D01*
X137372337Y-83409018D01*
X137223911Y-83363994D01*
X137108227Y-83352600D01*
X137108217Y-83352600D01*
X137069554Y-83348792D01*
X137030891Y-83352600D01*
X133567493Y-83352600D01*
X133660405Y-83239387D01*
X133742472Y-83085851D01*
X133743215Y-83083400D01*
X136849337Y-83083400D01*
X136888000Y-83087208D01*
X136926663Y-83083400D01*
X136926673Y-83083400D01*
X137042357Y-83072006D01*
X137190783Y-83026982D01*
X137327572Y-82953866D01*
X137447469Y-82855469D01*
X137472128Y-82825422D01*
X140981480Y-79316072D01*
X141346011Y-79316072D01*
X141346010Y-83646740D01*
G36*
X131179528Y-73941851D02*
G01*
X131261595Y-74095387D01*
X131372038Y-74229962D01*
X131506613Y-74340405D01*
X131660149Y-74422472D01*
X131826745Y-74473008D01*
X131999999Y-74490072D01*
X132650001Y-74490072D01*
X132823255Y-74473008D01*
X132989851Y-74422472D01*
X133143387Y-74340405D01*
X133277962Y-74229962D01*
X133350000Y-74142184D01*
X133422038Y-74229962D01*
X133556613Y-74340405D01*
X133710149Y-74422472D01*
X133876745Y-74473008D01*
X134049999Y-74490072D01*
X134700001Y-74490072D01*
X134873255Y-74473008D01*
X135039851Y-74422472D01*
X135193387Y-74340405D01*
X135327962Y-74229962D01*
X135438405Y-74095387D01*
X135520472Y-73941851D01*
X135521215Y-73939400D01*
X142675850Y-73939400D01*
X144754600Y-76018152D01*
X144754601Y-82223847D01*
X143480521Y-83497928D01*
X142930999Y-83497928D01*
X142920810Y-83498932D01*
X142920810Y-79313525D01*
X142970250Y-79313000D01*
X143129000Y-79154250D01*
X143129000Y-78105000D01*
X143383000Y-78105000D01*
X143383000Y-79154250D01*
X143541750Y-79313000D01*
X143831000Y-79316072D01*
X143955482Y-79303812D01*
X144075180Y-79267502D01*
X144185494Y-79208537D01*
X144282185Y-79129185D01*
X144361537Y-79032494D01*
X144420502Y-78922180D01*
X144456812Y-78802482D01*
X144469072Y-78678000D01*
X144466000Y-78263750D01*
X144307250Y-78105000D01*
X143383000Y-78105000D01*
X143129000Y-78105000D01*
X143109000Y-78105000D01*
X143109000Y-77851000D01*
X143129000Y-77851000D01*
X143129000Y-76801750D01*
X143383000Y-76801750D01*
X143383000Y-77851000D01*
X144307250Y-77851000D01*
X144466000Y-77692250D01*
X144469072Y-77278000D01*
X144456812Y-77153518D01*
X144420502Y-77033820D01*
X144361537Y-76923506D01*
X144282185Y-76826815D01*
X144185494Y-76747463D01*
X144075180Y-76688498D01*
X143955482Y-76652188D01*
X143831000Y-76639928D01*
X143541750Y-76643000D01*
X143383000Y-76801750D01*
X143129000Y-76801750D01*
X142970250Y-76643000D01*
X142681000Y-76639928D01*
X142614927Y-76646435D01*
X142147067Y-76178577D01*
X142122409Y-76148531D01*
X142002512Y-76050134D01*
X141865723Y-75977018D01*
X141717297Y-75931994D01*
X141601613Y-75920600D01*
X141601603Y-75920600D01*
X141562940Y-75916792D01*
X141524277Y-75920600D01*
X135572158Y-75920600D01*
X135528466Y-75815118D01*
X135322175Y-75506382D01*
X135059618Y-75243825D01*
X134750882Y-75037534D01*
X134407834Y-74895439D01*
X134043656Y-74823000D01*
X133672344Y-74823000D01*
X133308166Y-74895439D01*
X132965118Y-75037534D01*
X132656382Y-75243825D01*
X132393825Y-75506382D01*
X132187534Y-75815118D01*
X132045439Y-76158166D01*
X131973000Y-76522344D01*
X131973000Y-76893656D01*
X132045439Y-77257834D01*
X132089132Y-77363318D01*
X131499850Y-77952600D01*
X130944097Y-77952600D01*
X130995618Y-77918175D01*
X131258175Y-77655618D01*
X131464466Y-77346882D01*
X131606561Y-77003834D01*
X131679000Y-76639656D01*
X131679000Y-76268344D01*
X131606561Y-75904166D01*
X131464466Y-75561118D01*
X131258175Y-75252382D01*
X130995618Y-74989825D01*
X130686882Y-74783534D01*
X130343834Y-74641439D01*
X129979656Y-74569000D01*
X129608344Y-74569000D01*
X129244166Y-74641439D01*
X128901118Y-74783534D01*
X128592382Y-74989825D01*
X128329825Y-75252382D01*
X128123534Y-75561118D01*
X128079842Y-75666600D01*
X126374662Y-75666600D01*
X126335999Y-75662792D01*
X126297336Y-75666600D01*
X126297327Y-75666600D01*
X126181643Y-75677994D01*
X126033217Y-75723018D01*
X125896428Y-75796134D01*
X125885744Y-75804902D01*
X125806569Y-75869879D01*
X125806567Y-75869881D01*
X125776531Y-75894531D01*
X125751881Y-75924567D01*
X125026121Y-76650328D01*
X124169000Y-76650328D01*
X124044518Y-76662588D01*
X123924820Y-76698898D01*
X123814506Y-76757863D01*
X123810199Y-76761397D01*
X123258072Y-76209271D01*
X123258072Y-76119999D01*
X123241008Y-75946745D01*
X123190472Y-75780149D01*
X123108405Y-75626613D01*
X122997962Y-75492038D01*
X122863387Y-75381595D01*
X122709851Y-75299528D01*
X122543255Y-75248992D01*
X122370001Y-75231928D01*
X121469999Y-75231928D01*
X121296745Y-75248992D01*
X121130149Y-75299528D01*
X120976613Y-75381595D01*
X120842038Y-75492038D01*
X120731595Y-75626613D01*
X120690765Y-75703000D01*
X119146487Y-75703000D01*
X119053387Y-75626595D01*
X118899851Y-75544528D01*
X118733255Y-75493992D01*
X118560001Y-75476928D01*
X117875873Y-75476928D01*
X119440802Y-73912000D01*
X131170473Y-73912000D01*
X131179528Y-73941851D01*
G37*
X131179528Y-73941851D02*
X131261595Y-74095387D01*
X131372038Y-74229962D01*
X131506613Y-74340405D01*
X131660149Y-74422472D01*
X131826745Y-74473008D01*
X131999999Y-74490072D01*
X132650001Y-74490072D01*
X132823255Y-74473008D01*
X132989851Y-74422472D01*
X133143387Y-74340405D01*
X133277962Y-74229962D01*
X133350000Y-74142184D01*
X133422038Y-74229962D01*
X133556613Y-74340405D01*
X133710149Y-74422472D01*
X133876745Y-74473008D01*
X134049999Y-74490072D01*
X134700001Y-74490072D01*
X134873255Y-74473008D01*
X135039851Y-74422472D01*
X135193387Y-74340405D01*
X135327962Y-74229962D01*
X135438405Y-74095387D01*
X135520472Y-73941851D01*
X135521215Y-73939400D01*
X142675850Y-73939400D01*
X144754600Y-76018152D01*
X144754601Y-82223847D01*
X143480521Y-83497928D01*
X142930999Y-83497928D01*
X142920810Y-83498932D01*
X142920810Y-79313525D01*
X142970250Y-79313000D01*
X143129000Y-79154250D01*
X143129000Y-78105000D01*
X143383000Y-78105000D01*
X143383000Y-79154250D01*
X143541750Y-79313000D01*
X143831000Y-79316072D01*
X143955482Y-79303812D01*
X144075180Y-79267502D01*
X144185494Y-79208537D01*
X144282185Y-79129185D01*
X144361537Y-79032494D01*
X144420502Y-78922180D01*
X144456812Y-78802482D01*
X144469072Y-78678000D01*
X144466000Y-78263750D01*
X144307250Y-78105000D01*
X143383000Y-78105000D01*
X143129000Y-78105000D01*
X143109000Y-78105000D01*
X143109000Y-77851000D01*
X143129000Y-77851000D01*
X143129000Y-76801750D01*
X143383000Y-76801750D01*
X143383000Y-77851000D01*
X144307250Y-77851000D01*
X144466000Y-77692250D01*
X144469072Y-77278000D01*
X144456812Y-77153518D01*
X144420502Y-77033820D01*
X144361537Y-76923506D01*
X144282185Y-76826815D01*
X144185494Y-76747463D01*
X144075180Y-76688498D01*
X143955482Y-76652188D01*
X143831000Y-76639928D01*
X143541750Y-76643000D01*
X143383000Y-76801750D01*
X143129000Y-76801750D01*
X142970250Y-76643000D01*
X142681000Y-76639928D01*
X142614927Y-76646435D01*
X142147067Y-76178577D01*
X142122409Y-76148531D01*
X142002512Y-76050134D01*
X141865723Y-75977018D01*
X141717297Y-75931994D01*
X141601613Y-75920600D01*
X141601603Y-75920600D01*
X141562940Y-75916792D01*
X141524277Y-75920600D01*
X135572158Y-75920600D01*
X135528466Y-75815118D01*
X135322175Y-75506382D01*
X135059618Y-75243825D01*
X134750882Y-75037534D01*
X134407834Y-74895439D01*
X134043656Y-74823000D01*
X133672344Y-74823000D01*
X133308166Y-74895439D01*
X132965118Y-75037534D01*
X132656382Y-75243825D01*
X132393825Y-75506382D01*
X132187534Y-75815118D01*
X132045439Y-76158166D01*
X131973000Y-76522344D01*
X131973000Y-76893656D01*
X132045439Y-77257834D01*
X132089132Y-77363318D01*
X131499850Y-77952600D01*
X130944097Y-77952600D01*
X130995618Y-77918175D01*
X131258175Y-77655618D01*
X131464466Y-77346882D01*
X131606561Y-77003834D01*
X131679000Y-76639656D01*
X131679000Y-76268344D01*
X131606561Y-75904166D01*
X131464466Y-75561118D01*
X131258175Y-75252382D01*
X130995618Y-74989825D01*
X130686882Y-74783534D01*
X130343834Y-74641439D01*
X129979656Y-74569000D01*
X129608344Y-74569000D01*
X129244166Y-74641439D01*
X128901118Y-74783534D01*
X128592382Y-74989825D01*
X128329825Y-75252382D01*
X128123534Y-75561118D01*
X128079842Y-75666600D01*
X126374662Y-75666600D01*
X126335999Y-75662792D01*
X126297336Y-75666600D01*
X126297327Y-75666600D01*
X126181643Y-75677994D01*
X126033217Y-75723018D01*
X125896428Y-75796134D01*
X125885744Y-75804902D01*
X125806569Y-75869879D01*
X125806567Y-75869881D01*
X125776531Y-75894531D01*
X125751881Y-75924567D01*
X125026121Y-76650328D01*
X124169000Y-76650328D01*
X124044518Y-76662588D01*
X123924820Y-76698898D01*
X123814506Y-76757863D01*
X123810199Y-76761397D01*
X123258072Y-76209271D01*
X123258072Y-76119999D01*
X123241008Y-75946745D01*
X123190472Y-75780149D01*
X123108405Y-75626613D01*
X122997962Y-75492038D01*
X122863387Y-75381595D01*
X122709851Y-75299528D01*
X122543255Y-75248992D01*
X122370001Y-75231928D01*
X121469999Y-75231928D01*
X121296745Y-75248992D01*
X121130149Y-75299528D01*
X120976613Y-75381595D01*
X120842038Y-75492038D01*
X120731595Y-75626613D01*
X120690765Y-75703000D01*
X119146487Y-75703000D01*
X119053387Y-75626595D01*
X118899851Y-75544528D01*
X118733255Y-75493992D01*
X118560001Y-75476928D01*
X117875873Y-75476928D01*
X119440802Y-73912000D01*
X131170473Y-73912000D01*
X131179528Y-73941851D01*
G36*
X167440128Y-80221879D02*
G01*
X167440128Y-80596400D01*
X167452388Y-80720882D01*
X167488698Y-80840580D01*
X167547663Y-80950894D01*
X167599485Y-81014040D01*
X167301982Y-81212825D01*
X167039425Y-81475382D01*
X166957072Y-81598632D01*
X166957072Y-81591999D01*
X166940008Y-81418745D01*
X166889472Y-81252149D01*
X166807405Y-81098613D01*
X166696962Y-80964038D01*
X166629071Y-80908321D01*
X166633102Y-80900780D01*
X166669412Y-80781082D01*
X166681672Y-80656600D01*
X166678600Y-80492350D01*
X166519850Y-80333600D01*
X165770600Y-80333600D01*
X165770600Y-80353600D01*
X165516600Y-80353600D01*
X165516600Y-80333600D01*
X165496600Y-80333600D01*
X165496600Y-80079600D01*
X165516600Y-80079600D01*
X165516600Y-80059600D01*
X165770600Y-80059600D01*
X165770600Y-80079600D01*
X166519850Y-80079600D01*
X166678350Y-79921100D01*
X167139350Y-79921100D01*
X167440128Y-80221879D01*
G37*
X167440128Y-80221879D02*
X167440128Y-80596400D01*
X167452388Y-80720882D01*
X167488698Y-80840580D01*
X167547663Y-80950894D01*
X167599485Y-81014040D01*
X167301982Y-81212825D01*
X167039425Y-81475382D01*
X166957072Y-81598632D01*
X166957072Y-81591999D01*
X166940008Y-81418745D01*
X166889472Y-81252149D01*
X166807405Y-81098613D01*
X166696962Y-80964038D01*
X166629071Y-80908321D01*
X166633102Y-80900780D01*
X166669412Y-80781082D01*
X166681672Y-80656600D01*
X166678600Y-80492350D01*
X166519850Y-80333600D01*
X165770600Y-80333600D01*
X165770600Y-80353600D01*
X165516600Y-80353600D01*
X165516600Y-80333600D01*
X165496600Y-80333600D01*
X165496600Y-80079600D01*
X165516600Y-80079600D01*
X165516600Y-80059600D01*
X165770600Y-80059600D01*
X165770600Y-80079600D01*
X166519850Y-80079600D01*
X166678350Y-79921100D01*
X167139350Y-79921100D01*
X167440128Y-80221879D01*
%TO.N,+24V*%
G36*
X105570188Y-97435518D02*
G01*
X105557928Y-97560000D01*
X105561000Y-98774250D01*
X105719750Y-98933000D01*
X107569000Y-98933000D01*
X107569000Y-98913000D01*
X107823000Y-98913000D01*
X107823000Y-98933000D01*
X109672250Y-98933000D01*
X109831000Y-98774250D01*
X109834072Y-97560000D01*
X109821812Y-97435518D01*
X109813768Y-97409000D01*
X181270232Y-97409000D01*
X181262188Y-97435518D01*
X181249928Y-97560000D01*
X181253000Y-98774250D01*
X181411750Y-98933000D01*
X183261000Y-98933000D01*
X183261000Y-98913000D01*
X183515000Y-98913000D01*
X183515000Y-98933000D01*
X185364250Y-98933000D01*
X185523000Y-98774250D01*
X185526072Y-97560000D01*
X185513812Y-97435518D01*
X185505768Y-97409000D01*
X187579000Y-97409000D01*
X187579000Y-102040000D01*
X103251000Y-102040000D01*
X103251000Y-100560000D01*
X105557928Y-100560000D01*
X105570188Y-100684482D01*
X105606498Y-100804180D01*
X105665463Y-100914494D01*
X105744815Y-101011185D01*
X105841506Y-101090537D01*
X105951820Y-101149502D01*
X106071518Y-101185812D01*
X106196000Y-101198072D01*
X107410250Y-101195000D01*
X107569000Y-101036250D01*
X107569000Y-99187000D01*
X107823000Y-99187000D01*
X107823000Y-101036250D01*
X107981750Y-101195000D01*
X109196000Y-101198072D01*
X109320482Y-101185812D01*
X109440180Y-101149502D01*
X109550494Y-101090537D01*
X109647185Y-101011185D01*
X109726537Y-100914494D01*
X109785502Y-100804180D01*
X109821812Y-100684482D01*
X109834072Y-100560000D01*
X181249928Y-100560000D01*
X181262188Y-100684482D01*
X181298498Y-100804180D01*
X181357463Y-100914494D01*
X181436815Y-101011185D01*
X181533506Y-101090537D01*
X181643820Y-101149502D01*
X181763518Y-101185812D01*
X181888000Y-101198072D01*
X183102250Y-101195000D01*
X183261000Y-101036250D01*
X183261000Y-99187000D01*
X183515000Y-99187000D01*
X183515000Y-101036250D01*
X183673750Y-101195000D01*
X184888000Y-101198072D01*
X185012482Y-101185812D01*
X185132180Y-101149502D01*
X185242494Y-101090537D01*
X185339185Y-101011185D01*
X185418537Y-100914494D01*
X185477502Y-100804180D01*
X185513812Y-100684482D01*
X185526072Y-100560000D01*
X185523000Y-99345750D01*
X185364250Y-99187000D01*
X183515000Y-99187000D01*
X183261000Y-99187000D01*
X181411750Y-99187000D01*
X181253000Y-99345750D01*
X181249928Y-100560000D01*
X109834072Y-100560000D01*
X109831000Y-99345750D01*
X109672250Y-99187000D01*
X107823000Y-99187000D01*
X107569000Y-99187000D01*
X105719750Y-99187000D01*
X105561000Y-99345750D01*
X105557928Y-100560000D01*
X103251000Y-100560000D01*
X103251000Y-97409000D01*
X105578232Y-97409000D01*
X105570188Y-97435518D01*
G37*
X105570188Y-97435518D02*
X105557928Y-97560000D01*
X105561000Y-98774250D01*
X105719750Y-98933000D01*
X107569000Y-98933000D01*
X107569000Y-98913000D01*
X107823000Y-98913000D01*
X107823000Y-98933000D01*
X109672250Y-98933000D01*
X109831000Y-98774250D01*
X109834072Y-97560000D01*
X109821812Y-97435518D01*
X109813768Y-97409000D01*
X181270232Y-97409000D01*
X181262188Y-97435518D01*
X181249928Y-97560000D01*
X181253000Y-98774250D01*
X181411750Y-98933000D01*
X183261000Y-98933000D01*
X183261000Y-98913000D01*
X183515000Y-98913000D01*
X183515000Y-98933000D01*
X185364250Y-98933000D01*
X185523000Y-98774250D01*
X185526072Y-97560000D01*
X185513812Y-97435518D01*
X185505768Y-97409000D01*
X187579000Y-97409000D01*
X187579000Y-102040000D01*
X103251000Y-102040000D01*
X103251000Y-100560000D01*
X105557928Y-100560000D01*
X105570188Y-100684482D01*
X105606498Y-100804180D01*
X105665463Y-100914494D01*
X105744815Y-101011185D01*
X105841506Y-101090537D01*
X105951820Y-101149502D01*
X106071518Y-101185812D01*
X106196000Y-101198072D01*
X107410250Y-101195000D01*
X107569000Y-101036250D01*
X107569000Y-99187000D01*
X107823000Y-99187000D01*
X107823000Y-101036250D01*
X107981750Y-101195000D01*
X109196000Y-101198072D01*
X109320482Y-101185812D01*
X109440180Y-101149502D01*
X109550494Y-101090537D01*
X109647185Y-101011185D01*
X109726537Y-100914494D01*
X109785502Y-100804180D01*
X109821812Y-100684482D01*
X109834072Y-100560000D01*
X181249928Y-100560000D01*
X181262188Y-100684482D01*
X181298498Y-100804180D01*
X181357463Y-100914494D01*
X181436815Y-101011185D01*
X181533506Y-101090537D01*
X181643820Y-101149502D01*
X181763518Y-101185812D01*
X181888000Y-101198072D01*
X183102250Y-101195000D01*
X183261000Y-101036250D01*
X183261000Y-99187000D01*
X183515000Y-99187000D01*
X183515000Y-101036250D01*
X183673750Y-101195000D01*
X184888000Y-101198072D01*
X185012482Y-101185812D01*
X185132180Y-101149502D01*
X185242494Y-101090537D01*
X185339185Y-101011185D01*
X185418537Y-100914494D01*
X185477502Y-100804180D01*
X185513812Y-100684482D01*
X185526072Y-100560000D01*
X185523000Y-99345750D01*
X185364250Y-99187000D01*
X183515000Y-99187000D01*
X183261000Y-99187000D01*
X181411750Y-99187000D01*
X181253000Y-99345750D01*
X181249928Y-100560000D01*
X109834072Y-100560000D01*
X109831000Y-99345750D01*
X109672250Y-99187000D01*
X107823000Y-99187000D01*
X107569000Y-99187000D01*
X105719750Y-99187000D01*
X105561000Y-99345750D01*
X105557928Y-100560000D01*
X103251000Y-100560000D01*
X103251000Y-97409000D01*
X105578232Y-97409000D01*
X105570188Y-97435518D01*
%TD*%
M02*
