%TF.GenerationSoftware,KiCad,Pcbnew,(5.1.6)-1*%
%TF.CreationDate,2020-08-28T08:53:20-06:00*%
%TF.ProjectId,WhiteJewel,57686974-654a-4657-9765-6c2e6b696361,rev?*%
%TF.SameCoordinates,Original*%
%TF.FileFunction,Other,ECO2*%
%FSLAX46Y46*%
G04 Gerber Fmt 4.6, Leading zero omitted, Abs format (unit mm)*
G04 Created by KiCad (PCBNEW (5.1.6)-1) date 2020-08-28 08:53:20*
%MOMM*%
%LPD*%
G01*
G04 APERTURE LIST*
%ADD10C,0.010000*%
G04 APERTURE END LIST*
D10*
%TO.C,G\u002A\u002A\u002A*%
G36*
X167119812Y-93724361D02*
G01*
X167146152Y-93728645D01*
X167157400Y-93731125D01*
X167177718Y-93736232D01*
X167184368Y-93738831D01*
X167178036Y-93739747D01*
X167164657Y-93739823D01*
X167136782Y-93737542D01*
X167108391Y-93732129D01*
X167106600Y-93731645D01*
X167090228Y-93726627D01*
X167087479Y-93724039D01*
X167097620Y-93723000D01*
X167099343Y-93722947D01*
X167119812Y-93724361D01*
G37*
X167119812Y-93724361D02*
X167146152Y-93728645D01*
X167157400Y-93731125D01*
X167177718Y-93736232D01*
X167184368Y-93738831D01*
X167178036Y-93739747D01*
X167164657Y-93739823D01*
X167136782Y-93737542D01*
X167108391Y-93732129D01*
X167106600Y-93731645D01*
X167090228Y-93726627D01*
X167087479Y-93724039D01*
X167097620Y-93723000D01*
X167099343Y-93722947D01*
X167119812Y-93724361D01*
G36*
X166230876Y-93734279D02*
G01*
X166233929Y-93734668D01*
X166241161Y-93736530D01*
X166235302Y-93737989D01*
X166217774Y-93738846D01*
X166203086Y-93738989D01*
X166179536Y-93738565D01*
X166166842Y-93737425D01*
X166166428Y-93735768D01*
X166172243Y-93734668D01*
X166201143Y-93732891D01*
X166230876Y-93734279D01*
G37*
X166230876Y-93734279D02*
X166233929Y-93734668D01*
X166241161Y-93736530D01*
X166235302Y-93737989D01*
X166217774Y-93738846D01*
X166203086Y-93738989D01*
X166179536Y-93738565D01*
X166166842Y-93737425D01*
X166166428Y-93735768D01*
X166172243Y-93734668D01*
X166201143Y-93732891D01*
X166230876Y-93734279D01*
G36*
X166074271Y-93734967D02*
G01*
X166077710Y-93737758D01*
X166068593Y-93739530D01*
X166057943Y-93739859D01*
X166042247Y-93738978D01*
X166037938Y-93736727D01*
X166041614Y-93734967D01*
X166062761Y-93733099D01*
X166074271Y-93734967D01*
G37*
X166074271Y-93734967D02*
X166077710Y-93737758D01*
X166068593Y-93739530D01*
X166057943Y-93739859D01*
X166042247Y-93738978D01*
X166037938Y-93736727D01*
X166041614Y-93734967D01*
X166062761Y-93733099D01*
X166074271Y-93734967D01*
G36*
X167224377Y-93747402D02*
G01*
X167222213Y-93752533D01*
X167214852Y-93753331D01*
X167207109Y-93750574D01*
X167210468Y-93746511D01*
X167221810Y-93745165D01*
X167224377Y-93747402D01*
G37*
X167224377Y-93747402D02*
X167222213Y-93752533D01*
X167214852Y-93753331D01*
X167207109Y-93750574D01*
X167210468Y-93746511D01*
X167221810Y-93745165D01*
X167224377Y-93747402D01*
G36*
X167441664Y-93824580D02*
G01*
X167462239Y-93834807D01*
X167463499Y-93835512D01*
X167479487Y-93846791D01*
X167487413Y-93856862D01*
X167487600Y-93858090D01*
X167485931Y-93866242D01*
X167485786Y-93866197D01*
X167478752Y-93861275D01*
X167463135Y-93849929D01*
X167454943Y-93843916D01*
X167437466Y-93829674D01*
X167433223Y-93823049D01*
X167441664Y-93824580D01*
G37*
X167441664Y-93824580D02*
X167462239Y-93834807D01*
X167463499Y-93835512D01*
X167479487Y-93846791D01*
X167487413Y-93856862D01*
X167487600Y-93858090D01*
X167485931Y-93866242D01*
X167485786Y-93866197D01*
X167478752Y-93861275D01*
X167463135Y-93849929D01*
X167454943Y-93843916D01*
X167437466Y-93829674D01*
X167433223Y-93823049D01*
X167441664Y-93824580D01*
G36*
X167513173Y-93871640D02*
G01*
X167529512Y-93882119D01*
X167548266Y-93895590D01*
X167564676Y-93908583D01*
X167573984Y-93917628D01*
X167574686Y-93919154D01*
X167570796Y-93922943D01*
X167558074Y-93916339D01*
X167534937Y-93898477D01*
X167531143Y-93895334D01*
X167513839Y-93880042D01*
X167504425Y-93869944D01*
X167504008Y-93867621D01*
X167513173Y-93871640D01*
G37*
X167513173Y-93871640D02*
X167529512Y-93882119D01*
X167548266Y-93895590D01*
X167564676Y-93908583D01*
X167573984Y-93917628D01*
X167574686Y-93919154D01*
X167570796Y-93922943D01*
X167558074Y-93916339D01*
X167534937Y-93898477D01*
X167531143Y-93895334D01*
X167513839Y-93880042D01*
X167504425Y-93869944D01*
X167504008Y-93867621D01*
X167513173Y-93871640D01*
G36*
X167625787Y-93973975D02*
G01*
X167628088Y-93975305D01*
X167638311Y-93986330D01*
X167640000Y-93992497D01*
X167637470Y-94001962D01*
X167629213Y-93992311D01*
X167625348Y-93985386D01*
X167620053Y-93973147D01*
X167625787Y-93973975D01*
G37*
X167625787Y-93973975D02*
X167628088Y-93975305D01*
X167638311Y-93986330D01*
X167640000Y-93992497D01*
X167637470Y-94001962D01*
X167629213Y-93992311D01*
X167625348Y-93985386D01*
X167620053Y-93973147D01*
X167625787Y-93973975D01*
G36*
X167690505Y-94067217D02*
G01*
X167690800Y-94070311D01*
X167688324Y-94081307D01*
X167687600Y-94081600D01*
X167681404Y-94073690D01*
X167679914Y-94070311D01*
X167680490Y-94059909D01*
X167683114Y-94059022D01*
X167690505Y-94067217D01*
G37*
X167690505Y-94067217D02*
X167690800Y-94070311D01*
X167688324Y-94081307D01*
X167687600Y-94081600D01*
X167681404Y-94073690D01*
X167679914Y-94070311D01*
X167680490Y-94059909D01*
X167683114Y-94059022D01*
X167690505Y-94067217D01*
G36*
X167739181Y-94153096D02*
G01*
X167740049Y-94166494D01*
X167739181Y-94168148D01*
X167734867Y-94166599D01*
X167734343Y-94160622D01*
X167736998Y-94151330D01*
X167739181Y-94153096D01*
G37*
X167739181Y-94153096D02*
X167740049Y-94166494D01*
X167739181Y-94168148D01*
X167734867Y-94166599D01*
X167734343Y-94160622D01*
X167736998Y-94151330D01*
X167739181Y-94153096D01*
G36*
X167756760Y-94200134D02*
G01*
X167767164Y-94221596D01*
X167773637Y-94231005D01*
X167777049Y-94238509D01*
X167774947Y-94239472D01*
X167774256Y-94246509D01*
X167781554Y-94262292D01*
X167790186Y-94280419D01*
X167791588Y-94289826D01*
X167785998Y-94284710D01*
X167775957Y-94265946D01*
X167772678Y-94258712D01*
X167760967Y-94228851D01*
X167752945Y-94202879D01*
X167752336Y-94200134D01*
X167747761Y-94177556D01*
X167756760Y-94200134D01*
G37*
X167756760Y-94200134D02*
X167767164Y-94221596D01*
X167773637Y-94231005D01*
X167777049Y-94238509D01*
X167774947Y-94239472D01*
X167774256Y-94246509D01*
X167781554Y-94262292D01*
X167790186Y-94280419D01*
X167791588Y-94289826D01*
X167785998Y-94284710D01*
X167775957Y-94265946D01*
X167772678Y-94258712D01*
X167760967Y-94228851D01*
X167752945Y-94202879D01*
X167752336Y-94200134D01*
X167747761Y-94177556D01*
X167756760Y-94200134D01*
G36*
X167806914Y-94335600D02*
G01*
X167803286Y-94341245D01*
X167799657Y-94335600D01*
X167803286Y-94329956D01*
X167806914Y-94335600D01*
G37*
X167806914Y-94335600D02*
X167803286Y-94341245D01*
X167799657Y-94335600D01*
X167803286Y-94329956D01*
X167806914Y-94335600D01*
G36*
X167814171Y-94369467D02*
G01*
X167810543Y-94375111D01*
X167806914Y-94369467D01*
X167810543Y-94363822D01*
X167814171Y-94369467D01*
G37*
X167814171Y-94369467D02*
X167810543Y-94375111D01*
X167806914Y-94369467D01*
X167810543Y-94363822D01*
X167814171Y-94369467D01*
G36*
X167819009Y-94401452D02*
G01*
X167819878Y-94414849D01*
X167819009Y-94416504D01*
X167814695Y-94414954D01*
X167814171Y-94408978D01*
X167816827Y-94399686D01*
X167819009Y-94401452D01*
G37*
X167819009Y-94401452D02*
X167819878Y-94414849D01*
X167819009Y-94416504D01*
X167814695Y-94414954D01*
X167814171Y-94408978D01*
X167816827Y-94399686D01*
X167819009Y-94401452D01*
G36*
X167848038Y-94604652D02*
G01*
X167848907Y-94618049D01*
X167848038Y-94619704D01*
X167843724Y-94618154D01*
X167843200Y-94612178D01*
X167845855Y-94602886D01*
X167848038Y-94604652D01*
G37*
X167848038Y-94604652D02*
X167848907Y-94618049D01*
X167848038Y-94619704D01*
X167843724Y-94618154D01*
X167843200Y-94612178D01*
X167845855Y-94602886D01*
X167848038Y-94604652D01*
G36*
X164200114Y-95148400D02*
G01*
X164196486Y-95154045D01*
X164192857Y-95148400D01*
X164196486Y-95142756D01*
X164200114Y-95148400D01*
G37*
X164200114Y-95148400D02*
X164196486Y-95154045D01*
X164192857Y-95148400D01*
X164196486Y-95142756D01*
X164200114Y-95148400D01*
G36*
X164142057Y-95317734D02*
G01*
X164138429Y-95323378D01*
X164134800Y-95317734D01*
X164138429Y-95312089D01*
X164142057Y-95317734D01*
G37*
X164142057Y-95317734D02*
X164138429Y-95323378D01*
X164134800Y-95317734D01*
X164138429Y-95312089D01*
X164142057Y-95317734D01*
G36*
X165796686Y-95408045D02*
G01*
X165793057Y-95413689D01*
X165789429Y-95408045D01*
X165793057Y-95402400D01*
X165796686Y-95408045D01*
G37*
X165796686Y-95408045D02*
X165793057Y-95413689D01*
X165789429Y-95408045D01*
X165793057Y-95402400D01*
X165796686Y-95408045D01*
G36*
X165484629Y-95408045D02*
G01*
X165481000Y-95413689D01*
X165477371Y-95408045D01*
X165481000Y-95402400D01*
X165484629Y-95408045D01*
G37*
X165484629Y-95408045D02*
X165481000Y-95413689D01*
X165477371Y-95408045D01*
X165481000Y-95402400D01*
X165484629Y-95408045D01*
G36*
X165506400Y-95419334D02*
G01*
X165502771Y-95424978D01*
X165499143Y-95419334D01*
X165502771Y-95413689D01*
X165506400Y-95419334D01*
G37*
X165506400Y-95419334D02*
X165502771Y-95424978D01*
X165499143Y-95419334D01*
X165502771Y-95413689D01*
X165506400Y-95419334D01*
G36*
X164729886Y-95419334D02*
G01*
X164726257Y-95424978D01*
X164722629Y-95419334D01*
X164726257Y-95413689D01*
X164729886Y-95419334D01*
G37*
X164729886Y-95419334D02*
X164726257Y-95424978D01*
X164722629Y-95419334D01*
X164726257Y-95413689D01*
X164729886Y-95419334D01*
G36*
X169272857Y-95441911D02*
G01*
X169269229Y-95447556D01*
X169265600Y-95441911D01*
X169269229Y-95436267D01*
X169272857Y-95441911D01*
G37*
X169272857Y-95441911D02*
X169269229Y-95447556D01*
X169265600Y-95441911D01*
X169269229Y-95436267D01*
X169272857Y-95441911D01*
G36*
X165513657Y-95453200D02*
G01*
X165510029Y-95458845D01*
X165506400Y-95453200D01*
X165510029Y-95447556D01*
X165513657Y-95453200D01*
G37*
X165513657Y-95453200D02*
X165510029Y-95458845D01*
X165506400Y-95453200D01*
X165510029Y-95447556D01*
X165513657Y-95453200D01*
G36*
X161260971Y-95464489D02*
G01*
X161257343Y-95470134D01*
X161253714Y-95464489D01*
X161257343Y-95458845D01*
X161260971Y-95464489D01*
G37*
X161260971Y-95464489D02*
X161257343Y-95470134D01*
X161253714Y-95464489D01*
X161257343Y-95458845D01*
X161260971Y-95464489D01*
G36*
X168363295Y-95462608D02*
G01*
X168364164Y-95476005D01*
X168363295Y-95477659D01*
X168358981Y-95476110D01*
X168358457Y-95470134D01*
X168361112Y-95460841D01*
X168363295Y-95462608D01*
G37*
X168363295Y-95462608D02*
X168364164Y-95476005D01*
X168363295Y-95477659D01*
X168358981Y-95476110D01*
X168358457Y-95470134D01*
X168361112Y-95460841D01*
X168363295Y-95462608D01*
G36*
X169248809Y-95488714D02*
G01*
X169247457Y-95492711D01*
X169240619Y-95503492D01*
X169239343Y-95504000D01*
X169238848Y-95496708D01*
X169240200Y-95492711D01*
X169247038Y-95481930D01*
X169248314Y-95481422D01*
X169248809Y-95488714D01*
G37*
X169248809Y-95488714D02*
X169247457Y-95492711D01*
X169240619Y-95503492D01*
X169239343Y-95504000D01*
X169238848Y-95496708D01*
X169240200Y-95492711D01*
X169247038Y-95481930D01*
X169248314Y-95481422D01*
X169248809Y-95488714D01*
G36*
X161304514Y-95588667D02*
G01*
X161300886Y-95594311D01*
X161297257Y-95588667D01*
X161300886Y-95583022D01*
X161304514Y-95588667D01*
G37*
X161304514Y-95588667D02*
X161300886Y-95594311D01*
X161297257Y-95588667D01*
X161300886Y-95583022D01*
X161304514Y-95588667D01*
G36*
X167661771Y-96322445D02*
G01*
X167658143Y-96328089D01*
X167654514Y-96322445D01*
X167658143Y-96316800D01*
X167661771Y-96322445D01*
G37*
X167661771Y-96322445D02*
X167658143Y-96328089D01*
X167654514Y-96322445D01*
X167658143Y-96316800D01*
X167661771Y-96322445D01*
G36*
X161732686Y-96796578D02*
G01*
X161729057Y-96802222D01*
X161725429Y-96796578D01*
X161729057Y-96790934D01*
X161732686Y-96796578D01*
G37*
X161732686Y-96796578D02*
X161729057Y-96802222D01*
X161725429Y-96796578D01*
X161729057Y-96790934D01*
X161732686Y-96796578D01*
G36*
X165796686Y-96864311D02*
G01*
X165793057Y-96869956D01*
X165789429Y-96864311D01*
X165793057Y-96858667D01*
X165796686Y-96864311D01*
G37*
X165796686Y-96864311D02*
X165793057Y-96869956D01*
X165789429Y-96864311D01*
X165793057Y-96858667D01*
X165796686Y-96864311D01*
G36*
X169519600Y-96909467D02*
G01*
X169515971Y-96915111D01*
X169512343Y-96909467D01*
X169515971Y-96903822D01*
X169519600Y-96909467D01*
G37*
X169519600Y-96909467D02*
X169515971Y-96915111D01*
X169512343Y-96909467D01*
X169515971Y-96903822D01*
X169519600Y-96909467D01*
G36*
X167487600Y-97485200D02*
G01*
X167483971Y-97490845D01*
X167480343Y-97485200D01*
X167483971Y-97479556D01*
X167487600Y-97485200D01*
G37*
X167487600Y-97485200D02*
X167483971Y-97490845D01*
X167480343Y-97485200D01*
X167483971Y-97479556D01*
X167487600Y-97485200D01*
%TD*%
M02*
